
<svg width="200" height="200" viewBox="0 0 200 200" xmlns="http://www.w3.org/2000/svg">
    <rect width="100%" height="100%" fill="#1a2f1a" />
    <rect x="76.97316320684166%" y="33.129844152156686%" width="4.078797393279209%" height="18.80177454389775%" fill="#0f380f" fill-opacity="0.3424383388128446" transform="rotate(9.314562170224463 76.97316320684166 33.129844152156686)" /><rect x="65.01373796344893%" y="19.40554832019957%" width="2.2083356054193928%" height="24.533423921084538%" fill="#0f380f" fill-opacity="0.3645872635652745" transform="rotate(-5.830373329813179 65.01373796344893 19.40554832019957)" /><rect x="98.37999563947795%" y="64.00377067561581%" width="6.100505341683402%" height="22.52969066851611%" fill="#0f380f" fill-opacity="0.31327879094574107" transform="rotate(-5.224954108679169 98.37999563947795 64.00377067561581)" /><rect x="57.5544370205626%" y="94.41762417516297%" width="6.846108103741782%" height="18.831034271977703%" fill="#0f380f" fill-opacity="0.29881046031968905" transform="rotate(-7.307121205692977 57.5544370205626 94.41762417516297)" /><rect x="41.63515424744346%" y="84.44646078877793%" width="4.45240038465472%" height="6.257874881826901%" fill="#0f380f" fill-opacity="0.13557704173121288" transform="rotate(-0.5634535239536458 41.63515424744346 84.44646078877793)" /><rect x="98.07854432268846%" y="3.857118357496647%" width="6.001968599481556%" height="18.422083299439645%" fill="#0f380f" fill-opacity="0.3624627734935837" transform="rotate(0.9428500399770385 98.07854432268846 3.857118357496647)" /><rect x="69.75378847994858%" y="94.80913636331448%" width="7.938454680757258%" height="16.877152796055938%" fill="#0f380f" fill-opacity="0.1535045329940363" transform="rotate(8.822975803642791 69.75378847994858 94.80913636331448)" /><rect x="84.63437584842684%" y="96.26822314250998%" width="6.326989949311183%" height="20.121322509177702%" fill="#0f380f" fill-opacity="0.3047631981715504" transform="rotate(4.14934361506748 84.63437584842684 96.26822314250998)" /><rect x="53.18835468755013%" y="93.67182045130671%" width="11.869172104007367%" height="24.657788062066114%" fill="#0f380f" fill-opacity="0.23207574368662803" transform="rotate(4.755418821734288 53.18835468755013 93.67182045130671)" /><rect x="55.81273150380931%" y="52.220627272747834%" width="5.422692523665244%" height="24.575686519060785%" fill="#0f380f" fill-opacity="0.21771427823487394" transform="rotate(0.6077029662837337 55.81273150380931 52.220627272747834)" /><rect x="87.98972382005726%" y="16.59325719758572%" width="2.7396445881258784%" height="22.99030988314866%" fill="#0f380f" fill-opacity="0.33088527419684366" transform="rotate(-6.835715661158255 87.98972382005726 16.59325719758572)" /><rect x="71.75231399796476%" y="50.58747672854845%" width="8.00545726519818%" height="20.433919110275678%" fill="#0f380f" fill-opacity="0.1925790575132515" transform="rotate(3.3831933305055664 71.75231399796476 50.58747672854845)" /><rect x="14.903900139530835%" y="44.58973404533887%" width="3.4561193496001943%" height="15.740484875668855%" fill="#0f380f" fill-opacity="0.16812888096796774" transform="rotate(-1.2793544234946062 14.903900139530835 44.58973404533887)" /><rect x="99.98341399627792%" y="77.88392710656657%" width="6.225771821679356%" height="20.37998541787394%" fill="#0f380f" fill-opacity="0.22171742234143385" transform="rotate(0.8924726436300325 99.98341399627792 77.88392710656657)" /><rect x="45.805401818249806%" y="51.20194541463587%" width="11.551372541230363%" height="15.01007310760299%" fill="#0f380f" fill-opacity="0.32879191817983355" transform="rotate(3.1084654185057943 45.805401818249806 51.20194541463587)" /><rect x="70.49153822025383%" y="17.05326103047746%" width="2.7940620722168834%" height="17.444562024383266%" fill="#0f380f" fill-opacity="0.34849133627548506" transform="rotate(-4.319672547681474 70.49153822025383 17.05326103047746)" /><rect x="13.117310272775418%" y="22.539786276021278%" width="7.214461820911608%" height="20.979498478375724%" fill="#0f380f" fill-opacity="0.28933194545950175" transform="rotate(6.941410803702436 13.117310272775418 22.539786276021278)" /><rect x="57.70012042481339%" y="42.67833410673161%" width="3.8288455165395123%" height="23.005658741202723%" fill="#0f380f" fill-opacity="0.19451033809111573" transform="rotate(7.1136484836716605 57.70012042481339 42.67833410673161)" /><rect x="61.768556643977576%" y="83.00672254150597%" width="2.9634510565566288%" height="15.528507922678825%" fill="#0f380f" fill-opacity="0.2403848497615505" transform="rotate(1.7238030498514068 61.768556643977576 83.00672254150597)" /><rect x="73.98944332722935%" y="99.61174523790412%" width="5.056222257825283%" height="17.09572832972745%" fill="#0f380f" fill-opacity="0.16156363045810707" transform="rotate(-6.868871391641602 73.98944332722935 99.61174523790412)" /><rect x="23.927587011878483%" y="17.800747383240655%" width="8.776375461656999%" height="6.68115516589038%" fill="#0f380f" fill-opacity="0.36289966152970676" transform="rotate(-3.209925561885136 23.927587011878483 17.800747383240655)" /><rect x="43.281636780681545%" y="94.70612752888698%" width="10.218541512520748%" height="7.686998866966119%" fill="#0f380f" fill-opacity="0.1922571091056467" transform="rotate(7.776943588044972 43.281636780681545 94.70612752888698)" /><rect x="68.09396759506737%" y="15.174179291675948%" width="6.299133897367633%" height="14.582581990337225%" fill="#0f380f" fill-opacity="0.1131803079881504" transform="rotate(0.4167603399729778 68.09396759506737 15.174179291675948)" /><rect x="83.99651466995155%" y="29.393662206178174%" width="11.313365753419475%" height="8.23628794632972%" fill="#0f380f" fill-opacity="0.11276047721801474" transform="rotate(-8.48113252787966 83.99651466995155 29.393662206178174)" /><rect x="45.35723242730393%" y="73.86883322447534%" width="4.196578910750739%" height="11.83063941364529%" fill="#0f380f" fill-opacity="0.1634349709546753" transform="rotate(-1.8708538146686244 45.35723242730393 73.86883322447534)" /><rect x="8.143774185230669%" y="91.48071514873646%" width="11.0036035729222%" height="6.008791929610169%" fill="#0f380f" fill-opacity="0.21420057582103544" transform="rotate(4.771589790811728 8.143774185230669 91.48071514873646)" /><rect x="5.564580222988303%" y="1.2118063967512693%" width="8.339656931512751%" height="23.52934193321206%" fill="#0f380f" fill-opacity="0.11800331774628489" transform="rotate(-4.779344493166153 5.564580222988303 1.2118063967512693)" /><rect x="90.91132456458863%" y="80.00268222066735%" width="2.803654421614363%" height="9.510752874226009%" fill="#0f380f" fill-opacity="0.34893671180058183" transform="rotate(-8.511946211887809 90.91132456458863 80.00268222066735)" /><rect x="25.205546985642048%" y="63.126348800309096%" width="11.70998656732039%" height="22.637771896933444%" fill="#0f380f" fill-opacity="0.300672746788861" transform="rotate(4.273731673997464 25.205546985642048 63.126348800309096)" /><rect x="10.812759686045915%" y="59.00106700443006%" width="10.116513804645004%" height="23.377229459301784%" fill="#0f380f" fill-opacity="0.12748016838549694" transform="rotate(-0.9406696284622402 10.812759686045915 59.00106700443006)" /><rect x="13.711384293749273%" y="94.31762255838882%" width="6.174382354672851%" height="18.430240603875006%" fill="#0f380f" fill-opacity="0.18306707515166598" transform="rotate(-1.8289419671571636 13.711384293749273 94.31762255838882)" /><rect x="51.97465026188277%" y="84.13514173486159%" width="8.583255505629056%" height="21.055933706770876%" fill="#0f380f" fill-opacity="0.3561837463960231" transform="rotate(5.7488867505839085 51.97465026188277 84.13514173486159)" /><rect x="65.00191341300201%" y="46.121062053775006%" width="6.083654549841217%" height="5.703912001112914%" fill="#0f380f" fill-opacity="0.36775468074986417" transform="rotate(-6.20241196931913 65.00191341300201 46.121062053775006)" /><rect x="54.30626123675526%" y="56.4670821222199%" width="7.121489281670948%" height="22.053327056134307%" fill="#0f380f" fill-opacity="0.22280988193985043" transform="rotate(9.175036623672405 54.30626123675526 56.4670821222199)" /><rect x="45.419191288486516%" y="35.829601928003584%" width="5.790704379616092%" height="19.295810575680072%" fill="#0f380f" fill-opacity="0.25660461145429625" transform="rotate(-1.411608767806662 45.419191288486516 35.829601928003584)" /><rect x="33.988282052137706%" y="49.284330232711795%" width="2.760497126604991%" height="22.479285475607924%" fill="#0f380f" fill-opacity="0.376961438443302" transform="rotate(-0.8209388834503688 33.988282052137706 49.284330232711795)" /><rect x="63.112285394865495%" y="63.185995313198106%" width="4.307520188665459%" height="10.395712552268074%" fill="#0f380f" fill-opacity="0.3498864174695915" transform="rotate(-8.33240384745185 63.112285394865495 63.185995313198106)" /><rect x="69.73546086252365%" y="96.56143565360263%" width="5.227267373173287%" height="18.317287115896235%" fill="#0f380f" fill-opacity="0.1511652764755605" transform="rotate(9.162226809190727 69.73546086252365 96.56143565360263)" /><rect x="78.62898221461887%" y="39.387671316494455%" width="3.235717172919747%" height="17.34792923070751%" fill="#0f380f" fill-opacity="0.15280485180607217" transform="rotate(-8.897355225648145 78.62898221461887 39.387671316494455)" /><rect x="15.808141763107908%" y="5.764545902805207%" width="9.950563343201846%" height="14.67682300675568%" fill="#0f380f" fill-opacity="0.38327282396008977" transform="rotate(2.1598507627556973 15.808141763107908 5.764545902805207)" /><rect x="68.99269644704464%" y="40.40627834817111%" width="2.4668472526152434%" height="9.92666083899959%" fill="#0f380f" fill-opacity="0.3732615184723631" transform="rotate(3.977604850987147 68.99269644704464 40.40627834817111)" /><rect x="73.69335775159942%" y="98.27619743740847%" width="8.869026338914367%" height="22.51337047072411%" fill="#0f380f" fill-opacity="0.3326069070340643" transform="rotate(3.5859931603967112 73.69335775159942 98.27619743740847)" /><rect x="58.29880231282382%" y="25.94699238918873%" width="6.664964229996964%" height="16.54865897094828%" fill="#0f380f" fill-opacity="0.26543448254224977" transform="rotate(-2.9645984903427403 58.29880231282382 25.94699238918873)" /><rect x="4.111741372784927%" y="96.49350231318452%" width="5.882768894058245%" height="16.796312356510207%" fill="#0f380f" fill-opacity="0.1068082668362099" transform="rotate(0.8439972436719216 4.111741372784927 96.49350231318452)" /><rect x="37.07666182456095%" y="68.5819921881584%" width="5.648852911174785%" height="6.545488547445048%" fill="#0f380f" fill-opacity="0.3186110122375996" transform="rotate(-2.3245053414087824 37.07666182456095 68.5819921881584)" /><rect x="26.386470871430156%" y="4.8334619925442635%" width="11.413662847042444%" height="19.274235461758714%" fill="#0f380f" fill-opacity="0.21111401663165058" transform="rotate(1.319302250905201 26.386470871430156 4.8334619925442635)" /><rect x="66.49660337888946%" y="72.75686862882117%" width="2.707124482741638%" height="7.007955777525055%" fill="#0f380f" fill-opacity="0.2802822317688969" transform="rotate(-5.85129807241668 66.49660337888946 72.75686862882117)" /><rect x="13.316554522727998%" y="96.43533089302154%" width="5.422860519069495%" height="11.289453376039596%" fill="#0f380f" fill-opacity="0.39318572241655525" transform="rotate(5.984929559822055 13.316554522727998 96.43533089302154)" /><rect x="80.19236307569149%" y="15.311433695609134%" width="5.4194025301495365%" height="13.905968677892345%" fill="#0f380f" fill-opacity="0.3362807966540604" transform="rotate(-9.740799115451935 80.19236307569149 15.311433695609134)" /><rect x="8.09404693025927%" y="70.88337701860644%" width="10.314079591542967%" height="18.589217181436595%" fill="#0f380f" fill-opacity="0.2852143252966357" transform="rotate(1.5947429051523088 8.09404693025927 70.88337701860644)" />
    <text x="50%" y="50%" font-family="monospace" font-size="24" fill="#2e5c2e" opacity="0.4" 
          text-anchor="middle" dominant-baseline="middle" 
          transform="rotate(90, 100, 100)">ROTATE</text>
    <!-- Add more noise on top -->
    <rect x="0" y="0" width="100%" height="100%" fill="url(#noise)" opacity="0.2"/>
    <defs>
        <filter id="noise">
            <feTurbulence type="fractalNoise" baseFrequency="0.8" numOctaves="3" stitchTiles="stitch"/>
        </filter>
    </defs>
</svg>