
<svg width="200" height="200" viewBox="0 0 200 200" xmlns="http://www.w3.org/2000/svg">
    <rect width="100%" height="100%" fill="#1a2f1a" />
    <rect x="99.80490500090488%" y="99.67737228375249%" width="11.78493330451314%" height="18.925432482965334%" fill="#0f380f" fill-opacity="0.3189172845184276" transform="rotate(-6.111764375052264 99.80490500090488 99.67737228375249)" /><rect x="21.047219583494847%" y="44.825869374551516%" width="10.364937980745937%" height="10.721421072912607%" fill="#0f380f" fill-opacity="0.1441429637428287" transform="rotate(-8.403221435119958 21.047219583494847 44.825869374551516)" /><rect x="18.593074300280897%" y="76.72460076925972%" width="11.77202423780157%" height="11.651707695837683%" fill="#0f380f" fill-opacity="0.3517526916019539" transform="rotate(5.301397444408366 18.593074300280897 76.72460076925972)" /><rect x="47.65449077558096%" y="55.953731625195665%" width="10.01826743190656%" height="15.80790944565372%" fill="#0f380f" fill-opacity="0.359074161108791" transform="rotate(5.95431711015266 47.65449077558096 55.953731625195665)" /><rect x="22.637667173578492%" y="0.8327599566558708%" width="9.223060742162723%" height="11.883289542300927%" fill="#0f380f" fill-opacity="0.15457289717958217" transform="rotate(4.6920199181654 22.637667173578492 0.8327599566558708)" /><rect x="17.90378984483857%" y="66.24404454166245%" width="7.625681971521685%" height="21.724941577035594%" fill="#0f380f" fill-opacity="0.3585109330527345" transform="rotate(6.600176980415732 17.90378984483857 66.24404454166245)" /><rect x="35.87925821670297%" y="94.0419402850866%" width="5.229749561591632%" height="23.406577795242697%" fill="#0f380f" fill-opacity="0.17951630283100717" transform="rotate(5.077324889025691 35.87925821670297 94.0419402850866)" /><rect x="28.38459962760642%" y="61.11759041105197%" width="8.358973337744878%" height="9.320600125413083%" fill="#0f380f" fill-opacity="0.11816547876636822" transform="rotate(-1.8908205720882183 28.38459962760642 61.11759041105197)" /><rect x="99.62567795427944%" y="72.96765009139075%" width="9.166377244048494%" height="11.497405456146044%" fill="#0f380f" fill-opacity="0.34135887012833277" transform="rotate(-8.10447090668749 99.62567795427944 72.96765009139075)" /><rect x="89.14780847287736%" y="78.48783976389272%" width="6.409046601596524%" height="18.10208588396064%" fill="#0f380f" fill-opacity="0.2842954143170535" transform="rotate(3.4130205339461135 89.14780847287736 78.48783976389272)" /><rect x="24.889350373152986%" y="65.86311145309998%" width="10.870831077162736%" height="10.192649457478565%" fill="#0f380f" fill-opacity="0.28843777203082865" transform="rotate(3.6765439594694254 24.889350373152986 65.86311145309998)" /><rect x="98.19016403606662%" y="51.137469277445845%" width="11.425303381813398%" height="21.01370035995617%" fill="#0f380f" fill-opacity="0.14490204246886695" transform="rotate(-5.186016939453322 98.19016403606662 51.137469277445845)" /><rect x="82.67307022686614%" y="32.31981678536643%" width="8.066414240432909%" height="20.158162228468584%" fill="#0f380f" fill-opacity="0.23171763995302447" transform="rotate(-9.579516136950302 82.67307022686614 32.31981678536643)" /><rect x="44.1980840700905%" y="52.25244693000144%" width="6.078875316966624%" height="6.916780370808338%" fill="#0f380f" fill-opacity="0.23700051364196784" transform="rotate(-4.914624267578976 44.1980840700905 52.25244693000144)" /><rect x="48.360697096048085%" y="23.333430354564445%" width="6.529327394068389%" height="6.497169392001028%" fill="#0f380f" fill-opacity="0.38068772173113874" transform="rotate(3.830221422627938 48.360697096048085 23.333430354564445)" /><rect x="71.79382933701903%" y="68.48407581522432%" width="4.013745508560354%" height="18.702648167687954%" fill="#0f380f" fill-opacity="0.35373397829362907" transform="rotate(4.3506616383767 71.79382933701903 68.48407581522432)" /><rect x="5.38355573028928%" y="1.2701240004695302%" width="7.8966822572291555%" height="24.845939685600683%" fill="#0f380f" fill-opacity="0.27371276572481734" transform="rotate(-4.696856271426119 5.38355573028928 1.2701240004695302)" /><rect x="75.99303484069819%" y="4.371518378905693%" width="4.69734448155001%" height="15.611750575809618%" fill="#0f380f" fill-opacity="0.21995516929595996" transform="rotate(4.307511659959097 75.99303484069819 4.371518378905693)" /><rect x="1.1103967047552121%" y="18.46088891465084%" width="2.7392969702807886%" height="14.972162861790695%" fill="#0f380f" fill-opacity="0.2168558380092613" transform="rotate(-6.427924170431978 1.1103967047552121 18.46088891465084)" /><rect x="27.856624562866283%" y="30.793620843219117%" width="9.174565485616565%" height="5.885183682375761%" fill="#0f380f" fill-opacity="0.30442881843365954" transform="rotate(8.594840272761804 27.856624562866283 30.793620843219117)" /><rect x="64.61812132579003%" y="12.655072428280844%" width="11.281787167217121%" height="23.489647221948715%" fill="#0f380f" fill-opacity="0.27582951512747467" transform="rotate(-7.049926823143176 64.61812132579003 12.655072428280844)" /><rect x="13.877052828031367%" y="31.170896139622172%" width="4.023613897756407%" height="18.333084198247256%" fill="#0f380f" fill-opacity="0.33192536931714867" transform="rotate(-6.551877824677206 13.877052828031367 31.170896139622172)" /><rect x="80.28416802652359%" y="76.23413962091405%" width="6.501814234842496%" height="11.258897483736433%" fill="#0f380f" fill-opacity="0.31573992751977087" transform="rotate(-8.839185471896219 80.28416802652359 76.23413962091405)" /><rect x="5.749782569669226%" y="55.37023012812169%" width="5.654968582962997%" height="16.637201950470082%" fill="#0f380f" fill-opacity="0.34585746871270595" transform="rotate(3.3460257940455733 5.749782569669226 55.37023012812169)" /><rect x="41.57438359510366%" y="60.15338121288709%" width="10.157793447730713%" height="11.580555709805711%" fill="#0f380f" fill-opacity="0.23032145218638883" transform="rotate(0.6203359085576245 41.57438359510366 60.15338121288709)" /><rect x="13.106605842846964%" y="48.860750878531015%" width="3.052220195835003%" height="9.956763615221638%" fill="#0f380f" fill-opacity="0.29743871286993173" transform="rotate(0.38161773159119505 13.106605842846964 48.860750878531015)" /><rect x="58.172067648213584%" y="12.942614460873669%" width="4.168651233907111%" height="13.614643745898828%" fill="#0f380f" fill-opacity="0.2358238517519894" transform="rotate(-5.1492473137605295 58.172067648213584 12.942614460873669)" /><rect x="16.667501970879183%" y="64.98522399369458%" width="11.336181152436838%" height="6.848558057762797%" fill="#0f380f" fill-opacity="0.2782045055205593" transform="rotate(9.560989046920227 16.667501970879183 64.98522399369458)" /><rect x="39.64442047531779%" y="58.24188040660757%" width="5.479600741841961%" height="11.700874807411934%" fill="#0f380f" fill-opacity="0.2929532047982021" transform="rotate(-7.303688937060235 39.64442047531779 58.24188040660757)" /><rect x="59.017957057632344%" y="21.40437976314503%" width="5.23403233238964%" height="13.762514778943407%" fill="#0f380f" fill-opacity="0.2035688332999136" transform="rotate(2.662052012560988 59.017957057632344 21.40437976314503)" /><rect x="48.3640492770689%" y="57.38185994440843%" width="4.649572691849644%" height="21.864433353073775%" fill="#0f380f" fill-opacity="0.26964721746758624" transform="rotate(-8.057006897595462 48.3640492770689 57.38185994440843)" /><rect x="53.230893629357986%" y="33.45429623722775%" width="10.026549893463603%" height="10.653335605848373%" fill="#0f380f" fill-opacity="0.1590541141937729" transform="rotate(-0.3162145447410776 53.230893629357986 33.45429623722775)" /><rect x="3.031650853099521%" y="62.85563543645568%" width="10.766030404997172%" height="14.777596571039624%" fill="#0f380f" fill-opacity="0.1689567561634341" transform="rotate(-5.237525747893386 3.031650853099521 62.85563543645568)" /><rect x="90.23233507120054%" y="61.6326127108355%" width="7.146505799952693%" height="13.03014390921997%" fill="#0f380f" fill-opacity="0.2835473707407575" transform="rotate(-5.165494014202549 90.23233507120054 61.6326127108355)" /><rect x="60.09096170680239%" y="97.19725087777637%" width="7.226054064974174%" height="6.224366302721083%" fill="#0f380f" fill-opacity="0.24113107724756438" transform="rotate(-1.1308693301940398 60.09096170680239 97.19725087777637)" /><rect x="99.38933809882892%" y="20.834859961092434%" width="9.331262159129032%" height="23.500855883744407%" fill="#0f380f" fill-opacity="0.11830000928394024" transform="rotate(-4.788108748469623 99.38933809882892 20.834859961092434)" /><rect x="92.4017981465498%" y="68.28278307652563%" width="4.054553585351658%" height="10.951084703909883%" fill="#0f380f" fill-opacity="0.3048631848387501" transform="rotate(-5.199363533783852 92.4017981465498 68.28278307652563)" /><rect x="40.290188255204484%" y="16.786795141413446%" width="8.480072626111184%" height="12.64528020077297%" fill="#0f380f" fill-opacity="0.3769956287527215" transform="rotate(4.714742171183996 40.290188255204484 16.786795141413446)" /><rect x="30.36070008506765%" y="6.8180334860474145%" width="6.184010027803623%" height="21.922048655760822%" fill="#0f380f" fill-opacity="0.3964953293814357" transform="rotate(3.795508342346068 30.36070008506765 6.8180334860474145)" /><rect x="92.82291681578276%" y="57.05309879177586%" width="10.801726843175576%" height="5.820375623757707%" fill="#0f380f" fill-opacity="0.3752804400224593" transform="rotate(2.113298135061548 92.82291681578276 57.05309879177586)" /><rect x="15.051643149344706%" y="12.811441593045213%" width="9.035156126908067%" height="6.145595558779629%" fill="#0f380f" fill-opacity="0.1101362715597583" transform="rotate(-0.08882410055354661 15.051643149344706 12.811441593045213)" /><rect x="15.898530128791343%" y="15.928965744511137%" width="8.795256945789784%" height="16.075139128991935%" fill="#0f380f" fill-opacity="0.2810067913865908" transform="rotate(-2.9564683360979416 15.898530128791343 15.928965744511137)" /><rect x="23.333203601659225%" y="51.40342572778168%" width="9.549337714136822%" height="20.92605241627858%" fill="#0f380f" fill-opacity="0.25488496628061663" transform="rotate(-6.077173968982212 23.333203601659225 51.40342572778168)" /><rect x="1.1386836397090483%" y="95.40701829273989%" width="2.8680294497573335%" height="21.996677476399956%" fill="#0f380f" fill-opacity="0.19568929496259257" transform="rotate(-6.3195952102745405 1.1386836397090483 95.40701829273989)" /><rect x="61.71985719062213%" y="92.41290528019206%" width="10.56158693201105%" height="17.27900425515192%" fill="#0f380f" fill-opacity="0.3746604445019751" transform="rotate(3.301477106645926 61.71985719062213 92.41290528019206)" /><rect x="33.7113152460169%" y="4.193436666355699%" width="10.844171457899305%" height="5.524830654127742%" fill="#0f380f" fill-opacity="0.30628559582621273" transform="rotate(-4.089026478129942 33.7113152460169 4.193436666355699)" /><rect x="52.41926301384042%" y="68.72446995535964%" width="10.638937421893548%" height="11.328590249426076%" fill="#0f380f" fill-opacity="0.23523912420126075" transform="rotate(-0.6734792419643671 52.41926301384042 68.72446995535964)" /><rect x="56.30483125089994%" y="85.54762882463825%" width="3.369232424455201%" height="9.957949588836236%" fill="#0f380f" fill-opacity="0.3790013055926207" transform="rotate(-3.512819982872786 56.30483125089994 85.54762882463825)" /><rect x="39.754329288696354%" y="84.78693886458478%" width="8.983077591512492%" height="20.677563281704366%" fill="#0f380f" fill-opacity="0.30284165770234195" transform="rotate(-5.174381422392176 39.754329288696354 84.78693886458478)" /><rect x="24.530353169529906%" y="86.838470272565%" width="10.614416401929068%" height="15.83171017862206%" fill="#0f380f" fill-opacity="0.3112230616776591" transform="rotate(-0.606011686427447 24.530353169529906 86.838470272565)" />
    <text x="50%" y="50%" font-family="monospace" font-size="24" fill="#2e5c2e" opacity="0.4" 
          text-anchor="middle" dominant-baseline="middle" 
          transform="rotate(90, 100, 100)">ROTATE</text>
    <!-- Add more noise on top -->
    <rect x="0" y="0" width="100%" height="100%" fill="url(#noise)" opacity="0.2"/>
    <defs>
        <filter id="noise">
            <feTurbulence type="fractalNoise" baseFrequency="0.8" numOctaves="3" stitchTiles="stitch"/>
        </filter>
    </defs>
</svg>