
<svg width="200" height="200" viewBox="0 0 200 200" xmlns="http://www.w3.org/2000/svg">
    <rect width="100%" height="100%" fill="#1a2f1a" />
    <rect x="74.9673940327073%" y="12.914604258392226%" width="6.035584897115011%" height="10.85935127688172%" fill="#0f380f" fill-opacity="0.27562313272050926" transform="rotate(1.613646256934981 74.9673940327073 12.914604258392226)" /><rect x="79.42845570739145%" y="97.94541174997953%" width="3.7335583155123526%" height="11.671868597423876%" fill="#0f380f" fill-opacity="0.23187080754477105" transform="rotate(-0.4734316834484886 79.42845570739145 97.94541174997953)" /><rect x="13.223161207654044%" y="99.96597355945605%" width="3.3836383696614796%" height="24.783230142043454%" fill="#0f380f" fill-opacity="0.32908128907375256" transform="rotate(2.5160851931480472 13.223161207654044 99.96597355945605)" /><rect x="20.306638660848474%" y="74.48994133036292%" width="4.81435939137708%" height="9.620468147103198%" fill="#0f380f" fill-opacity="0.16920776183045466" transform="rotate(-5.659656006445816 20.306638660848474 74.48994133036292)" /><rect x="18.894722911867333%" y="95.95420297484912%" width="3.21762496801032%" height="5.375158621554419%" fill="#0f380f" fill-opacity="0.3103200432783924" transform="rotate(3.841481270495059 18.894722911867333 95.95420297484912)" /><rect x="58.116860249299016%" y="75.41665905113051%" width="11.003523232735187%" height="23.824166875543618%" fill="#0f380f" fill-opacity="0.1599908643048948" transform="rotate(-9.057057352491771 58.116860249299016 75.41665905113051)" /><rect x="52.48045592914622%" y="25.2557849016103%" width="9.27616129783836%" height="20.071642939294954%" fill="#0f380f" fill-opacity="0.20188775472644738" transform="rotate(8.021685330944763 52.48045592914622 25.2557849016103)" /><rect x="8.846493390085353%" y="19.249257506384907%" width="4.4388135669416755%" height="8.88595877759916%" fill="#0f380f" fill-opacity="0.1623355470910266" transform="rotate(-7.785324819055228 8.846493390085353 19.249257506384907)" /><rect x="68.65868003448551%" y="36.24260348051466%" width="9.02050477605054%" height="7.826206193530161%" fill="#0f380f" fill-opacity="0.29172799122388415" transform="rotate(-6.546758008021052 68.65868003448551 36.24260348051466)" /><rect x="36.86456465943824%" y="75.95980987410279%" width="7.24024498672111%" height="22.10948615636914%" fill="#0f380f" fill-opacity="0.3794136059402464" transform="rotate(5.037195580933263 36.86456465943824 75.95980987410279)" /><rect x="96.3422756973131%" y="73.38859499520116%" width="2.345087375764783%" height="8.59436181403839%" fill="#0f380f" fill-opacity="0.3108784049483361" transform="rotate(-1.8765569287738249 96.3422756973131 73.38859499520116)" /><rect x="88.58049171058488%" y="87.400142592416%" width="3.704936134046057%" height="8.861243179673163%" fill="#0f380f" fill-opacity="0.22971275287811355" transform="rotate(2.3365634885327413 88.58049171058488 87.400142592416)" /><rect x="86.30024416881861%" y="37.385822771606534%" width="6.074726007107191%" height="7.140853819512123%" fill="#0f380f" fill-opacity="0.2461737773674842" transform="rotate(-2.2462629816343256 86.30024416881861 37.385822771606534)" /><rect x="96.5883363401148%" y="71.75798582762354%" width="6.344134553155755%" height="13.620685849992807%" fill="#0f380f" fill-opacity="0.18798093644341174" transform="rotate(9.253170073321101 96.5883363401148 71.75798582762354)" /><rect x="84.99408238396133%" y="31.54609795445419%" width="8.204669585006048%" height="7.253899153332148%" fill="#0f380f" fill-opacity="0.33003952292702365" transform="rotate(-1.985362190634394 84.99408238396133 31.54609795445419)" /><rect x="66.05050618749613%" y="14.663218429138658%" width="11.924983319568481%" height="10.537725961752638%" fill="#0f380f" fill-opacity="0.3517201100798717" transform="rotate(-7.1487409964782 66.05050618749613 14.663218429138658)" /><rect x="92.15422986750555%" y="79.96901288518833%" width="11.376947690591066%" height="12.62351838057348%" fill="#0f380f" fill-opacity="0.15678592798202792" transform="rotate(4.071767088020238 92.15422986750555 79.96901288518833)" /><rect x="13.653357634178931%" y="14.455457959465868%" width="9.493564068744242%" height="10.187757615903262%" fill="#0f380f" fill-opacity="0.1804914733088668" transform="rotate(-7.473449347322005 13.653357634178931 14.455457959465868)" /><rect x="43.81836749750887%" y="91.24059350734314%" width="5.990056512899844%" height="22.56285771247058%" fill="#0f380f" fill-opacity="0.21704033239039755" transform="rotate(8.547297552783043 43.81836749750887 91.24059350734314)" /><rect x="97.7985555722772%" y="29.98877000062601%" width="9.80874424379447%" height="15.389781146056393%" fill="#0f380f" fill-opacity="0.10771296996021784" transform="rotate(4.678988992729645 97.7985555722772 29.98877000062601)" /><rect x="61.060573213039625%" y="22.306884764053294%" width="2.864991785188045%" height="17.818118437925794%" fill="#0f380f" fill-opacity="0.380118871840078" transform="rotate(-1.5260859631973283 61.060573213039625 22.306884764053294)" /><rect x="81.95978788114641%" y="36.3653645265471%" width="8.063554398480678%" height="9.508128162347466%" fill="#0f380f" fill-opacity="0.22780596532493225" transform="rotate(4.4354937643782915 81.95978788114641 36.3653645265471)" /><rect x="83.04525619923491%" y="57.47197864080834%" width="10.42388935442963%" height="10.708513386473824%" fill="#0f380f" fill-opacity="0.31299458157206916" transform="rotate(3.3829506450988784 83.04525619923491 57.47197864080834)" /><rect x="24.0056889117922%" y="32.367941965266624%" width="3.139962014387159%" height="18.778157231212365%" fill="#0f380f" fill-opacity="0.23361166260791788" transform="rotate(-8.309300318510557 24.0056889117922 32.367941965266624)" /><rect x="35.743358552107715%" y="70.73335625304448%" width="6.473922979581304%" height="5.086793364299433%" fill="#0f380f" fill-opacity="0.3934938742640819" transform="rotate(2.46265028527686 35.743358552107715 70.73335625304448)" /><rect x="24.11307507675794%" y="97.90788109450818%" width="8.2820010250935%" height="19.32297689028853%" fill="#0f380f" fill-opacity="0.3084806913121476" transform="rotate(6.302828398759502 24.11307507675794 97.90788109450818)" /><rect x="14.021983867693388%" y="46.20757722341974%" width="6.967287976876311%" height="13.98822183195435%" fill="#0f380f" fill-opacity="0.11437370782750522" transform="rotate(6.847941064335714 14.021983867693388 46.20757722341974)" /><rect x="25.166280359597426%" y="46.97331113485056%" width="6.1125551676033645%" height="9.597051552261988%" fill="#0f380f" fill-opacity="0.1985425005950501" transform="rotate(-7.520235912055313 25.166280359597426 46.97331113485056)" /><rect x="72.05988915124827%" y="99.46763458909246%" width="7.59789274623273%" height="18.66248576946434%" fill="#0f380f" fill-opacity="0.2222499831571957" transform="rotate(-9.699767181609802 72.05988915124827 99.46763458909246)" /><rect x="32.98718035010256%" y="9.211018690453932%" width="5.92345208482647%" height="11.712541934671975%" fill="#0f380f" fill-opacity="0.3137928914217564" transform="rotate(-5.697589324909272 32.98718035010256 9.211018690453932)" /><rect x="39.06146150601999%" y="42.19509628194547%" width="2.6418909113039053%" height="16.564945954686106%" fill="#0f380f" fill-opacity="0.2759192611750234" transform="rotate(-2.489863911502807 39.06146150601999 42.19509628194547)" /><rect x="42.37625125185276%" y="42.94366099439701%" width="4.696237883395559%" height="17.18655037771573%" fill="#0f380f" fill-opacity="0.20090901379669568" transform="rotate(-3.0246243934553663 42.37625125185276 42.94366099439701)" /><rect x="72.31223240042716%" y="80.51849820013224%" width="6.773117364660529%" height="12.730586145855794%" fill="#0f380f" fill-opacity="0.3579749620821494" transform="rotate(-1.5429787064475615 72.31223240042716 80.51849820013224)" /><rect x="70.78874135128088%" y="79.93360858650729%" width="11.21706625459805%" height="15.417031366493156%" fill="#0f380f" fill-opacity="0.2771174898612817" transform="rotate(-6.6920585172875 70.78874135128088 79.93360858650729)" /><rect x="65.92990261035332%" y="44.06216081051103%" width="3.2737095009706065%" height="22.762376545437533%" fill="#0f380f" fill-opacity="0.1658504122791713" transform="rotate(-6.036725250877031 65.92990261035332 44.06216081051103)" /><rect x="50.79816023371001%" y="63.78311011820913%" width="2.8706798732229837%" height="19.355886008268723%" fill="#0f380f" fill-opacity="0.38310313152021425" transform="rotate(2.5959489442096366 50.79816023371001 63.78311011820913)" /><rect x="71.75383451941205%" y="50.424487498237816%" width="10.858814036641592%" height="6.610566296244505%" fill="#0f380f" fill-opacity="0.15574280681640257" transform="rotate(-3.930295792029847 71.75383451941205 50.424487498237816)" /><rect x="25.55281088179704%" y="7.023443148064901%" width="2.537294583950152%" height="20.31378709012375%" fill="#0f380f" fill-opacity="0.28953044682216467" transform="rotate(4.201767001934826 25.55281088179704 7.023443148064901)" /><rect x="19.840564146837746%" y="32.72988595044224%" width="3.4186325917123077%" height="19.82844302740225%" fill="#0f380f" fill-opacity="0.14636481691789416" transform="rotate(-7.691743346360253 19.840564146837746 32.72988595044224)" /><rect x="82.7848424187299%" y="48.2056463628451%" width="4.400897247480586%" height="18.822154914478897%" fill="#0f380f" fill-opacity="0.1705319295229471" transform="rotate(8.925710907060719 82.7848424187299 48.2056463628451)" /><rect x="24.79762963104355%" y="6.76638912820382%" width="10.372417653378841%" height="7.5198910317834855%" fill="#0f380f" fill-opacity="0.2498856141161955" transform="rotate(7.174097340978861 24.79762963104355 6.76638912820382)" /><rect x="49.72450563076869%" y="93.2289277301084%" width="7.534984005274439%" height="13.345944972656847%" fill="#0f380f" fill-opacity="0.2678033736043303" transform="rotate(4.065073299383171 49.72450563076869 93.2289277301084)" /><rect x="60.55035145163892%" y="42.517760573956856%" width="11.90959172351354%" height="6.689547345448419%" fill="#0f380f" fill-opacity="0.38703524277686896" transform="rotate(2.3592007112644815 60.55035145163892 42.517760573956856)" /><rect x="34.534122920936674%" y="83.61916617907603%" width="3.046992040741542%" height="17.5320826163988%" fill="#0f380f" fill-opacity="0.1951513977147315" transform="rotate(1.528743233433465 34.534122920936674 83.61916617907603)" /><rect x="19.955086042844183%" y="34.89710063783533%" width="2.280404600461565%" height="20.538541307873736%" fill="#0f380f" fill-opacity="0.39736114392959776" transform="rotate(0.43954550271928916 19.955086042844183 34.89710063783533)" /><rect x="23.27977733354748%" y="93.55571650523606%" width="7.692016210802436%" height="10.533381038273061%" fill="#0f380f" fill-opacity="0.1549202314190907" transform="rotate(1.28291122985196 23.27977733354748 93.55571650523606)" /><rect x="50.58416425179004%" y="91.77579860682302%" width="10.38476984373536%" height="6.1850576428490385%" fill="#0f380f" fill-opacity="0.3449970495814564" transform="rotate(8.529694556097414 50.58416425179004 91.77579860682302)" /><rect x="65.03264430314417%" y="52.98720360447453%" width="6.083425148115292%" height="19.596305694204855%" fill="#0f380f" fill-opacity="0.34557211452470377" transform="rotate(-8.789984247125632 65.03264430314417 52.98720360447453)" /><rect x="39.86959126240689%" y="28.969003412385995%" width="5.5874586921839455%" height="9.291143781259173%" fill="#0f380f" fill-opacity="0.14915424354229015" transform="rotate(-8.031153621291864 39.86959126240689 28.969003412385995)" /><rect x="67.65635749055849%" y="70.70368533036707%" width="2.9155846881231877%" height="7.011111758504979%" fill="#0f380f" fill-opacity="0.2850146499255728" transform="rotate(3.1557230300674117 67.65635749055849 70.70368533036707)" />
    <text x="50%" y="50%" font-family="monospace" font-size="24" fill="#2e5c2e" opacity="0.4" 
          text-anchor="middle" dominant-baseline="middle" 
          transform="rotate(90, 100, 100)">ROTATE</text>
    <!-- Add more noise on top -->
    <rect x="0" y="0" width="100%" height="100%" fill="url(#noise)" opacity="0.2"/>
    <defs>
        <filter id="noise">
            <feTurbulence type="fractalNoise" baseFrequency="0.8" numOctaves="3" stitchTiles="stitch"/>
        </filter>
    </defs>
</svg>