
<svg width="200" height="200" viewBox="0 0 200 200" xmlns="http://www.w3.org/2000/svg">
    <rect width="100%" height="100%" fill="#1a2f1a" />
    <rect x="57.15951584241924%" y="73.03727571646948%" width="3.392116598122932%" height="16.138615829754187%" fill="#0f380f" fill-opacity="0.1450010494335819" transform="rotate(-8.438575910057546 57.15951584241924 73.03727571646948)" /><rect x="2.3643279258513394%" y="35.020331123066796%" width="5.189382618553447%" height="10.31095337100709%" fill="#0f380f" fill-opacity="0.13915078163383715" transform="rotate(3.3153552654221308 2.3643279258513394 35.020331123066796)" /><rect x="58.18555503854439%" y="37.53620826393591%" width="4.628564497739739%" height="17.283408030903196%" fill="#0f380f" fill-opacity="0.14249987385070334" transform="rotate(-8.884727847928843 58.18555503854439 37.53620826393591)" /><rect x="38.45177034044034%" y="36.78918117790951%" width="7.045388626904506%" height="22.18770029982277%" fill="#0f380f" fill-opacity="0.20209517621641693" transform="rotate(-0.25923736679453846 38.45177034044034 36.78918117790951)" /><rect x="0.09362900396354679%" y="46.72750286057684%" width="8.638878427160947%" height="6.729287582318639%" fill="#0f380f" fill-opacity="0.3980406733493608" transform="rotate(-1.7849171037178628 0.09362900396354679 46.72750286057684)" /><rect x="90.79319830537206%" y="74.36757381817436%" width="10.830067757574138%" height="15.286926922897043%" fill="#0f380f" fill-opacity="0.2832106825842484" transform="rotate(-8.603875505356555 90.79319830537206 74.36757381817436)" /><rect x="92.34682777314866%" y="51.33793944734375%" width="10.784238770111479%" height="24.696108396772605%" fill="#0f380f" fill-opacity="0.2776700810591751" transform="rotate(7.490019093959951 92.34682777314866 51.33793944734375)" /><rect x="17.65451903663733%" y="38.47867922963955%" width="8.28449670652628%" height="23.77141522379098%" fill="#0f380f" fill-opacity="0.3551877452154487" transform="rotate(6.212198492158379 17.65451903663733 38.47867922963955)" /><rect x="40.30503562698383%" y="2.4884663036432886%" width="9.542137654464671%" height="11.113156168322092%" fill="#0f380f" fill-opacity="0.382091051285698" transform="rotate(-5.3482329378818445 40.30503562698383 2.4884663036432886)" /><rect x="60.90948958018513%" y="26.053331924289914%" width="11.840045136957059%" height="22.117296180672355%" fill="#0f380f" fill-opacity="0.15574617601505913" transform="rotate(1.2039458368020028 60.90948958018513 26.053331924289914)" /><rect x="11.36625697259589%" y="72.31780492358048%" width="5.374257024172136%" height="11.30881487870219%" fill="#0f380f" fill-opacity="0.20870393585255742" transform="rotate(2.420455394071009 11.36625697259589 72.31780492358048)" /><rect x="52.16235256240945%" y="87.06191506111034%" width="6.252757093473242%" height="15.437973063863602%" fill="#0f380f" fill-opacity="0.26559151616576804" transform="rotate(0.23347983283087714 52.16235256240945 87.06191506111034)" /><rect x="47.956126437853754%" y="42.651982094967046%" width="4.565187618017472%" height="23.32863753661518%" fill="#0f380f" fill-opacity="0.3233849555743731" transform="rotate(4.230439384775806 47.956126437853754 42.651982094967046)" /><rect x="67.92461449993739%" y="14.759603052068272%" width="4.748287863073459%" height="9.392848251162224%" fill="#0f380f" fill-opacity="0.18603815609216495" transform="rotate(-9.149841110307468 67.92461449993739 14.759603052068272)" /><rect x="73.79679676992667%" y="99.05598515755734%" width="9.716359519252824%" height="6.094258335544652%" fill="#0f380f" fill-opacity="0.3648442564809946" transform="rotate(-2.6860196737215762 73.79679676992667 99.05598515755734)" /><rect x="23.84497535335578%" y="98.34237822012787%" width="8.24343198313382%" height="18.01256122631005%" fill="#0f380f" fill-opacity="0.2509529969018063" transform="rotate(-2.3304360690208004 23.84497535335578 98.34237822012787)" /><rect x="67.48994953191527%" y="56.738273791063385%" width="4.454919829638626%" height="8.829406787519144%" fill="#0f380f" fill-opacity="0.1382958001610785" transform="rotate(5.922777302553474 67.48994953191527 56.738273791063385)" /><rect x="74.84064497802817%" y="29.24576096828231%" width="5.0666288537053585%" height="8.420219864659572%" fill="#0f380f" fill-opacity="0.3135210690246456" transform="rotate(-6.753128278211838 74.84064497802817 29.24576096828231)" /><rect x="54.775286629408434%" y="71.75554121044283%" width="8.437515762022828%" height="8.040721915551627%" fill="#0f380f" fill-opacity="0.15469051625776248" transform="rotate(-1.046446609707072 54.775286629408434 71.75554121044283)" /><rect x="98.8061264510015%" y="79.51873866763052%" width="2.3571000614580697%" height="10.035926129238057%" fill="#0f380f" fill-opacity="0.18560305838922578" transform="rotate(-0.4995001770010852 98.8061264510015 79.51873866763052)" /><rect x="45.500174394257606%" y="62.64324997248839%" width="10.954512109544305%" height="5.727146381368464%" fill="#0f380f" fill-opacity="0.281934397183058" transform="rotate(0.3697516648858077 45.500174394257606 62.64324997248839)" /><rect x="40.473764781083275%" y="83.52557676632502%" width="10.00996839654157%" height="15.54767042281667%" fill="#0f380f" fill-opacity="0.13380972167939464" transform="rotate(7.874308815863532 40.473764781083275 83.52557676632502)" /><rect x="26.96975158065207%" y="16.64153986385939%" width="11.945494611932485%" height="14.816719681548328%" fill="#0f380f" fill-opacity="0.20837161083896724" transform="rotate(-8.352999195568247 26.96975158065207 16.64153986385939)" /><rect x="0.6764922679820651%" y="99.78556539222258%" width="6.68254272403691%" height="5.184384686308703%" fill="#0f380f" fill-opacity="0.28531499816516487" transform="rotate(-7.384694246319494 0.6764922679820651 99.78556539222258)" /><rect x="19.7842855221957%" y="96.08597691547914%" width="3.878710944565809%" height="13.094958388223246%" fill="#0f380f" fill-opacity="0.11291356186900953" transform="rotate(6.190981004842932 19.7842855221957 96.08597691547914)" /><rect x="3.780052698619074%" y="6.642435098658139%" width="3.53171092086837%" height="15.896214817757329%" fill="#0f380f" fill-opacity="0.25938480407475584" transform="rotate(5.047678387733349 3.780052698619074 6.642435098658139)" /><rect x="7.854108350419886%" y="23.329483682414775%" width="11.249907449963588%" height="20.872545506509805%" fill="#0f380f" fill-opacity="0.12104969779979782" transform="rotate(-0.9158952663735853 7.854108350419886 23.329483682414775)" /><rect x="60.70896381763762%" y="80.84111371291365%" width="7.441155279208728%" height="5.03840511442228%" fill="#0f380f" fill-opacity="0.17901121792691277" transform="rotate(-9.391557529160647 60.70896381763762 80.84111371291365)" /><rect x="81.87832335208354%" y="10.41236878187074%" width="2.187622084956921%" height="16.629515985908675%" fill="#0f380f" fill-opacity="0.260094371886643" transform="rotate(-8.28296175470922 81.87832335208354 10.41236878187074)" /><rect x="83.23420623552381%" y="93.3435819162672%" width="5.862914261446498%" height="9.790260058604135%" fill="#0f380f" fill-opacity="0.12202877888876162" transform="rotate(5.655944123629125 83.23420623552381 93.3435819162672)" /><rect x="34.87401622956213%" y="68.73109633192497%" width="9.862417995707634%" height="24.775322933393845%" fill="#0f380f" fill-opacity="0.2677626871652994" transform="rotate(6.637610558016178 34.87401622956213 68.73109633192497)" /><rect x="49.549104507403044%" y="55.159820947165095%" width="6.495251779324492%" height="19.472757050596783%" fill="#0f380f" fill-opacity="0.29684236389710955" transform="rotate(-6.770829633538071 49.549104507403044 55.159820947165095)" /><rect x="45.84650974433523%" y="43.1533121708454%" width="11.31100244389398%" height="24.16731466958784%" fill="#0f380f" fill-opacity="0.17727570612631366" transform="rotate(4.764237481775815 45.84650974433523 43.1533121708454)" /><rect x="34.2982490910084%" y="38.77690473789801%" width="2.3646257420200794%" height="14.3242838725809%" fill="#0f380f" fill-opacity="0.2744804114479632" transform="rotate(-3.2315046610364835 34.2982490910084 38.77690473789801)" /><rect x="66.91152346530866%" y="66.46920851219404%" width="10.349952495780094%" height="13.047318690595226%" fill="#0f380f" fill-opacity="0.248007346264214" transform="rotate(-2.0343837961168676 66.91152346530866 66.46920851219404)" /><rect x="13.155629955264303%" y="70.37843393391128%" width="6.964983363685226%" height="13.24249180678364%" fill="#0f380f" fill-opacity="0.34072828981238057" transform="rotate(-1.7255692462300694 13.155629955264303 70.37843393391128)" /><rect x="60.81698235122135%" y="55.40120003486213%" width="2.914012198421088%" height="23.536845370560584%" fill="#0f380f" fill-opacity="0.119167384478054" transform="rotate(-2.961362236858493 60.81698235122135 55.40120003486213)" /><rect x="0.8506093374828327%" y="56.053290855647056%" width="4.142158427832239%" height="12.989747225560356%" fill="#0f380f" fill-opacity="0.2343141603367418" transform="rotate(-8.520612658828737 0.8506093374828327 56.053290855647056)" /><rect x="75.41391409426637%" y="16.582476793700696%" width="4.4695406307758585%" height="17.675918853325015%" fill="#0f380f" fill-opacity="0.21200921874365228" transform="rotate(0.28958438314204216 75.41391409426637 16.582476793700696)" /><rect x="32.715947175340666%" y="26.800961275966195%" width="10.199591369850767%" height="22.2687036590214%" fill="#0f380f" fill-opacity="0.3643436048327995" transform="rotate(3.110231415746231 32.715947175340666 26.800961275966195)" /><rect x="13.946299531173967%" y="4.210252255730628%" width="2.9619786675576627%" height="14.330712305736384%" fill="#0f380f" fill-opacity="0.22566109964992054" transform="rotate(1.3828910691719756 13.946299531173967 4.210252255730628)" /><rect x="51.481324120472394%" y="74.92339227837567%" width="6.306931878799185%" height="20.58409235402892%" fill="#0f380f" fill-opacity="0.24694531546391307" transform="rotate(-5.3199994379807585 51.481324120472394 74.92339227837567)" /><rect x="87.62840809501473%" y="11.127314335182437%" width="8.819247392607114%" height="15.819793274310713%" fill="#0f380f" fill-opacity="0.2681612969716195" transform="rotate(6.4933558377478775 87.62840809501473 11.127314335182437)" /><rect x="87.40858452623709%" y="92.08367948350062%" width="11.926689613502429%" height="11.48897475255129%" fill="#0f380f" fill-opacity="0.19391422232606847" transform="rotate(-8.811955339326556 87.40858452623709 92.08367948350062)" /><rect x="62.9622458585598%" y="66.22272765343865%" width="6.473815533252255%" height="20.025732771759593%" fill="#0f380f" fill-opacity="0.15307274902286985" transform="rotate(8.085389234037677 62.9622458585598 66.22272765343865)" /><rect x="18.669878225187908%" y="20.741069208804998%" width="7.913515017055655%" height="12.008583723067233%" fill="#0f380f" fill-opacity="0.3259560485412933" transform="rotate(5.476237232711016 18.669878225187908 20.741069208804998)" /><rect x="80.16100879722244%" y="76.22614838424873%" width="7.566820505035838%" height="22.405990543009477%" fill="#0f380f" fill-opacity="0.20747769046557807" transform="rotate(-8.328529446426 80.16100879722244 76.22614838424873)" /><rect x="43.79855686788271%" y="41.31728470079131%" width="10.908427943609453%" height="20.79006023557436%" fill="#0f380f" fill-opacity="0.23731656157168352" transform="rotate(-2.412140684386088 43.79855686788271 41.31728470079131)" /><rect x="81.62305079292089%" y="70.22707472274514%" width="11.000676299158044%" height="21.664201029915787%" fill="#0f380f" fill-opacity="0.28750656514687845" transform="rotate(6.781934830473791 81.62305079292089 70.22707472274514)" /><rect x="57.51275894978176%" y="33.266902755243024%" width="11.828013468268079%" height="9.174734613570767%" fill="#0f380f" fill-opacity="0.2619211054672363" transform="rotate(-7.512837344902225 57.51275894978176 33.266902755243024)" />
    <text x="50%" y="50%" font-family="monospace" font-size="24" fill="#2e5c2e" opacity="0.4" 
          text-anchor="middle" dominant-baseline="middle" 
          transform="rotate(90, 100, 100)">ROTATE</text>
    <!-- Add more noise on top -->
    <rect x="0" y="0" width="100%" height="100%" fill="url(#noise)" opacity="0.2"/>
    <defs>
        <filter id="noise">
            <feTurbulence type="fractalNoise" baseFrequency="0.8" numOctaves="3" stitchTiles="stitch"/>
        </filter>
    </defs>
</svg>