
<svg width="200" height="200" viewBox="0 0 200 200" xmlns="http://www.w3.org/2000/svg">
    <rect width="100%" height="100%" fill="#1a2f1a" />
    <rect x="89.68563867394401%" y="71.20439710955185%" width="6.638157065135954%" height="19.284590390888816%" fill="#0f380f" fill-opacity="0.3032181892093683" transform="rotate(-6.993801018517485 89.68563867394401 71.20439710955185)" /><rect x="64.27482588194769%" y="56.360960878630316%" width="4.982416714550368%" height="15.456384064390887%" fill="#0f380f" fill-opacity="0.39152394029675597" transform="rotate(5.158275953345864 64.27482588194769 56.360960878630316)" /><rect x="43.268875220098046%" y="9.562786888515095%" width="3.623061146592458%" height="10.69589966092278%" fill="#0f380f" fill-opacity="0.1813810518128448" transform="rotate(-8.625781274798731 43.268875220098046 9.562786888515095)" /><rect x="42.99687421675489%" y="87.38042862186775%" width="4.949880334340388%" height="13.746378382260968%" fill="#0f380f" fill-opacity="0.2844454189410413" transform="rotate(-6.513424234576586 42.99687421675489 87.38042862186775)" /><rect x="21.052557422286476%" y="81.15066098892477%" width="4.621715931567563%" height="13.47566575619586%" fill="#0f380f" fill-opacity="0.2813277617826709" transform="rotate(-8.115596931016258 21.052557422286476 81.15066098892477)" /><rect x="98.53519792180741%" y="51.54879575889025%" width="7.972061042362072%" height="22.665615017025594%" fill="#0f380f" fill-opacity="0.3594295020610734" transform="rotate(-1.0935418540924964 98.53519792180741 51.54879575889025)" /><rect x="51.560189417745136%" y="44.052845296541754%" width="11.759854128975775%" height="18.330686425249194%" fill="#0f380f" fill-opacity="0.2495595517882214" transform="rotate(8.639638979512213 51.560189417745136 44.052845296541754)" /><rect x="74.3259571171825%" y="60.05130752074449%" width="9.462555882374541%" height="16.81637929339%" fill="#0f380f" fill-opacity="0.3813308898560376" transform="rotate(1.8645053151058288 74.3259571171825 60.05130752074449)" /><rect x="26.845210077020475%" y="76.05203473172327%" width="5.244015970331614%" height="7.635773867591826%" fill="#0f380f" fill-opacity="0.33514728762069323" transform="rotate(-8.753154511739556 26.845210077020475 76.05203473172327)" /><rect x="50.0084910237885%" y="87.01635977257938%" width="8.202059686245674%" height="13.614139987773136%" fill="#0f380f" fill-opacity="0.23394188323916118" transform="rotate(7.201649547807669 50.0084910237885 87.01635977257938)" /><rect x="92.85444337130075%" y="40.402714487027936%" width="10.777053851705256%" height="7.600883604820705%" fill="#0f380f" fill-opacity="0.24295368381228735" transform="rotate(-4.404365726157343 92.85444337130075 40.402714487027936)" /><rect x="52.41857433327731%" y="13.856946064315768%" width="9.495459442328366%" height="21.093235773929734%" fill="#0f380f" fill-opacity="0.2434193980637141" transform="rotate(-6.192127399777629 52.41857433327731 13.856946064315768)" /><rect x="1.0381732353529016%" y="67.47663759900296%" width="3.2222608242791413%" height="12.589006003280192%" fill="#0f380f" fill-opacity="0.23658369931756051" transform="rotate(4.203735891507311 1.0381732353529016 67.47663759900296)" /><rect x="17.547070125898756%" y="61.96284330123664%" width="5.813128266077927%" height="6.809661166474523%" fill="#0f380f" fill-opacity="0.38963038347291135" transform="rotate(5.3495076714319545 17.547070125898756 61.96284330123664)" /><rect x="98.69004264371972%" y="86.01382844769624%" width="9.115730749177587%" height="20.21461167040493%" fill="#0f380f" fill-opacity="0.27126712445651674" transform="rotate(5.105925963792377 98.69004264371972 86.01382844769624)" /><rect x="27.86746118978789%" y="76.51638118216268%" width="5.86688578074832%" height="22.18108530117791%" fill="#0f380f" fill-opacity="0.2477171460773733" transform="rotate(6.628626447610976 27.86746118978789 76.51638118216268)" /><rect x="58.6788801888334%" y="67.50484621747722%" width="8.467922476222427%" height="20.615906256494437%" fill="#0f380f" fill-opacity="0.3204550457760236" transform="rotate(-4.273344998356439 58.6788801888334 67.50484621747722)" /><rect x="47.691363807325956%" y="62.45292037404337%" width="6.317352228979953%" height="11.068596213990192%" fill="#0f380f" fill-opacity="0.34540202425741184" transform="rotate(-0.9335329310213893 47.691363807325956 62.45292037404337)" /><rect x="84.68878854362912%" y="43.1355328612433%" width="7.042417308819605%" height="13.742595374635854%" fill="#0f380f" fill-opacity="0.16777601118046742" transform="rotate(2.4863166537163686 84.68878854362912 43.1355328612433)" /><rect x="98.06878999966337%" y="15.35955982095486%" width="6.749251183976164%" height="13.851902927690237%" fill="#0f380f" fill-opacity="0.19316886468022554" transform="rotate(-7.393459979724981 98.06878999966337 15.35955982095486)" /><rect x="51.88679592840799%" y="31.132697045329994%" width="7.172806154214217%" height="22.705650716019765%" fill="#0f380f" fill-opacity="0.10463451369064247" transform="rotate(2.689619690377853 51.88679592840799 31.132697045329994)" /><rect x="55.71211795433651%" y="94.24248774029225%" width="6.061316364199997%" height="14.740314279614935%" fill="#0f380f" fill-opacity="0.24396003655439363" transform="rotate(-0.07161265818144358 55.71211795433651 94.24248774029225)" /><rect x="22.368469674028326%" y="11.731700243841992%" width="11.78905542670907%" height="20.725105235815867%" fill="#0f380f" fill-opacity="0.36473556117515415" transform="rotate(1.7654937340337398 22.368469674028326 11.731700243841992)" /><rect x="47.08529785141262%" y="56.744879453046714%" width="4.5563367118003155%" height="5.79631531626803%" fill="#0f380f" fill-opacity="0.24218090280100696" transform="rotate(-0.8872699013556318 47.08529785141262 56.744879453046714)" /><rect x="77.27925517297159%" y="95.98627410758496%" width="8.431722141767027%" height="7.684551358831282%" fill="#0f380f" fill-opacity="0.2991300291039214" transform="rotate(-8.341594650041138 77.27925517297159 95.98627410758496)" /><rect x="90.23381891477251%" y="31.412108414159746%" width="10.619335192241271%" height="10.759467533399668%" fill="#0f380f" fill-opacity="0.39918737704629825" transform="rotate(7.629695752339487 90.23381891477251 31.412108414159746)" /><rect x="73.17330416778024%" y="7.385138055160311%" width="6.034755001762889%" height="8.705337892765137%" fill="#0f380f" fill-opacity="0.17805560977221932" transform="rotate(-6.650847725956799 73.17330416778024 7.385138055160311)" /><rect x="66.24214359640432%" y="34.853432814129235%" width="7.393953894823689%" height="22.33768000035282%" fill="#0f380f" fill-opacity="0.20961069014513187" transform="rotate(6.280446797874582 66.24214359640432 34.853432814129235)" /><rect x="54.36216624249999%" y="43.3134103966518%" width="3.7141506735517718%" height="22.362743869821923%" fill="#0f380f" fill-opacity="0.3872415543669301" transform="rotate(-9.853541450679188 54.36216624249999 43.3134103966518)" /><rect x="63.97723364851699%" y="10.90856924604131%" width="11.518144043387615%" height="23.368632824611378%" fill="#0f380f" fill-opacity="0.15299995693691348" transform="rotate(4.016297955992572 63.97723364851699 10.90856924604131)" /><rect x="31.512913806111055%" y="60.460239323514344%" width="10.368631733314535%" height="23.28625357636409%" fill="#0f380f" fill-opacity="0.15986118529264373" transform="rotate(6.312677951411246 31.512913806111055 60.460239323514344)" /><rect x="78.90062528415704%" y="91.44921243079767%" width="3.8943823297627462%" height="24.349186846817283%" fill="#0f380f" fill-opacity="0.2920035144334663" transform="rotate(4.747679016791057 78.90062528415704 91.44921243079767)" /><rect x="63.158842862543274%" y="10.506844872586097%" width="5.2472001408046225%" height="23.471321218382055%" fill="#0f380f" fill-opacity="0.19335124281717858" transform="rotate(-5.418559076421388 63.158842862543274 10.506844872586097)" /><rect x="7.141249220280043%" y="12.97756479262916%" width="2.088733663823394%" height="6.81619931253403%" fill="#0f380f" fill-opacity="0.23956335965347034" transform="rotate(6.413394680134811 7.141249220280043 12.97756479262916)" /><rect x="7.822152275454952%" y="83.53530260663659%" width="5.9246030415193065%" height="10.72971575859076%" fill="#0f380f" fill-opacity="0.2549739120160014" transform="rotate(2.097745758372099 7.822152275454952 83.53530260663659)" /><rect x="95.00617896269819%" y="31.99358247397853%" width="6.172684885600494%" height="24.33512639516294%" fill="#0f380f" fill-opacity="0.27304589944258517" transform="rotate(-5.247465744540212 95.00617896269819 31.99358247397853)" /><rect x="86.06663286547726%" y="54.22480601429168%" width="6.758808833268734%" height="13.849281093816055%" fill="#0f380f" fill-opacity="0.28626309350208345" transform="rotate(-7.593515054559504 86.06663286547726 54.22480601429168)" /><rect x="5.80622623114222%" y="74.57793573773277%" width="6.945450791503269%" height="14.018990276414556%" fill="#0f380f" fill-opacity="0.2975238315853901" transform="rotate(0.7563908614326014 5.80622623114222 74.57793573773277)" /><rect x="58.56362231123043%" y="49.28769331598563%" width="11.793876490880141%" height="10.45688332339851%" fill="#0f380f" fill-opacity="0.38392413740381937" transform="rotate(-3.727250324013607 58.56362231123043 49.28769331598563)" /><rect x="95.10287425735618%" y="22.76409387030326%" width="9.585488609039789%" height="22.3805001942309%" fill="#0f380f" fill-opacity="0.39058876945939636" transform="rotate(0.6684719297844168 95.10287425735618 22.76409387030326)" /><rect x="40.09624408071812%" y="45.27540941722752%" width="5.844718295995055%" height="19.82250612408795%" fill="#0f380f" fill-opacity="0.3098364862870497" transform="rotate(-3.2135383001516598 40.09624408071812 45.27540941722752)" /><rect x="39.98951332422362%" y="69.48111659682675%" width="11.791432829404961%" height="5.404663815575397%" fill="#0f380f" fill-opacity="0.11595002218693554" transform="rotate(6.115333502708705 39.98951332422362 69.48111659682675)" /><rect x="27.39042666582544%" y="83.87854541120846%" width="5.320512499871338%" height="23.21053365841808%" fill="#0f380f" fill-opacity="0.17717605797918146" transform="rotate(-1.9749955974437583 27.39042666582544 83.87854541120846)" /><rect x="35.74020248445976%" y="5.2569888859138825%" width="7.251279847678364%" height="14.839668189276196%" fill="#0f380f" fill-opacity="0.28145116734670383" transform="rotate(-1.1819157751083225 35.74020248445976 5.2569888859138825)" /><rect x="76.0939617068293%" y="99.39626811099548%" width="6.261588238296527%" height="5.800460812836638%" fill="#0f380f" fill-opacity="0.10977877743914674" transform="rotate(4.531077701600687 76.0939617068293 99.39626811099548)" /><rect x="81.49619554285123%" y="68.21413971462293%" width="3.175344437779887%" height="17.43278309315589%" fill="#0f380f" fill-opacity="0.3402892457663683" transform="rotate(1.6139525780798785 81.49619554285123 68.21413971462293)" /><rect x="39.20163204755311%" y="90.56488383418306%" width="5.273238913544251%" height="7.503789850737337%" fill="#0f380f" fill-opacity="0.19000045941854846" transform="rotate(7.669965167744156 39.20163204755311 90.56488383418306)" /><rect x="33.1357357186035%" y="74.01844316696439%" width="7.893265602371819%" height="16.51655846085311%" fill="#0f380f" fill-opacity="0.15321900223427276" transform="rotate(0.7285957720708698 33.1357357186035 74.01844316696439)" /><rect x="46.37816932529378%" y="7.617126991426892%" width="3.1818295508531964%" height="5.627672720804318%" fill="#0f380f" fill-opacity="0.1753869653840357" transform="rotate(7.946826646958662 46.37816932529378 7.617126991426892)" /><rect x="91.63095129182582%" y="39.70399399095522%" width="5.036446285201059%" height="7.4293356298461966%" fill="#0f380f" fill-opacity="0.16600377861537313" transform="rotate(9.190187034281607 91.63095129182582 39.70399399095522)" />
    <text x="50%" y="50%" font-family="monospace" font-size="24" fill="#2e5c2e" opacity="0.4" 
          text-anchor="middle" dominant-baseline="middle" 
          transform="rotate(90, 100, 100)">ROTATE</text>
    <!-- Add more noise on top -->
    <rect x="0" y="0" width="100%" height="100%" fill="url(#noise)" opacity="0.2"/>
    <defs>
        <filter id="noise">
            <feTurbulence type="fractalNoise" baseFrequency="0.8" numOctaves="3" stitchTiles="stitch"/>
        </filter>
    </defs>
</svg>