
<svg width="200" height="200" viewBox="0 0 200 200" xmlns="http://www.w3.org/2000/svg">
    <rect width="100%" height="100%" fill="#1a2f1a" />
    <rect x="0.9271184217486295%" y="2.1370725872896457%" width="9.98319433659588%" height="6.160854906341342%" fill="#0f380f" fill-opacity="0.32078397854556934" transform="rotate(2.4827031556228683 0.9271184217486295 2.1370725872896457)" /><rect x="31.645970914222023%" y="96.31936812500734%" width="10.737483584517886%" height="17.693818912563763%" fill="#0f380f" fill-opacity="0.29839555610976987" transform="rotate(-7.415258492015462 31.645970914222023 96.31936812500734)" /><rect x="31.395242737004313%" y="9.886531905344153%" width="4.98858645172401%" height="17.700939098121147%" fill="#0f380f" fill-opacity="0.3326454100087345" transform="rotate(-6.871613747228038 31.395242737004313 9.886531905344153)" /><rect x="84.21036270908641%" y="68.6299003744748%" width="10.862585550027394%" height="8.581100409145359%" fill="#0f380f" fill-opacity="0.30801340919607423" transform="rotate(7.44327607629582 84.21036270908641 68.6299003744748)" /><rect x="0.9700706571620921%" y="82.17847418810383%" width="3.7051744262548874%" height="24.442222128682403%" fill="#0f380f" fill-opacity="0.19376861501908443" transform="rotate(3.0165554421781415 0.9700706571620921 82.17847418810383)" /><rect x="33.75145946621901%" y="33.135707870011174%" width="10.09061265394411%" height="19.58735258765632%" fill="#0f380f" fill-opacity="0.167671142717719" transform="rotate(2.2685172967637506 33.75145946621901 33.135707870011174)" /><rect x="6.287666628392463%" y="79.49539751635464%" width="6.478787971656237%" height="8.943718777179335%" fill="#0f380f" fill-opacity="0.25243189671393573" transform="rotate(8.813076621424617 6.287666628392463 79.49539751635464)" /><rect x="26.489522357204155%" y="28.97008625860774%" width="6.5577889556455995%" height="17.50780014894778%" fill="#0f380f" fill-opacity="0.16635938604543787" transform="rotate(-2.429194521912839 26.489522357204155 28.97008625860774)" /><rect x="41.55625338499678%" y="48.37924769737623%" width="7.314508200221827%" height="23.945319664945274%" fill="#0f380f" fill-opacity="0.38620516863416154" transform="rotate(8.801731970888731 41.55625338499678 48.37924769737623)" /><rect x="53.64835922464807%" y="93.80253003276893%" width="6.446167986148212%" height="24.131959575019984%" fill="#0f380f" fill-opacity="0.13323276994042194" transform="rotate(1.6154777639066928 53.64835922464807 93.80253003276893)" /><rect x="36.52040760645166%" y="20.615374906175767%" width="9.804712869487805%" height="15.254543873339506%" fill="#0f380f" fill-opacity="0.2984494183931957" transform="rotate(-3.5000241440521185 36.52040760645166 20.615374906175767)" /><rect x="82.85546480071856%" y="58.092047703070705%" width="8.559578065205587%" height="8.991303446719044%" fill="#0f380f" fill-opacity="0.15559531686023315" transform="rotate(0.8244528520959271 82.85546480071856 58.092047703070705)" /><rect x="49.51233692652237%" y="17.280052250347254%" width="11.890607222041309%" height="20.913994561310627%" fill="#0f380f" fill-opacity="0.2882504672929028" transform="rotate(4.93295151934789 49.51233692652237 17.280052250347254)" /><rect x="1.6072643736857795%" y="63.00809506605859%" width="11.885611945130691%" height="6.4204318676255%" fill="#0f380f" fill-opacity="0.2417254779205122" transform="rotate(-0.31461222885825535 1.6072643736857795 63.00809506605859)" /><rect x="76.72040199068498%" y="50.34330186877879%" width="8.619241153612043%" height="22.452826415768733%" fill="#0f380f" fill-opacity="0.23019603840909586" transform="rotate(8.609589024530248 76.72040199068498 50.34330186877879)" /><rect x="75.82444265538771%" y="56.08032512235705%" width="5.804996222693936%" height="11.655806859831877%" fill="#0f380f" fill-opacity="0.26707049833393565" transform="rotate(-7.82396614105374 75.82444265538771 56.08032512235705)" /><rect x="68.12068499433374%" y="2.857002006561793%" width="11.21823771116117%" height="10.722579113905903%" fill="#0f380f" fill-opacity="0.1825009903844193" transform="rotate(-0.5257810083191128 68.12068499433374 2.857002006561793)" /><rect x="54.170187821618576%" y="42.56903673878399%" width="2.962969059772305%" height="6.710208372418571%" fill="#0f380f" fill-opacity="0.3716093867822997" transform="rotate(3.327861658517371 54.170187821618576 42.56903673878399)" /><rect x="10.877076840010103%" y="24.511498957754185%" width="9.126318901003128%" height="10.446881776761627%" fill="#0f380f" fill-opacity="0.11150864279183428" transform="rotate(-1.9625826688056165 10.877076840010103 24.511498957754185)" /><rect x="14.052311181602818%" y="10.201065196665803%" width="11.952944252573655%" height="20.942070864559128%" fill="#0f380f" fill-opacity="0.15475662152570074" transform="rotate(6.585627114273979 14.052311181602818 10.201065196665803)" /><rect x="14.431689587128915%" y="30.162581687383028%" width="3.7158702116966174%" height="6.750389195436592%" fill="#0f380f" fill-opacity="0.24495584753632077" transform="rotate(-4.55511770777679 14.431689587128915 30.162581687383028)" /><rect x="54.54947602234529%" y="16.24926214812764%" width="2.664937138671805%" height="6.636107381692784%" fill="#0f380f" fill-opacity="0.2723869719832053" transform="rotate(-6.49537490562248 54.54947602234529 16.24926214812764)" /><rect x="90.19843755110908%" y="99.84799873482288%" width="9.771433440625648%" height="12.443061826481825%" fill="#0f380f" fill-opacity="0.20662205563351438" transform="rotate(-1.8659176152372439 90.19843755110908 99.84799873482288)" /><rect x="17.345894803636973%" y="43.03184944791704%" width="8.467988378611736%" height="22.087085405776506%" fill="#0f380f" fill-opacity="0.12683129596217796" transform="rotate(-2.5718556039109375 17.345894803636973 43.03184944791704)" /><rect x="51.39171827502093%" y="17.674111655299775%" width="11.329868855249519%" height="7.190200983837524%" fill="#0f380f" fill-opacity="0.12018926943435043" transform="rotate(-9.8552464236532 51.39171827502093 17.674111655299775)" /><rect x="99.59415113957024%" y="34.91768419326684%" width="5.689603777054255%" height="20.51859082380739%" fill="#0f380f" fill-opacity="0.3356010670582106" transform="rotate(5.625292730126898 99.59415113957024 34.91768419326684)" /><rect x="10.55914284718943%" y="14.13196284067043%" width="4.9915683888267095%" height="7.431739490436038%" fill="#0f380f" fill-opacity="0.3204017258692404" transform="rotate(-5.866139905022627 10.55914284718943 14.13196284067043)" /><rect x="36.51705782417392%" y="25.400986177005812%" width="5.718604162844152%" height="24.322848109363807%" fill="#0f380f" fill-opacity="0.19727048809645284" transform="rotate(-2.979660057154394 36.51705782417392 25.400986177005812)" /><rect x="30.962613486666147%" y="0.6519686061167818%" width="2.698062624835204%" height="6.091132438848572%" fill="#0f380f" fill-opacity="0.15881723809509962" transform="rotate(9.914640795319944 30.962613486666147 0.6519686061167818)" /><rect x="39.58223655579535%" y="39.098012432054155%" width="10.590932910707467%" height="14.315506897678185%" fill="#0f380f" fill-opacity="0.30058360211277135" transform="rotate(-4.489129533856366 39.58223655579535 39.098012432054155)" /><rect x="25.401028089716693%" y="56.487889173002216%" width="4.966002945042991%" height="6.158361040498064%" fill="#0f380f" fill-opacity="0.25452956355461587" transform="rotate(7.006252600134552 25.401028089716693 56.487889173002216)" /><rect x="62.44126286669997%" y="26.1563660814106%" width="6.150489230753209%" height="9.757619093311838%" fill="#0f380f" fill-opacity="0.3530073227260824" transform="rotate(7.136218997913627 62.44126286669997 26.1563660814106)" /><rect x="60.76781261389223%" y="41.25591709060312%" width="10.126695801309943%" height="18.162337767562597%" fill="#0f380f" fill-opacity="0.24350690869882255" transform="rotate(0.34063419631145564 60.76781261389223 41.25591709060312)" /><rect x="78.76628896003264%" y="17.09491490528503%" width="10.738013793883388%" height="9.698581177147666%" fill="#0f380f" fill-opacity="0.32054160977527435" transform="rotate(-1.2659193587809874 78.76628896003264 17.09491490528503)" /><rect x="8.11232064112135%" y="76.54717829907484%" width="2.5534968949091654%" height="10.378788793741654%" fill="#0f380f" fill-opacity="0.162591832821131" transform="rotate(3.57280220877108 8.11232064112135 76.54717829907484)" /><rect x="83.07263015158924%" y="22.108152580370522%" width="11.650079138664454%" height="23.49958691138838%" fill="#0f380f" fill-opacity="0.11993961484533401" transform="rotate(2.017739751439432 83.07263015158924 22.108152580370522)" /><rect x="96.21509903219619%" y="22.68641393453622%" width="11.170087755723147%" height="24.765558654233207%" fill="#0f380f" fill-opacity="0.3303633030519206" transform="rotate(2.659751422726913 96.21509903219619 22.68641393453622)" /><rect x="54.78631159497391%" y="25.385146528383885%" width="9.491339982879142%" height="18.072923053348863%" fill="#0f380f" fill-opacity="0.1716081910119424" transform="rotate(-2.0405268698411057 54.78631159497391 25.385146528383885)" /><rect x="4.130319618048938%" y="16.906300382970873%" width="4.3390353946232505%" height="19.880708892587755%" fill="#0f380f" fill-opacity="0.13063628520877735" transform="rotate(5.196062092423476 4.130319618048938 16.906300382970873)" /><rect x="37.987646162415615%" y="97.39215797442057%" width="6.0454602241043025%" height="16.35751261967871%" fill="#0f380f" fill-opacity="0.3973785892874204" transform="rotate(-2.0410727570944047 37.987646162415615 97.39215797442057)" /><rect x="55.661321728791954%" y="77.95394864778557%" width="2.9274117569307805%" height="11.121307894650522%" fill="#0f380f" fill-opacity="0.35681527295472304" transform="rotate(-2.8067617729929673 55.661321728791954 77.95394864778557)" /><rect x="19.406505981639878%" y="60.7493634438411%" width="10.119203326948215%" height="22.21717007689707%" fill="#0f380f" fill-opacity="0.11989383743065689" transform="rotate(4.901167025258776 19.406505981639878 60.7493634438411)" /><rect x="14.156562577448263%" y="11.59550581050418%" width="10.358737139084486%" height="22.06722514825471%" fill="#0f380f" fill-opacity="0.2423162388145575" transform="rotate(8.897038278122402 14.156562577448263 11.59550581050418)" /><rect x="4.733054722140784%" y="5.118924140647907%" width="2.9163821788931537%" height="12.189069450034735%" fill="#0f380f" fill-opacity="0.28357953464242047" transform="rotate(6.681657034378002 4.733054722140784 5.118924140647907)" /><rect x="47.38265501463079%" y="73.81453589724178%" width="11.733106179940789%" height="14.068532453897674%" fill="#0f380f" fill-opacity="0.3897599868213044" transform="rotate(1.287565409860056 47.38265501463079 73.81453589724178)" /><rect x="62.57614824167269%" y="86.46871955548113%" width="10.334586211430059%" height="22.976770234378616%" fill="#0f380f" fill-opacity="0.23357205131138037" transform="rotate(-6.264658643095549 62.57614824167269 86.46871955548113)" /><rect x="88.82209944257056%" y="49.88540052891537%" width="8.99442885744078%" height="24.752531502714866%" fill="#0f380f" fill-opacity="0.10356520295391815" transform="rotate(7.485843003312215 88.82209944257056 49.88540052891537)" /><rect x="19.99093219463316%" y="68.4889824901542%" width="10.520211309222656%" height="15.809261790165776%" fill="#0f380f" fill-opacity="0.23824102213121395" transform="rotate(-4.6324378708622715 19.99093219463316 68.4889824901542)" /><rect x="51.189955430273606%" y="90.06176149436533%" width="7.887612044971762%" height="22.695888455135492%" fill="#0f380f" fill-opacity="0.2640791286107509" transform="rotate(2.055339708917126 51.189955430273606 90.06176149436533)" /><rect x="98.21501882460436%" y="82.34578016832754%" width="8.661632671778744%" height="21.260139126335563%" fill="#0f380f" fill-opacity="0.28658282388298695" transform="rotate(8.04482379869944 98.21501882460436 82.34578016832754)" />
    <text x="50%" y="50%" font-family="monospace" font-size="24" fill="#2e5c2e" opacity="0.4" 
          text-anchor="middle" dominant-baseline="middle" 
          transform="rotate(90, 100, 100)">ROTATE</text>
    <!-- Add more noise on top -->
    <rect x="0" y="0" width="100%" height="100%" fill="url(#noise)" opacity="0.2"/>
    <defs>
        <filter id="noise">
            <feTurbulence type="fractalNoise" baseFrequency="0.8" numOctaves="3" stitchTiles="stitch"/>
        </filter>
    </defs>
</svg>