
<svg width="200" height="200" viewBox="0 0 200 200" xmlns="http://www.w3.org/2000/svg">
    <rect width="100%" height="100%" fill="#1a2f1a" />
    <rect x="63.62342645016321%" y="75.6691486694193%" width="11.143535537979632%" height="21.699535831740988%" fill="#0f380f" fill-opacity="0.23079099584669982" transform="rotate(-0.911870468077332 63.62342645016321 75.6691486694193)" /><rect x="26.789335876836496%" y="81.53798433412516%" width="4.319267613198974%" height="23.380906587910513%" fill="#0f380f" fill-opacity="0.11484401925035317" transform="rotate(-7.01183376994382 26.789335876836496 81.53798433412516)" /><rect x="85.78963210059428%" y="55.99600612067404%" width="9.843904029786621%" height="6.619284927672382%" fill="#0f380f" fill-opacity="0.1931999174792875" transform="rotate(1.9139880245409593 85.78963210059428 55.99600612067404)" /><rect x="60.96203680652644%" y="78.88730529744137%" width="9.219431312749412%" height="19.343056145216543%" fill="#0f380f" fill-opacity="0.19885118088365933" transform="rotate(-0.1639732888796246 60.96203680652644 78.88730529744137)" /><rect x="74.64367852853712%" y="78.29775859164792%" width="2.5806177562472414%" height="20.26762967698257%" fill="#0f380f" fill-opacity="0.2899821675874608" transform="rotate(1.3703583271341753 74.64367852853712 78.29775859164792)" /><rect x="80.36180726152166%" y="49.43263692540003%" width="5.086463195339616%" height="13.711954039029283%" fill="#0f380f" fill-opacity="0.13495548628201573" transform="rotate(6.627568365165452 80.36180726152166 49.43263692540003)" /><rect x="85.026729882959%" y="22.789588159012574%" width="11.863115695823659%" height="15.848010302985625%" fill="#0f380f" fill-opacity="0.19188776809740699" transform="rotate(9.156136973807172 85.026729882959 22.789588159012574)" /><rect x="70.3979227211538%" y="12.500353738820525%" width="6.037158430699117%" height="7.591656208593031%" fill="#0f380f" fill-opacity="0.17899094890869394" transform="rotate(-1.8431543359503326 70.3979227211538 12.500353738820525)" /><rect x="77.99693255865942%" y="74.6688493008877%" width="5.9640439950760005%" height="6.094653200075372%" fill="#0f380f" fill-opacity="0.14930863102251948" transform="rotate(0.34369856553871614 77.99693255865942 74.6688493008877)" /><rect x="17.638975536499302%" y="67.45085743843255%" width="2.8338041083211167%" height="12.209264987177175%" fill="#0f380f" fill-opacity="0.19057437242009406" transform="rotate(-6.643480695939399 17.638975536499302 67.45085743843255)" /><rect x="17.81242239037314%" y="52.87806392607334%" width="2.0583835492112073%" height="21.99038594360672%" fill="#0f380f" fill-opacity="0.17140594342465806" transform="rotate(-3.208587882302421 17.81242239037314 52.87806392607334)" /><rect x="11.409788914435614%" y="71.03354921622696%" width="10.763407807464734%" height="6.07287250651682%" fill="#0f380f" fill-opacity="0.13317681350363386" transform="rotate(-3.3570664659926113 11.409788914435614 71.03354921622696)" /><rect x="85.34100741111742%" y="92.28901133106211%" width="11.305358939092333%" height="15.459333728803625%" fill="#0f380f" fill-opacity="0.1462552058529097" transform="rotate(-4.761922642726537 85.34100741111742 92.28901133106211)" /><rect x="62.56721934051155%" y="25.59001011012946%" width="3.5700838417869245%" height="14.513178025077329%" fill="#0f380f" fill-opacity="0.18340279183401578" transform="rotate(2.653743318242096 62.56721934051155 25.59001011012946)" /><rect x="45.49906936706623%" y="40.34156439808615%" width="7.402105569215717%" height="15.455771468988946%" fill="#0f380f" fill-opacity="0.19231112916382617" transform="rotate(3.4508762437106117 45.49906936706623 40.34156439808615)" /><rect x="98.07355524962213%" y="90.79158005036456%" width="6.272359004881579%" height="11.593310398412857%" fill="#0f380f" fill-opacity="0.10715063500192412" transform="rotate(2.513222567126123 98.07355524962213 90.79158005036456)" /><rect x="84.0689115703656%" y="30.177905893181943%" width="8.042797569031944%" height="19.671329075648806%" fill="#0f380f" fill-opacity="0.17325917929121132" transform="rotate(5.645898106033204 84.0689115703656 30.177905893181943)" /><rect x="44.0356794039978%" y="42.95964040886159%" width="7.940762187025333%" height="12.232710509387221%" fill="#0f380f" fill-opacity="0.10251519339913373" transform="rotate(2.0742496021585417 44.0356794039978 42.95964040886159)" /><rect x="12.580451025383166%" y="98.56608244231639%" width="3.5960704755811217%" height="5.1014538646402485%" fill="#0f380f" fill-opacity="0.22377708853157408" transform="rotate(5.868941878892445 12.580451025383166 98.56608244231639)" /><rect x="77.37762204319444%" y="98.9776842491543%" width="7.866827579538661%" height="20.580333883381517%" fill="#0f380f" fill-opacity="0.20093671188042186" transform="rotate(7.332747695906999 77.37762204319444 98.9776842491543)" /><rect x="29.335293215158387%" y="78.11150929005406%" width="2.6614966504534694%" height="8.366887532208963%" fill="#0f380f" fill-opacity="0.2560295609974722" transform="rotate(-5.913201324202568 29.335293215158387 78.11150929005406)" /><rect x="49.799916804151266%" y="0.3856217401091433%" width="7.513051686030876%" height="17.488973308553227%" fill="#0f380f" fill-opacity="0.29772027948701074" transform="rotate(-0.21283557500419725 49.799916804151266 0.3856217401091433)" /><rect x="82.28049312547301%" y="73.24190235709371%" width="9.694924683924693%" height="13.706462541151243%" fill="#0f380f" fill-opacity="0.35900813804979836" transform="rotate(-7.66650751544651 82.28049312547301 73.24190235709371)" /><rect x="40.09563506081163%" y="39.79262256274547%" width="8.706965755614185%" height="18.68507714271327%" fill="#0f380f" fill-opacity="0.33809160511430547" transform="rotate(-6.579803677455525 40.09563506081163 39.79262256274547)" /><rect x="82.82253988623941%" y="16.83450736328391%" width="4.215656971798536%" height="8.67401417952884%" fill="#0f380f" fill-opacity="0.17988789057068966" transform="rotate(-8.978210927716137 82.82253988623941 16.83450736328391)" /><rect x="40.885354652244175%" y="56.43972110755557%" width="3.3166044344500225%" height="10.677742896537163%" fill="#0f380f" fill-opacity="0.24652732891080464" transform="rotate(3.4372249092374076 40.885354652244175 56.43972110755557)" /><rect x="64.60482420324824%" y="14.824285145603898%" width="3.6336818470594228%" height="5.309808401740526%" fill="#0f380f" fill-opacity="0.206694213466257" transform="rotate(-6.290744621990929 64.60482420324824 14.824285145603898)" /><rect x="3.472572405413221%" y="1.046897713922279%" width="5.11919602369266%" height="14.806576230984096%" fill="#0f380f" fill-opacity="0.13114488694796095" transform="rotate(4.783169870962926 3.472572405413221 1.046897713922279)" /><rect x="29.119991378418153%" y="21.991334109253714%" width="11.981364773362797%" height="23.641938779154227%" fill="#0f380f" fill-opacity="0.2134344259968559" transform="rotate(6.90437158750666 29.119991378418153 21.991334109253714)" /><rect x="55.37281285167116%" y="65.6543849826376%" width="2.2637626373856303%" height="15.911929956627178%" fill="#0f380f" fill-opacity="0.222950097200119" transform="rotate(4.141314833136473 55.37281285167116 65.6543849826376)" /><rect x="10.959610431480538%" y="23.79624349549695%" width="2.8087697081132275%" height="7.113523961263162%" fill="#0f380f" fill-opacity="0.1729406783633231" transform="rotate(-1.7985122112062832 10.959610431480538 23.79624349549695)" /><rect x="49.39834068956785%" y="28.910223979165405%" width="8.816335441703526%" height="21.308761134202705%" fill="#0f380f" fill-opacity="0.24259538749245071" transform="rotate(8.023894576839766 49.39834068956785 28.910223979165405)" /><rect x="74.76693543100012%" y="76.6672565411647%" width="3.402672942701202%" height="6.180710575451018%" fill="#0f380f" fill-opacity="0.1867979431844045" transform="rotate(-0.5126661389104559 74.76693543100012 76.6672565411647)" /><rect x="32.0681259722561%" y="30.10334253642798%" width="8.02212133413904%" height="22.155420898220143%" fill="#0f380f" fill-opacity="0.2831403684779465" transform="rotate(-5.402940539389281 32.0681259722561 30.10334253642798)" /><rect x="43.11548215050719%" y="67.34096970525687%" width="10.497189411499837%" height="22.847179338064638%" fill="#0f380f" fill-opacity="0.2549198767775933" transform="rotate(-5.186337550468223 43.11548215050719 67.34096970525687)" /><rect x="53.27943795323438%" y="85.46654503795625%" width="4.838977696442548%" height="23.48908780897989%" fill="#0f380f" fill-opacity="0.10878046650619035" transform="rotate(-3.1435662873159975 53.27943795323438 85.46654503795625)" /><rect x="2.417270399235494%" y="43.874122278515%" width="7.851832496407213%" height="8.591110188604459%" fill="#0f380f" fill-opacity="0.24525101535856586" transform="rotate(-5.126470547239728 2.417270399235494 43.874122278515)" /><rect x="89.27423512102793%" y="80.08884302912303%" width="8.190728805784072%" height="24.155050873083265%" fill="#0f380f" fill-opacity="0.3568935640700577" transform="rotate(5.559508588101886 89.27423512102793 80.08884302912303)" /><rect x="50.164301528553565%" y="89.75137036788836%" width="8.601711272525323%" height="24.205433661990114%" fill="#0f380f" fill-opacity="0.14927158824230058" transform="rotate(6.213951262992673 50.164301528553565 89.75137036788836)" /><rect x="21.519619493653874%" y="86.88119345493247%" width="11.224412466137789%" height="7.355051454304684%" fill="#0f380f" fill-opacity="0.10589552992434659" transform="rotate(6.237608985594186 21.519619493653874 86.88119345493247)" /><rect x="3.3153743796266566%" y="87.72773925420957%" width="4.7559073939649785%" height="7.602464029034621%" fill="#0f380f" fill-opacity="0.15567945059248806" transform="rotate(7.114851082348444 3.3153743796266566 87.72773925420957)" /><rect x="90.36083313407586%" y="39.30727657341687%" width="6.446874792443123%" height="22.533135312695848%" fill="#0f380f" fill-opacity="0.37893376942837464" transform="rotate(-2.9093996746478457 90.36083313407586 39.30727657341687)" /><rect x="5.266341275906905%" y="55.216155708238325%" width="6.772812100390311%" height="14.46495665542258%" fill="#0f380f" fill-opacity="0.19884831933034916" transform="rotate(6.080987161594869 5.266341275906905 55.216155708238325)" /><rect x="40.44513693183972%" y="86.94443054546488%" width="3.196128910075265%" height="11.864725573218568%" fill="#0f380f" fill-opacity="0.36962643926906125" transform="rotate(-1.402323546131603 40.44513693183972 86.94443054546488)" /><rect x="70.92880297199467%" y="66.5715032233683%" width="10.909465055525397%" height="11.820128198788797%" fill="#0f380f" fill-opacity="0.2416887210251742" transform="rotate(-6.912987156247756 70.92880297199467 66.5715032233683)" /><rect x="54.79136496722362%" y="64.36733077280536%" width="4.894771558220489%" height="18.82010786070724%" fill="#0f380f" fill-opacity="0.25326784144374526" transform="rotate(-3.551546627196598 54.79136496722362 64.36733077280536)" /><rect x="75.54353555456866%" y="14.478346286104426%" width="7.382607494242936%" height="21.138516387766973%" fill="#0f380f" fill-opacity="0.34509101824209976" transform="rotate(-9.461114170713046 75.54353555456866 14.478346286104426)" /><rect x="18.591725469934094%" y="71.32458239407546%" width="10.413727648648644%" height="8.149834364963338%" fill="#0f380f" fill-opacity="0.20449130471642465" transform="rotate(-2.7754946331556347 18.591725469934094 71.32458239407546)" /><rect x="11.509765318660637%" y="53.34608301610293%" width="4.089592966257796%" height="19.762520800402704%" fill="#0f380f" fill-opacity="0.149452518446663" transform="rotate(-1.9398309111054175 11.509765318660637 53.34608301610293)" /><rect x="11.302749159203929%" y="75.9964552376728%" width="8.086987581540367%" height="20.613729045930185%" fill="#0f380f" fill-opacity="0.3450706467275052" transform="rotate(9.284763576317648 11.302749159203929 75.9964552376728)" />
    <text x="50%" y="50%" font-family="monospace" font-size="24" fill="#2e5c2e" opacity="0.4" 
          text-anchor="middle" dominant-baseline="middle" 
          transform="rotate(90, 100, 100)">ROTATE</text>
    <!-- Add more noise on top -->
    <rect x="0" y="0" width="100%" height="100%" fill="url(#noise)" opacity="0.2"/>
    <defs>
        <filter id="noise">
            <feTurbulence type="fractalNoise" baseFrequency="0.8" numOctaves="3" stitchTiles="stitch"/>
        </filter>
    </defs>
</svg>