
<svg width="200" height="200" viewBox="0 0 200 200" xmlns="http://www.w3.org/2000/svg">
    <rect width="100%" height="100%" fill="#1a2f1a" />
    <rect x="65.67327206114196%" y="66.73467756904385%" width="10.769055468519527%" height="14.758847265118755%" fill="#0f380f" fill-opacity="0.1629776833335882" transform="rotate(9.276327489966846 65.67327206114196 66.73467756904385)" /><rect x="54.38530781403941%" y="73.43659133076024%" width="2.2586200383745476%" height="23.54080057412616%" fill="#0f380f" fill-opacity="0.36614484510783507" transform="rotate(-1.8187799401318312 54.38530781403941 73.43659133076024)" /><rect x="97.69861035738742%" y="34.81086249195672%" width="6.712091515086692%" height="5.01694710499871%" fill="#0f380f" fill-opacity="0.1690240475960761" transform="rotate(1.7227618103869666 97.69861035738742 34.81086249195672)" /><rect x="48.0355362443178%" y="91.53274328694224%" width="7.847262167856241%" height="19.72149554222175%" fill="#0f380f" fill-opacity="0.2961280425795315" transform="rotate(9.945971709578156 48.0355362443178 91.53274328694224)" /><rect x="28.65160784187193%" y="25.083863275589458%" width="3.6369594658332542%" height="15.55024131063825%" fill="#0f380f" fill-opacity="0.11618111028355049" transform="rotate(2.9219631816936893 28.65160784187193 25.083863275589458)" /><rect x="51.34984459083909%" y="98.7684828598337%" width="5.392727568113994%" height="15.870683501967546%" fill="#0f380f" fill-opacity="0.27949200638104" transform="rotate(7.093424282651949 51.34984459083909 98.7684828598337)" /><rect x="29.58213129819057%" y="8.308416800719076%" width="4.717998155484361%" height="23.191739842703242%" fill="#0f380f" fill-opacity="0.1328282246321451" transform="rotate(-3.543463586924645 29.58213129819057 8.308416800719076)" /><rect x="41.1507267503148%" y="4.015150001770362%" width="9.256077355096414%" height="11.015186304899453%" fill="#0f380f" fill-opacity="0.2388332311917404" transform="rotate(-1.8761196967416378 41.1507267503148 4.015150001770362)" /><rect x="48.21093580381848%" y="34.43831525485215%" width="9.699520468476646%" height="17.9710989744151%" fill="#0f380f" fill-opacity="0.17336136217096076" transform="rotate(-4.004557541332597 48.21093580381848 34.43831525485215)" /><rect x="7.362560974215748%" y="41.63631447337664%" width="7.474777167703841%" height="17.18121883789081%" fill="#0f380f" fill-opacity="0.17257732741574439" transform="rotate(-0.04220044763143527 7.362560974215748 41.63631447337664)" /><rect x="69.62833333032799%" y="73.59664966970898%" width="7.422680995066077%" height="8.464095843278958%" fill="#0f380f" fill-opacity="0.2570998475717407" transform="rotate(3.2043338134271675 69.62833333032799 73.59664966970898)" /><rect x="44.8360248371737%" y="83.64501064165732%" width="7.6178869829287725%" height="5.3632983317450815%" fill="#0f380f" fill-opacity="0.3784553313974419" transform="rotate(0.20131449829307435 44.8360248371737 83.64501064165732)" /><rect x="47.0588695007589%" y="21.780772888882215%" width="9.043277143250359%" height="6.650516005930404%" fill="#0f380f" fill-opacity="0.33504524519476353" transform="rotate(-7.386052638501479 47.0588695007589 21.780772888882215)" /><rect x="89.46596444276749%" y="94.0719867442436%" width="2.0037122786159594%" height="20.85837179997246%" fill="#0f380f" fill-opacity="0.30188166144721396" transform="rotate(-7.979401355691325 89.46596444276749 94.0719867442436)" /><rect x="2.9956662190269934%" y="76.88832109045981%" width="9.380003331114553%" height="21.898080412776753%" fill="#0f380f" fill-opacity="0.11293881307456748" transform="rotate(0.409200997003234 2.9956662190269934 76.88832109045981)" /><rect x="21.1094226797927%" y="84.90001458827734%" width="11.379295256476754%" height="19.35186295712118%" fill="#0f380f" fill-opacity="0.17483679546809733" transform="rotate(0.09596833327291954 21.1094226797927 84.90001458827734)" /><rect x="21.830970468973465%" y="30.497240684722414%" width="4.626086747257012%" height="10.825873089298675%" fill="#0f380f" fill-opacity="0.37197459513428155" transform="rotate(-6.889661501323127 21.830970468973465 30.497240684722414)" /><rect x="81.23867512381877%" y="39.181644305245%" width="4.6956032901798475%" height="17.368986002305043%" fill="#0f380f" fill-opacity="0.38708545635417435" transform="rotate(-7.952910805046733 81.23867512381877 39.181644305245)" /><rect x="4.358707642281045%" y="44.28999873244904%" width="11.326506352725595%" height="20.068663053803668%" fill="#0f380f" fill-opacity="0.27549349310210347" transform="rotate(9.642433359318279 4.358707642281045 44.28999873244904)" /><rect x="43.30826999862811%" y="10.893327664523511%" width="2.4252856963753593%" height="5.327484805065024%" fill="#0f380f" fill-opacity="0.34762092348518225" transform="rotate(6.927421240513073 43.30826999862811 10.893327664523511)" /><rect x="41.06170399908012%" y="59.94516800856664%" width="8.043566962998618%" height="9.548719469295746%" fill="#0f380f" fill-opacity="0.24821403757213995" transform="rotate(-6.649741096083918 41.06170399908012 59.94516800856664)" /><rect x="4.140202608415389%" y="71.01056080757179%" width="4.1326095321310135%" height="17.141792999874166%" fill="#0f380f" fill-opacity="0.14205544787458607" transform="rotate(7.35113954700746 4.140202608415389 71.01056080757179)" /><rect x="85.95861354674052%" y="63.58981881637145%" width="4.284376941337651%" height="20.323418048914043%" fill="#0f380f" fill-opacity="0.19346528150084685" transform="rotate(-7.880655965571169 85.95861354674052 63.58981881637145)" /><rect x="59.706481940746826%" y="43.64931491578958%" width="11.35995948024663%" height="16.4576126872049%" fill="#0f380f" fill-opacity="0.39187678752591837" transform="rotate(1.0252711796267988 59.706481940746826 43.64931491578958)" /><rect x="80.24426369851594%" y="91.64244732411495%" width="7.546377496985193%" height="22.546809986202817%" fill="#0f380f" fill-opacity="0.10501170435048693" transform="rotate(-5.637081088219407 80.24426369851594 91.64244732411495)" /><rect x="14.198793088133211%" y="33.821597931888036%" width="5.557352022568204%" height="12.596779882187949%" fill="#0f380f" fill-opacity="0.33598983110379743" transform="rotate(-6.127341745437596 14.198793088133211 33.821597931888036)" /><rect x="48.380786328112634%" y="56.325302760936836%" width="3.46687126905256%" height="17.410097526340373%" fill="#0f380f" fill-opacity="0.3332080418710207" transform="rotate(-5.809434834083809 48.380786328112634 56.325302760936836)" /><rect x="50.545840886382784%" y="11.139174190325585%" width="9.952434227132693%" height="14.589466282034367%" fill="#0f380f" fill-opacity="0.3553946641413951" transform="rotate(-0.15893251960851984 50.545840886382784 11.139174190325585)" /><rect x="74.39403656941812%" y="9.480772714759533%" width="6.084223279382897%" height="10.201473705201947%" fill="#0f380f" fill-opacity="0.19127458594371977" transform="rotate(-5.527061911128694 74.39403656941812 9.480772714759533)" /><rect x="91.12116833689595%" y="39.320322343945705%" width="11.182121040692582%" height="5.114554304750145%" fill="#0f380f" fill-opacity="0.2398433189623926" transform="rotate(-8.48310853089659 91.12116833689595 39.320322343945705)" /><rect x="23.666910485527627%" y="42.54706218333059%" width="6.372535047915308%" height="17.33992247809629%" fill="#0f380f" fill-opacity="0.39049861514541895" transform="rotate(-5.422038281750954 23.666910485527627 42.54706218333059)" /><rect x="94.8840290122692%" y="33.31605928038207%" width="9.563995598139021%" height="18.018167487198557%" fill="#0f380f" fill-opacity="0.32516943167268614" transform="rotate(2.9080409160019176 94.8840290122692 33.31605928038207)" /><rect x="31.236924739515516%" y="39.14689491380565%" width="5.944241177392639%" height="8.833959567006618%" fill="#0f380f" fill-opacity="0.36752755739227483" transform="rotate(-2.818149191289119 31.236924739515516 39.14689491380565)" /><rect x="16.005976096271425%" y="2.008384009399833%" width="8.047988790261645%" height="11.06332611194637%" fill="#0f380f" fill-opacity="0.36260547460126413" transform="rotate(-7.388764499649216 16.005976096271425 2.008384009399833)" /><rect x="97.81470574031152%" y="95.11931131322521%" width="10.042610604365263%" height="12.67657604213758%" fill="#0f380f" fill-opacity="0.2672403143345705" transform="rotate(7.53896486521494 97.81470574031152 95.11931131322521)" /><rect x="94.91440785108568%" y="24.30310457492909%" width="9.621629311782462%" height="18.07004535926443%" fill="#0f380f" fill-opacity="0.2146067507945033" transform="rotate(-2.0742925632929676 94.91440785108568 24.30310457492909)" /><rect x="53.78823937142276%" y="85.34791724481923%" width="4.244465848094168%" height="14.24976488040899%" fill="#0f380f" fill-opacity="0.1265350705531976" transform="rotate(2.9611796620174076 53.78823937142276 85.34791724481923)" /><rect x="57.48479517259919%" y="86.96694264302873%" width="3.0399965526452917%" height="13.302277759416118%" fill="#0f380f" fill-opacity="0.2546361070851895" transform="rotate(9.177978306913769 57.48479517259919 86.96694264302873)" /><rect x="94.09589201317748%" y="36.13725123471131%" width="9.35244639379628%" height="5.224473200720913%" fill="#0f380f" fill-opacity="0.26516679032978546" transform="rotate(-0.18545162344801192 94.09589201317748 36.13725123471131)" /><rect x="80.7386785690918%" y="72.03512245178004%" width="4.293103097112641%" height="7.9504839246693315%" fill="#0f380f" fill-opacity="0.10143441384937904" transform="rotate(9.336969437938002 80.7386785690918 72.03512245178004)" /><rect x="73.6655865881818%" y="9.465424119386645%" width="11.672944932516911%" height="18.14904756689053%" fill="#0f380f" fill-opacity="0.14136940789933672" transform="rotate(-5.498345618952301 73.6655865881818 9.465424119386645)" /><rect x="61.54087220078136%" y="24.496741342970154%" width="8.107256707720682%" height="20.59629296240314%" fill="#0f380f" fill-opacity="0.30005373749543324" transform="rotate(7.245070204775587 61.54087220078136 24.496741342970154)" /><rect x="69.65443810227201%" y="28.947510056448756%" width="7.049849120214064%" height="15.770981931255745%" fill="#0f380f" fill-opacity="0.3506238173606795" transform="rotate(-9.18924489628784 69.65443810227201 28.947510056448756)" /><rect x="11.436900635103553%" y="9.064435962424067%" width="3.2166322271223295%" height="16.691969909918654%" fill="#0f380f" fill-opacity="0.32847336351183476" transform="rotate(-1.2268158133826326 11.436900635103553 9.064435962424067)" /><rect x="23.243290616276045%" y="95.68494621684155%" width="2.553853432080663%" height="5.83539709829854%" fill="#0f380f" fill-opacity="0.38871172481605687" transform="rotate(5.182543385060709 23.243290616276045 95.68494621684155)" /><rect x="22.325480598193582%" y="29.094406265745%" width="11.830620926617955%" height="16.02117118195776%" fill="#0f380f" fill-opacity="0.3693828550249958" transform="rotate(-3.503791727878898 22.325480598193582 29.094406265745)" /><rect x="76.87322433096914%" y="26.751993017570143%" width="10.701305829293752%" height="11.01247748626262%" fill="#0f380f" fill-opacity="0.22384434877050963" transform="rotate(1.6773740960302845 76.87322433096914 26.751993017570143)" /><rect x="19.10903212800239%" y="82.64864040682967%" width="6.45534654633163%" height="19.057562523141943%" fill="#0f380f" fill-opacity="0.15635202927048558" transform="rotate(-0.4263353957819387 19.10903212800239 82.64864040682967)" /><rect x="59.05808050535695%" y="82.48385482336204%" width="8.174446167572702%" height="14.707432253969879%" fill="#0f380f" fill-opacity="0.12862832465691643" transform="rotate(-4.864287026570395 59.05808050535695 82.48385482336204)" /><rect x="13.573473479284592%" y="44.69178996117839%" width="4.931791673678857%" height="19.68653085263948%" fill="#0f380f" fill-opacity="0.2425751997191038" transform="rotate(1.8551357640668478 13.573473479284592 44.69178996117839)" />
    <text x="50%" y="50%" font-family="monospace" font-size="24" fill="#2e5c2e" opacity="0.4" 
          text-anchor="middle" dominant-baseline="middle" 
          transform="rotate(90, 100, 100)">ROTATE</text>
    <!-- Add more noise on top -->
    <rect x="0" y="0" width="100%" height="100%" fill="url(#noise)" opacity="0.2"/>
    <defs>
        <filter id="noise">
            <feTurbulence type="fractalNoise" baseFrequency="0.8" numOctaves="3" stitchTiles="stitch"/>
        </filter>
    </defs>
</svg>