
<svg width="200" height="200" viewBox="0 0 200 200" xmlns="http://www.w3.org/2000/svg">
    <rect width="100%" height="100%" fill="#1a2f1a" />
    <rect x="15.381472317348754%" y="40.40584614229174%" width="8.135797337695507%" height="7.139062592862824%" fill="#0f380f" fill-opacity="0.2898874929846096" transform="rotate(-6.5729699776732975 15.381472317348754 40.40584614229174)" /><rect x="41.37048573410617%" y="1.8619064329878365%" width="11.773140622090997%" height="19.290025905812747%" fill="#0f380f" fill-opacity="0.19295492221720945" transform="rotate(-0.5274784516886157 41.37048573410617 1.8619064329878365)" /><rect x="31.181209988277814%" y="96.50424429573482%" width="9.564553588031075%" height="9.683134680222174%" fill="#0f380f" fill-opacity="0.22319041163951903" transform="rotate(2.080239730940967 31.181209988277814 96.50424429573482)" /><rect x="33.88707216356438%" y="7.328389521422629%" width="6.297937350426412%" height="9.778285640534117%" fill="#0f380f" fill-opacity="0.11772927139754179" transform="rotate(-8.56608599123213 33.88707216356438 7.328389521422629)" /><rect x="13.824131996151035%" y="36.31023679867016%" width="10.798095726752015%" height="8.373242829779041%" fill="#0f380f" fill-opacity="0.19565925389280667" transform="rotate(0.7178520014020755 13.824131996151035 36.31023679867016)" /><rect x="52.96662296333069%" y="56.28153824888575%" width="4.2978284087656835%" height="18.626270337749986%" fill="#0f380f" fill-opacity="0.11030524770478915" transform="rotate(-9.552296073125442 52.96662296333069 56.28153824888575)" /><rect x="7.044912850106022%" y="37.1756587454955%" width="2.521400275077799%" height="9.248226620939572%" fill="#0f380f" fill-opacity="0.15539652395311648" transform="rotate(9.904691948418886 7.044912850106022 37.1756587454955)" /><rect x="33.91539488522716%" y="43.57295965871182%" width="9.687697399364438%" height="16.787851430993555%" fill="#0f380f" fill-opacity="0.3191125479760843" transform="rotate(-0.33648886096654884 33.91539488522716 43.57295965871182)" /><rect x="76.570177325233%" y="21.365839663191622%" width="10.463026481047827%" height="5.261788194065904%" fill="#0f380f" fill-opacity="0.13889861034374074" transform="rotate(3.436275809789322 76.570177325233 21.365839663191622)" /><rect x="39.89430577114379%" y="20.201063082696002%" width="9.568441128086489%" height="13.432036876624654%" fill="#0f380f" fill-opacity="0.3644336329121931" transform="rotate(7.799650222216371 39.89430577114379 20.201063082696002)" /><rect x="73.37549597228886%" y="62.47309185214931%" width="6.699621631123313%" height="17.370802107979276%" fill="#0f380f" fill-opacity="0.33837904373490324" transform="rotate(4.040534259192128 73.37549597228886 62.47309185214931)" /><rect x="98.69968315931092%" y="16.455786172360632%" width="11.472387009117453%" height="23.31190156031297%" fill="#0f380f" fill-opacity="0.19342006477691465" transform="rotate(-5.6346535459968035 98.69968315931092 16.455786172360632)" /><rect x="64.73745768809972%" y="94.46639286165838%" width="7.056493082615282%" height="21.016382553098993%" fill="#0f380f" fill-opacity="0.356499311500346" transform="rotate(-6.573619281670928 64.73745768809972 94.46639286165838)" /><rect x="25.354083712367004%" y="9.1465531080533%" width="6.2768218880333215%" height="14.962709001963443%" fill="#0f380f" fill-opacity="0.11966881782677866" transform="rotate(5.377647090653138 25.354083712367004 9.1465531080533)" /><rect x="56.575086935600815%" y="72.3970404517332%" width="6.597824049256688%" height="20.37336833910574%" fill="#0f380f" fill-opacity="0.3925432545338978" transform="rotate(1.5162388798511461 56.575086935600815 72.3970404517332)" /><rect x="81.41268168725301%" y="54.36842181592713%" width="7.83983278942007%" height="5.2825024519082175%" fill="#0f380f" fill-opacity="0.2871079338643272" transform="rotate(-1.3601447397121635 81.41268168725301 54.36842181592713)" /><rect x="69.53041855054347%" y="49.773688615033315%" width="10.420914528104692%" height="8.55690842028511%" fill="#0f380f" fill-opacity="0.37271303198835026" transform="rotate(0.5141097646476602 69.53041855054347 49.773688615033315)" /><rect x="28.64802067438451%" y="13.923656027873843%" width="6.885088317043566%" height="5.419670007719337%" fill="#0f380f" fill-opacity="0.3220920839113558" transform="rotate(-3.091233068077381 28.64802067438451 13.923656027873843)" /><rect x="8.497666575397943%" y="75.24545849580157%" width="4.4420916098061465%" height="23.3104516983235%" fill="#0f380f" fill-opacity="0.14632957996700136" transform="rotate(1.8794425376656694 8.497666575397943 75.24545849580157)" /><rect x="90.5663293028767%" y="70.08511781419196%" width="11.422468717753679%" height="23.619789295212087%" fill="#0f380f" fill-opacity="0.27421260640863465" transform="rotate(-2.744803073513631 90.5663293028767 70.08511781419196)" /><rect x="5.852446265560451%" y="52.86129514964093%" width="9.486876500804751%" height="14.540732529926155%" fill="#0f380f" fill-opacity="0.30300032168848146" transform="rotate(9.951727765317703 5.852446265560451 52.86129514964093)" /><rect x="41.374733843392086%" y="62.2867350464712%" width="6.372080086973415%" height="23.109550693406128%" fill="#0f380f" fill-opacity="0.11294503852228571" transform="rotate(7.928457350828545 41.374733843392086 62.2867350464712)" /><rect x="34.83086486133791%" y="49.041840520914626%" width="6.432478350907731%" height="14.539646039867653%" fill="#0f380f" fill-opacity="0.11876605715214712" transform="rotate(7.776960223699941 34.83086486133791 49.041840520914626)" /><rect x="80.51456499787649%" y="37.74446608543729%" width="11.290209130453428%" height="12.92262055085179%" fill="#0f380f" fill-opacity="0.23259636074373918" transform="rotate(-8.411736487371954 80.51456499787649 37.74446608543729)" /><rect x="59.804820847771154%" y="58.497132014084684%" width="10.411401340525956%" height="23.047947041631247%" fill="#0f380f" fill-opacity="0.24211585350426607" transform="rotate(-1.30482687577725 59.804820847771154 58.497132014084684)" /><rect x="0.7085215230548059%" y="59.336173230755264%" width="10.70443735686354%" height="23.368412574575718%" fill="#0f380f" fill-opacity="0.24535120563846305" transform="rotate(-5.76531021733544 0.7085215230548059 59.336173230755264)" /><rect x="60.97956700977777%" y="71.12441194402088%" width="6.864299700296901%" height="14.90009714072395%" fill="#0f380f" fill-opacity="0.3153041616358159" transform="rotate(-3.8927685546145163 60.97956700977777 71.12441194402088)" /><rect x="93.91931341875667%" y="27.498769394711033%" width="11.175210431741498%" height="13.915617154920106%" fill="#0f380f" fill-opacity="0.2785567284514515" transform="rotate(-9.425604519393378 93.91931341875667 27.498769394711033)" /><rect x="47.913538183763336%" y="45.2483541403985%" width="9.66267514481036%" height="8.662389750802145%" fill="#0f380f" fill-opacity="0.3220291260267119" transform="rotate(1.6510821013762396 47.913538183763336 45.2483541403985)" /><rect x="5.716421034413255%" y="45.58576267214417%" width="11.737009421606864%" height="19.688241947052703%" fill="#0f380f" fill-opacity="0.25381448651139005" transform="rotate(-4.3705905293867175 5.716421034413255 45.58576267214417)" /><rect x="10.782799908659124%" y="27.18885047629177%" width="8.59723277617228%" height="18.939925125734746%" fill="#0f380f" fill-opacity="0.3852477758042011" transform="rotate(5.147057780078912 10.782799908659124 27.18885047629177)" /><rect x="65.7172036686053%" y="92.30616714639692%" width="2.5426827519304336%" height="14.439469813167205%" fill="#0f380f" fill-opacity="0.13669839199671957" transform="rotate(1.9434857311708047 65.7172036686053 92.30616714639692)" /><rect x="93.69520435227373%" y="79.49678584687372%" width="8.648418374462938%" height="11.401811095468723%" fill="#0f380f" fill-opacity="0.38593102808620594" transform="rotate(-6.707178278216994 93.69520435227373 79.49678584687372)" /><rect x="12.35581368574714%" y="51.62179161974997%" width="9.425481710408093%" height="18.34615365506698%" fill="#0f380f" fill-opacity="0.3040863059775711" transform="rotate(-6.925420428990172 12.35581368574714 51.62179161974997)" /><rect x="82.78657619718727%" y="63.90093970761526%" width="11.95873517605482%" height="17.849664624023774%" fill="#0f380f" fill-opacity="0.18781481018325144" transform="rotate(-0.33023695159021926 82.78657619718727 63.90093970761526)" /><rect x="84.94300732249252%" y="99.09702981853255%" width="10.126811929101397%" height="9.417069155685109%" fill="#0f380f" fill-opacity="0.3148561134729644" transform="rotate(8.00005057561144 84.94300732249252 99.09702981853255)" /><rect x="13.319664595403092%" y="58.51308487853872%" width="3.883689798026361%" height="5.3194633302817484%" fill="#0f380f" fill-opacity="0.10449753589530858" transform="rotate(8.440508654222342 13.319664595403092 58.51308487853872)" /><rect x="42.71391045910023%" y="46.796381036460524%" width="10.479103760404188%" height="21.527062629735635%" fill="#0f380f" fill-opacity="0.21707178635878144" transform="rotate(-0.8969813127706701 42.71391045910023 46.796381036460524)" /><rect x="49.53639999482259%" y="79.56036040418576%" width="10.964444771440403%" height="9.817371549735345%" fill="#0f380f" fill-opacity="0.18187970924763275" transform="rotate(3.797659360985028 49.53639999482259 79.56036040418576)" /><rect x="21.85803366416339%" y="42.124234733273944%" width="11.737066800709123%" height="9.808928213313198%" fill="#0f380f" fill-opacity="0.28095313440453695" transform="rotate(-1.1338380854878096 21.85803366416339 42.124234733273944)" /><rect x="91.89943076747832%" y="14.152011183149648%" width="8.867579672082657%" height="7.980143258497378%" fill="#0f380f" fill-opacity="0.17122454790084457" transform="rotate(-9.269556815420202 91.89943076747832 14.152011183149648)" /><rect x="0.3782297210391805%" y="33.768992119570484%" width="9.046673162258248%" height="11.787709490974578%" fill="#0f380f" fill-opacity="0.30069089966403356" transform="rotate(6.05762764963222 0.3782297210391805 33.768992119570484)" /><rect x="0.4740405825283789%" y="9.038303588062934%" width="9.434289046881101%" height="9.208749799777717%" fill="#0f380f" fill-opacity="0.2974913407629214" transform="rotate(-4.74072249576121 0.4740405825283789 9.038303588062934)" /><rect x="55.68076844169438%" y="42.156310667726125%" width="2.4892050190940003%" height="12.537682122448805%" fill="#0f380f" fill-opacity="0.2775850170477219" transform="rotate(6.199301696332146 55.68076844169438 42.156310667726125)" /><rect x="16.151637252365635%" y="28.040571593763598%" width="6.982637246712979%" height="24.606320287111437%" fill="#0f380f" fill-opacity="0.31054286530539477" transform="rotate(6.745165875567569 16.151637252365635 28.040571593763598)" /><rect x="90.60649285323208%" y="90.24879739958712%" width="2.2589667139459717%" height="19.96480552612493%" fill="#0f380f" fill-opacity="0.35858180749082624" transform="rotate(3.1143850551467764 90.60649285323208 90.24879739958712)" /><rect x="8.594744534208608%" y="15.442592945644106%" width="9.873319350298884%" height="22.010837120307585%" fill="#0f380f" fill-opacity="0.30706301785654716" transform="rotate(-7.003421044518761 8.594744534208608 15.442592945644106)" /><rect x="32.29975422238394%" y="71.38410519304797%" width="8.639812355485951%" height="11.495989080390821%" fill="#0f380f" fill-opacity="0.33398140335422183" transform="rotate(2.807572403821009 32.29975422238394 71.38410519304797)" /><rect x="95.86764058007961%" y="76.88322748691766%" width="3.444115737718956%" height="10.338031393248507%" fill="#0f380f" fill-opacity="0.39681105435716146" transform="rotate(8.719137521055472 95.86764058007961 76.88322748691766)" /><rect x="86.73131227655044%" y="73.82516327433196%" width="5.298064724517056%" height="19.105454349065887%" fill="#0f380f" fill-opacity="0.27694180469789925" transform="rotate(-6.1236665777438155 86.73131227655044 73.82516327433196)" />
    <text x="50%" y="50%" font-family="monospace" font-size="24" fill="#2e5c2e" opacity="0.4" 
          text-anchor="middle" dominant-baseline="middle" 
          transform="rotate(90, 100, 100)">ROTATE</text>
    <!-- Add more noise on top -->
    <rect x="0" y="0" width="100%" height="100%" fill="url(#noise)" opacity="0.2"/>
    <defs>
        <filter id="noise">
            <feTurbulence type="fractalNoise" baseFrequency="0.8" numOctaves="3" stitchTiles="stitch"/>
        </filter>
    </defs>
</svg>