
<svg width="200" height="200" viewBox="0 0 200 200" xmlns="http://www.w3.org/2000/svg">
    <rect width="100%" height="100%" fill="#1a2f1a" />
    <rect x="8.148964803793401%" y="8.744367156364552%" width="3.9740869859985133%" height="10.892940606217337%" fill="#0f380f" fill-opacity="0.1539904836514927" transform="rotate(-3.8941474692545963 8.148964803793401 8.744367156364552)" /><rect x="66.08000738193552%" y="20.398292840005038%" width="2.244475134249421%" height="11.961318062414176%" fill="#0f380f" fill-opacity="0.33635234557543353" transform="rotate(-0.9506919665136131 66.08000738193552 20.398292840005038)" /><rect x="87.38072392492953%" y="80.29731968033629%" width="2.422190543916164%" height="22.6615337032233%" fill="#0f380f" fill-opacity="0.24392413749263617" transform="rotate(-3.711929835950727 87.38072392492953 80.29731968033629)" /><rect x="0.8974809607392165%" y="39.88559489004522%" width="5.48868875342379%" height="20.704369454764482%" fill="#0f380f" fill-opacity="0.2121776275264099" transform="rotate(-3.3069234799011245 0.8974809607392165 39.88559489004522)" /><rect x="56.724686694609396%" y="82.35962494720678%" width="9.56528080578973%" height="7.936995540916993%" fill="#0f380f" fill-opacity="0.1618450099106259" transform="rotate(-1.5954101572450536 56.724686694609396 82.35962494720678)" /><rect x="94.83531329706078%" y="19.249482829120556%" width="5.279096560755824%" height="13.102893875951224%" fill="#0f380f" fill-opacity="0.19672365432777184" transform="rotate(-3.9532960172882188 94.83531329706078 19.249482829120556)" /><rect x="14.945950809983554%" y="96.08001256454354%" width="7.222477121395316%" height="16.819431549416826%" fill="#0f380f" fill-opacity="0.39237179470134564" transform="rotate(9.422050925728065 14.945950809983554 96.08001256454354)" /><rect x="76.20491697200413%" y="79.66812776810083%" width="10.160940222685978%" height="24.22241193312263%" fill="#0f380f" fill-opacity="0.22432064893118253" transform="rotate(-6.3357551118297994 76.20491697200413 79.66812776810083)" /><rect x="30.780458927045796%" y="4.462839150921272%" width="9.441170168447467%" height="20.345677002273348%" fill="#0f380f" fill-opacity="0.2702531428105329" transform="rotate(-5.6999721919934725 30.780458927045796 4.462839150921272)" /><rect x="39.50528816211951%" y="5.187062892803551%" width="4.406169576505421%" height="8.102429131118406%" fill="#0f380f" fill-opacity="0.3629107705965078" transform="rotate(6.2588240946650195 39.50528816211951 5.187062892803551)" /><rect x="92.06877779060424%" y="54.20549742027211%" width="9.153310582106363%" height="14.802926188634522%" fill="#0f380f" fill-opacity="0.35218919925435344" transform="rotate(-2.6704192944299248 92.06877779060424 54.20549742027211)" /><rect x="54.36300047605349%" y="94.64162759013203%" width="8.425465182961823%" height="9.997166188082653%" fill="#0f380f" fill-opacity="0.223706624951066" transform="rotate(7.479449602330284 54.36300047605349 94.64162759013203)" /><rect x="16.418357015029216%" y="8.709858542564476%" width="4.439152012718527%" height="20.156819617728274%" fill="#0f380f" fill-opacity="0.3202286105063876" transform="rotate(3.407527976142452 16.418357015029216 8.709858542564476)" /><rect x="56.214018147152004%" y="59.55676715869911%" width="3.0880458926454892%" height="6.177197813401798%" fill="#0f380f" fill-opacity="0.1770931720282472" transform="rotate(6.360198554504841 56.214018147152004 59.55676715869911)" /><rect x="76.37123256621786%" y="77.58282220294991%" width="2.9083355328556006%" height="5.132014308348795%" fill="#0f380f" fill-opacity="0.1351823580862165" transform="rotate(9.484321836611063 76.37123256621786 77.58282220294991)" /><rect x="53.516857995999025%" y="50.83190138830026%" width="5.870764263966347%" height="16.102913461225995%" fill="#0f380f" fill-opacity="0.22624934409246217" transform="rotate(-7.872400296679858 53.516857995999025 50.83190138830026)" /><rect x="14.98527931341307%" y="90.8905486476998%" width="2.7008789433876905%" height="21.120284116252435%" fill="#0f380f" fill-opacity="0.24234449809618075" transform="rotate(1.1525374081126731 14.98527931341307 90.8905486476998)" /><rect x="68.73062067974477%" y="68.60783764007822%" width="10.526873412050556%" height="20.4194466835601%" fill="#0f380f" fill-opacity="0.33809825762577383" transform="rotate(9.677750967207452 68.73062067974477 68.60783764007822)" /><rect x="95.71568694763468%" y="75.23904808123852%" width="11.063460666561932%" height="12.201901569124903%" fill="#0f380f" fill-opacity="0.3613491327285647" transform="rotate(-2.138228786285743 95.71568694763468 75.23904808123852)" /><rect x="7.821672844246574%" y="88.51328577135872%" width="4.078715281849749%" height="20.218570431583956%" fill="#0f380f" fill-opacity="0.26728470827478057" transform="rotate(7.633473107368275 7.821672844246574 88.51328577135872)" /><rect x="68.94714681179697%" y="3.89271195806975%" width="4.067279282970324%" height="9.798314575464126%" fill="#0f380f" fill-opacity="0.13817055799307565" transform="rotate(-8.198227780762766 68.94714681179697 3.89271195806975)" /><rect x="80.1572081956184%" y="63.3104380308525%" width="8.263907921891212%" height="18.910688611451718%" fill="#0f380f" fill-opacity="0.1909228577881122" transform="rotate(3.9362533202351244 80.1572081956184 63.3104380308525)" /><rect x="72.21410605897452%" y="21.64116193792517%" width="8.553453395537009%" height="17.290296684473997%" fill="#0f380f" fill-opacity="0.2411458943361459" transform="rotate(2.547228985772932 72.21410605897452 21.64116193792517)" /><rect x="12.882923710566008%" y="91.00729714172897%" width="7.816787913954302%" height="19.013633274500684%" fill="#0f380f" fill-opacity="0.26300655631556297" transform="rotate(1.118239668091924 12.882923710566008 91.00729714172897)" /><rect x="94.29562036766394%" y="95.50778322343959%" width="11.717304696554955%" height="7.2716404654455395%" fill="#0f380f" fill-opacity="0.22871880047438142" transform="rotate(-9.012695584399113 94.29562036766394 95.50778322343959)" /><rect x="6.75367639598341%" y="3.461040053855946%" width="5.9571279140965725%" height="21.915609138830433%" fill="#0f380f" fill-opacity="0.3894825682238544" transform="rotate(7.584411637797302 6.75367639598341 3.461040053855946)" /><rect x="52.88447818905062%" y="66.28573908382138%" width="9.978440387756523%" height="23.6147512103491%" fill="#0f380f" fill-opacity="0.277944280249959" transform="rotate(-9.544755254761636 52.88447818905062 66.28573908382138)" /><rect x="73.78341178005086%" y="61.21723826618417%" width="4.568492151716047%" height="6.631273716584429%" fill="#0f380f" fill-opacity="0.10894188841382979" transform="rotate(7.6027058257289255 73.78341178005086 61.21723826618417)" /><rect x="40.180951365146456%" y="53.78222531336202%" width="10.266591117387419%" height="21.03630683802271%" fill="#0f380f" fill-opacity="0.18702081431866438" transform="rotate(3.4314422023584683 40.180951365146456 53.78222531336202)" /><rect x="42.188126485736944%" y="36.965305791404724%" width="4.531427677824036%" height="10.971715725633373%" fill="#0f380f" fill-opacity="0.3369683419161702" transform="rotate(6.350029325153301 42.188126485736944 36.965305791404724)" /><rect x="97.93785669785451%" y="50.496252380690954%" width="10.125168885973302%" height="20.963431867456233%" fill="#0f380f" fill-opacity="0.3742350564809689" transform="rotate(6.853396761519001 97.93785669785451 50.496252380690954)" /><rect x="21.704149719639744%" y="14.29030619256536%" width="4.478149144254068%" height="11.05959972794416%" fill="#0f380f" fill-opacity="0.31434382554631835" transform="rotate(4.474244734639994 21.704149719639744 14.29030619256536)" /><rect x="74.69374763793978%" y="42.30804938078744%" width="4.799356676732659%" height="16.41989642559557%" fill="#0f380f" fill-opacity="0.1946036048114231" transform="rotate(-0.12926164262348117 74.69374763793978 42.30804938078744)" /><rect x="5.413736553227966%" y="0.8195333929862936%" width="11.657183852899799%" height="15.194007077789893%" fill="#0f380f" fill-opacity="0.11923617345650399" transform="rotate(-4.0815213898738145 5.413736553227966 0.8195333929862936)" /><rect x="51.30177554648515%" y="19.643676041826275%" width="7.775985879614929%" height="12.16447586313516%" fill="#0f380f" fill-opacity="0.3173231759724703" transform="rotate(5.778098508732235 51.30177554648515 19.643676041826275)" /><rect x="85.23341020154302%" y="37.52407374721698%" width="10.176470303084953%" height="16.236465559828847%" fill="#0f380f" fill-opacity="0.30193410927820175" transform="rotate(7.963027417996212 85.23341020154302 37.52407374721698)" /><rect x="85.95525723496112%" y="41.15045446648988%" width="5.855005315918772%" height="16.22775677938732%" fill="#0f380f" fill-opacity="0.22051202819912502" transform="rotate(-7.996554516510724 85.95525723496112 41.15045446648988)" /><rect x="90.52178379184174%" y="60.54873937282478%" width="10.847181344203728%" height="5.097321199828215%" fill="#0f380f" fill-opacity="0.301418529167298" transform="rotate(5.890997366282404 90.52178379184174 60.54873937282478)" /><rect x="49.98550561461038%" y="27.545153446176084%" width="9.994667244433387%" height="12.093603172331843%" fill="#0f380f" fill-opacity="0.38893289727908287" transform="rotate(4.923820675039302 49.98550561461038 27.545153446176084)" /><rect x="64.60870415574776%" y="54.44799144762681%" width="2.9229317011782467%" height="24.962044686558606%" fill="#0f380f" fill-opacity="0.38623640933771797" transform="rotate(4.148930896549013 64.60870415574776 54.44799144762681)" /><rect x="3.8876328925818826%" y="0.6775380262094788%" width="8.825110686908468%" height="17.897393797301525%" fill="#0f380f" fill-opacity="0.17219602626810393" transform="rotate(6.0374768617678285 3.8876328925818826 0.6775380262094788)" /><rect x="3.936922307284918%" y="46.18738523836156%" width="5.382724722332339%" height="11.600178376511053%" fill="#0f380f" fill-opacity="0.16370654842972746" transform="rotate(8.71244562452809 3.936922307284918 46.18738523836156)" /><rect x="23.706470681679846%" y="75.78836759502636%" width="10.371678781189956%" height="12.062464488637223%" fill="#0f380f" fill-opacity="0.24101606445242643" transform="rotate(-3.996259133192172 23.706470681679846 75.78836759502636)" /><rect x="66.14300747733235%" y="56.11202019201035%" width="6.913512893249958%" height="24.173030918715494%" fill="#0f380f" fill-opacity="0.3454269296211743" transform="rotate(5.4063865655853185 66.14300747733235 56.11202019201035)" /><rect x="62.7049768743163%" y="60.790085707163854%" width="9.197269812917016%" height="13.248890138148067%" fill="#0f380f" fill-opacity="0.2727992150880011" transform="rotate(5.356009587977898 62.7049768743163 60.790085707163854)" /><rect x="19.11501172382939%" y="47.9660815870059%" width="4.194331223306152%" height="6.075621388279173%" fill="#0f380f" fill-opacity="0.18759359708166082" transform="rotate(3.2418416256214844 19.11501172382939 47.9660815870059)" /><rect x="49.40520067384697%" y="80.31981115252854%" width="4.387896248935548%" height="7.022638110085304%" fill="#0f380f" fill-opacity="0.3073314873756889" transform="rotate(-7.452543884707659 49.40520067384697 80.31981115252854)" /><rect x="96.41521454998721%" y="32.962542873261036%" width="9.25432646936246%" height="6.769366221926134%" fill="#0f380f" fill-opacity="0.3250721133021512" transform="rotate(-9.330005960323442 96.41521454998721 32.962542873261036)" /><rect x="83.091033816573%" y="64.25083244083064%" width="4.412903667589753%" height="13.801519657382272%" fill="#0f380f" fill-opacity="0.18114458438843273" transform="rotate(-9.571606657217519 83.091033816573 64.25083244083064)" /><rect x="32.83354138409782%" y="91.75949970115309%" width="5.304924864518438%" height="9.870125056862168%" fill="#0f380f" fill-opacity="0.23323659088738438" transform="rotate(-7.278088506405993 32.83354138409782 91.75949970115309)" />
    <text x="50%" y="50%" font-family="monospace" font-size="24" fill="#2e5c2e" opacity="0.4" 
          text-anchor="middle" dominant-baseline="middle" 
          transform="rotate(90, 100, 100)">ROTATE</text>
    <!-- Add more noise on top -->
    <rect x="0" y="0" width="100%" height="100%" fill="url(#noise)" opacity="0.2"/>
    <defs>
        <filter id="noise">
            <feTurbulence type="fractalNoise" baseFrequency="0.8" numOctaves="3" stitchTiles="stitch"/>
        </filter>
    </defs>
</svg>