
<svg width="200" height="200" viewBox="0 0 200 200" xmlns="http://www.w3.org/2000/svg">
    <rect width="100%" height="100%" fill="#1a2f1a" />
    <rect x="26.709992114514456%" y="8.631134410994035%" width="6.178563619509694%" height="18.961417212443845%" fill="#0f380f" fill-opacity="0.24621574793055745" transform="rotate(8.84449779304611 26.709992114514456 8.631134410994035)" /><rect x="95.06067627412949%" y="98.70719904428033%" width="6.555932857539079%" height="22.423215723442482%" fill="#0f380f" fill-opacity="0.18588336299969188" transform="rotate(3.6902313813891645 95.06067627412949 98.70719904428033)" /><rect x="23.201773924000058%" y="62.49576861243183%" width="4.8964232594640364%" height="22.249713028557373%" fill="#0f380f" fill-opacity="0.21898121657963984" transform="rotate(-6.042801030757181 23.201773924000058 62.49576861243183)" /><rect x="93.45408343344708%" y="68.07146611897427%" width="8.79829232140327%" height="18.252650889637664%" fill="#0f380f" fill-opacity="0.15378577108131666" transform="rotate(3.3676604867110083 93.45408343344708 68.07146611897427)" /><rect x="59.26565012316408%" y="31.717257833468302%" width="5.313242878569337%" height="14.42934391385334%" fill="#0f380f" fill-opacity="0.2313447843024405" transform="rotate(3.9752762975896125 59.26565012316408 31.717257833468302)" /><rect x="7.999895072900076%" y="66.19600131789805%" width="10.364309571569619%" height="14.845108998203404%" fill="#0f380f" fill-opacity="0.3658672199096421" transform="rotate(-0.1256873947734487 7.999895072900076 66.19600131789805)" /><rect x="69.40816850777287%" y="43.75081955433669%" width="5.657589685424144%" height="18.91855388452992%" fill="#0f380f" fill-opacity="0.22620785891381465" transform="rotate(-1.2516052427225262 69.40816850777287 43.75081955433669)" /><rect x="12.570180203651704%" y="94.17674237644158%" width="11.769461355810574%" height="14.672580815443785%" fill="#0f380f" fill-opacity="0.39002198446518577" transform="rotate(0.6760859869416969 12.570180203651704 94.17674237644158)" /><rect x="71.36916860170197%" y="18.373466334420108%" width="5.079362918686483%" height="12.20213947767164%" fill="#0f380f" fill-opacity="0.357867210210453" transform="rotate(-6.85548387367013 71.36916860170197 18.373466334420108)" /><rect x="79.64115440078858%" y="79.31180190497189%" width="8.836812123325672%" height="24.449242623487365%" fill="#0f380f" fill-opacity="0.11539921837256717" transform="rotate(-0.3737770125720665 79.64115440078858 79.31180190497189)" /><rect x="16.529242520407205%" y="78.7224721571023%" width="4.4662969864672775%" height="8.28043158334249%" fill="#0f380f" fill-opacity="0.28031934895705046" transform="rotate(1.1530548229350561 16.529242520407205 78.7224721571023)" /><rect x="88.95751185013043%" y="37.625516074161446%" width="9.158488280418599%" height="15.132299276390807%" fill="#0f380f" fill-opacity="0.3243295384966314" transform="rotate(7.4271103907524925 88.95751185013043 37.625516074161446)" /><rect x="54.7381511128485%" y="52.598069123374124%" width="7.137169999168947%" height="8.176420159148039%" fill="#0f380f" fill-opacity="0.33295559034042277" transform="rotate(9.878511578428633 54.7381511128485 52.598069123374124)" /><rect x="18.114830130006045%" y="73.66470604808539%" width="10.603686460011%" height="10.232689699030624%" fill="#0f380f" fill-opacity="0.3293212663030314" transform="rotate(-1.3351370418692845 18.114830130006045 73.66470604808539)" /><rect x="88.80643016282423%" y="67.2496930509964%" width="2.6838492999923984%" height="18.482749622688466%" fill="#0f380f" fill-opacity="0.38364930065813774" transform="rotate(-2.8971528592649403 88.80643016282423 67.2496930509964)" /><rect x="75.34296997003915%" y="41.03708206750556%" width="10.102090836169046%" height="16.42880488355903%" fill="#0f380f" fill-opacity="0.17531371527251627" transform="rotate(-4.410034217863423 75.34296997003915 41.03708206750556)" /><rect x="98.36015682757811%" y="13.182766642302079%" width="5.263838933775309%" height="15.995781408139585%" fill="#0f380f" fill-opacity="0.24070445249789735" transform="rotate(-9.157955661324165 98.36015682757811 13.182766642302079)" /><rect x="18.459336347556654%" y="8.27988612962537%" width="9.043055958321174%" height="22.012773684553665%" fill="#0f380f" fill-opacity="0.34594983110650274" transform="rotate(-8.685109382809399 18.459336347556654 8.27988612962537)" /><rect x="6.646940865981643%" y="75.6548494329145%" width="8.547937947506359%" height="12.122519585776704%" fill="#0f380f" fill-opacity="0.13424540334834423" transform="rotate(-6.112488584452032 6.646940865981643 75.6548494329145)" /><rect x="5.035556858559509%" y="84.84524358403999%" width="2.940502648080667%" height="8.470732991518888%" fill="#0f380f" fill-opacity="0.11863052485570905" transform="rotate(2.880026170326941 5.035556858559509 84.84524358403999)" /><rect x="70.68184762228564%" y="78.73983205020971%" width="11.701016569602674%" height="10.920122806471195%" fill="#0f380f" fill-opacity="0.22583604506138405" transform="rotate(-0.2221361030283191 70.68184762228564 78.73983205020971)" /><rect x="59.00662547351856%" y="61.296296722849696%" width="11.814092996364586%" height="20.27016077787142%" fill="#0f380f" fill-opacity="0.3166075290113658" transform="rotate(-9.330200076180786 59.00662547351856 61.296296722849696)" /><rect x="6.9588736435708505%" y="39.56177812167849%" width="4.747307060114931%" height="7.565162217011192%" fill="#0f380f" fill-opacity="0.25485665388124856" transform="rotate(5.661843833863323 6.9588736435708505 39.56177812167849)" /><rect x="72.27613876358198%" y="6.278257138346088%" width="4.395078634223221%" height="20.40690638560258%" fill="#0f380f" fill-opacity="0.21792870565805716" transform="rotate(7.790322919744131 72.27613876358198 6.278257138346088)" /><rect x="74.21349561381196%" y="26.830853283931187%" width="8.594801328621738%" height="9.039222894339394%" fill="#0f380f" fill-opacity="0.3739905636777897" transform="rotate(8.601649295453655 74.21349561381196 26.830853283931187)" /><rect x="3.2274134262204157%" y="2.7354464564699255%" width="5.158344475544705%" height="20.454939771757612%" fill="#0f380f" fill-opacity="0.26486877562291744" transform="rotate(-3.4276053564522986 3.2274134262204157 2.7354464564699255)" /><rect x="99.04250079350454%" y="93.3493051367123%" width="6.103403661738532%" height="20.53075851166868%" fill="#0f380f" fill-opacity="0.3081004423543865" transform="rotate(6.164838613177366 99.04250079350454 93.3493051367123)" /><rect x="63.74941898068547%" y="17.834725996769794%" width="3.6431768449914728%" height="18.123084607110705%" fill="#0f380f" fill-opacity="0.36087223265195356" transform="rotate(4.017562363635953 63.74941898068547 17.834725996769794)" /><rect x="93.54545485859012%" y="23.32032209493947%" width="3.970162273592736%" height="17.378396016322426%" fill="#0f380f" fill-opacity="0.3212254190139523" transform="rotate(4.610904694563271 93.54545485859012 23.32032209493947)" /><rect x="18.547596443605517%" y="62.74091251615433%" width="11.864234269493936%" height="10.808842389436757%" fill="#0f380f" fill-opacity="0.3615991859561605" transform="rotate(-5.044003333356219 18.547596443605517 62.74091251615433)" /><rect x="66.08157500153395%" y="65.83862597048883%" width="2.8933926721835106%" height="19.258835397848404%" fill="#0f380f" fill-opacity="0.16323839132711215" transform="rotate(-2.401919642403061 66.08157500153395 65.83862597048883)" /><rect x="51.095865223354764%" y="5.028950391164466%" width="11.452432989689578%" height="11.512493327934239%" fill="#0f380f" fill-opacity="0.3268267054794879" transform="rotate(2.862614194478706 51.095865223354764 5.028950391164466)" /><rect x="78.54118751625772%" y="90.10290555253812%" width="8.297678418949832%" height="21.86091318960575%" fill="#0f380f" fill-opacity="0.3736516459977016" transform="rotate(9.10134265354182 78.54118751625772 90.10290555253812)" /><rect x="47.91366343049975%" y="35.46731267641229%" width="7.999124915991003%" height="11.844793751566055%" fill="#0f380f" fill-opacity="0.10897466377111764" transform="rotate(6.858149841334534 47.91366343049975 35.46731267641229)" /><rect x="61.23551487169436%" y="89.06830172207904%" width="2.86630515255516%" height="7.990700792623104%" fill="#0f380f" fill-opacity="0.18661730794881148" transform="rotate(7.130712763606645 61.23551487169436 89.06830172207904)" /><rect x="22.14408712974153%" y="60.48155394982133%" width="11.562480853229836%" height="12.425768832523694%" fill="#0f380f" fill-opacity="0.264892488269881" transform="rotate(-2.3823077769934713 22.14408712974153 60.48155394982133)" /><rect x="72.22047251833104%" y="15.41109076068542%" width="3.5708455054728154%" height="11.663385276330807%" fill="#0f380f" fill-opacity="0.31197035745011636" transform="rotate(-3.205545625411803 72.22047251833104 15.41109076068542)" /><rect x="71.82858390594141%" y="42.19302596073538%" width="10.824117453911681%" height="7.40517991766616%" fill="#0f380f" fill-opacity="0.1164549926038542" transform="rotate(-9.937791675029287 71.82858390594141 42.19302596073538)" /><rect x="32.845656333074714%" y="20.240752727603795%" width="8.465756605621781%" height="9.514881815961058%" fill="#0f380f" fill-opacity="0.38603707817646327" transform="rotate(-2.9455051610488514 32.845656333074714 20.240752727603795)" /><rect x="92.96255426639578%" y="59.556104976434256%" width="4.907351552874236%" height="13.5391038594992%" fill="#0f380f" fill-opacity="0.3333899810963159" transform="rotate(-4.601204549010394 92.96255426639578 59.556104976434256)" /><rect x="6.36609282778422%" y="65.89434137103586%" width="5.89412028388131%" height="20.193080990314876%" fill="#0f380f" fill-opacity="0.2467634628930258" transform="rotate(0.28671559818042525 6.36609282778422 65.89434137103586)" /><rect x="70.61555731663009%" y="70.55515665306476%" width="9.958609815178761%" height="6.791873963563813%" fill="#0f380f" fill-opacity="0.11420010867975837" transform="rotate(-1.7294253113284803 70.61555731663009 70.55515665306476)" /><rect x="25.811924405414246%" y="6.727447870421455%" width="7.044010663636417%" height="5.513282125287269%" fill="#0f380f" fill-opacity="0.1297205263098497" transform="rotate(0.28323080788948474 25.811924405414246 6.727447870421455)" /><rect x="67.72979756927971%" y="68.49673397835197%" width="9.475685762943067%" height="9.720776494054926%" fill="#0f380f" fill-opacity="0.27399143308262774" transform="rotate(5.293623021224299 67.72979756927971 68.49673397835197)" /><rect x="7.563176979527675%" y="25.19635633188472%" width="3.465637042878052%" height="20.63379210512268%" fill="#0f380f" fill-opacity="0.3711805954963552" transform="rotate(0.027095518757898063 7.563176979527675 25.19635633188472)" /><rect x="57.07671591908301%" y="43.80988340748605%" width="10.30099250531747%" height="16.023867518999367%" fill="#0f380f" fill-opacity="0.23836798139859328" transform="rotate(4.416204128011865 57.07671591908301 43.80988340748605)" /><rect x="4.14567906581752%" y="71.71797778040346%" width="3.900913182989555%" height="13.509068301429368%" fill="#0f380f" fill-opacity="0.2187559922810689" transform="rotate(-3.796769912783315 4.14567906581752 71.71797778040346)" /><rect x="2.0605228591063396%" y="88.48603557104053%" width="8.553300917213557%" height="18.68938426010552%" fill="#0f380f" fill-opacity="0.19443168683393924" transform="rotate(-4.578543353971183 2.0605228591063396 88.48603557104053)" /><rect x="34.67411162380479%" y="98.34619641281314%" width="11.35547268251813%" height="6.777238873603051%" fill="#0f380f" fill-opacity="0.15658108426260123" transform="rotate(-7.60708994846957 34.67411162380479 98.34619641281314)" /><rect x="66.88677695705792%" y="79.90547982435417%" width="8.847396832874573%" height="15.622670391955946%" fill="#0f380f" fill-opacity="0.3054908107843215" transform="rotate(0.7584729892261048 66.88677695705792 79.90547982435417)" />
    <text x="50%" y="50%" font-family="monospace" font-size="24" fill="#2e5c2e" opacity="0.4" 
          text-anchor="middle" dominant-baseline="middle" 
          transform="rotate(90, 100, 100)">ROTATE</text>
    <!-- Add more noise on top -->
    <rect x="0" y="0" width="100%" height="100%" fill="url(#noise)" opacity="0.2"/>
    <defs>
        <filter id="noise">
            <feTurbulence type="fractalNoise" baseFrequency="0.8" numOctaves="3" stitchTiles="stitch"/>
        </filter>
    </defs>
</svg>