
<svg width="200" height="200" viewBox="0 0 200 200" xmlns="http://www.w3.org/2000/svg">
    <rect width="100%" height="100%" fill="#1a2f1a" />
    <rect x="56.21274664837864%" y="33.69449986074543%" width="10.090980157811742%" height="17.402820658274955%" fill="#0f380f" fill-opacity="0.20056775929663054" transform="rotate(-8.010266471665027 56.21274664837864 33.69449986074543)" /><rect x="21.362131556348206%" y="73.4322140059769%" width="9.675561053577253%" height="18.834554688916374%" fill="#0f380f" fill-opacity="0.2367438795777451" transform="rotate(8.689630428542191 21.362131556348206 73.4322140059769)" /><rect x="92.97617029198423%" y="72.73224271179929%" width="5.842506662103614%" height="17.892419075724575%" fill="#0f380f" fill-opacity="0.11959574854282111" transform="rotate(-7.368160299466718 92.97617029198423 72.73224271179929)" /><rect x="44.00350161285511%" y="49.16001766970012%" width="8.859204335630498%" height="18.699814054202324%" fill="#0f380f" fill-opacity="0.21972341783078353" transform="rotate(-6.809051319358542 44.00350161285511 49.16001766970012)" /><rect x="31.42527483925779%" y="15.711776193737926%" width="2.0833064057911956%" height="12.0210205370412%" fill="#0f380f" fill-opacity="0.30134448784228046" transform="rotate(0.7828199122549293 31.42527483925779 15.711776193737926)" /><rect x="92.58116245411418%" y="54.06312855814479%" width="7.966167449312122%" height="14.061892937283414%" fill="#0f380f" fill-opacity="0.1716700138188454" transform="rotate(0.10575010951208341 92.58116245411418 54.06312855814479)" /><rect x="97.8065761768126%" y="77.06222229158172%" width="4.309731263756756%" height="21.749978438032556%" fill="#0f380f" fill-opacity="0.15471601839660412" transform="rotate(-5.631504512989216 97.8065761768126 77.06222229158172)" /><rect x="14.679851979383862%" y="35.51314215143595%" width="9.649024411474004%" height="21.313768121543976%" fill="#0f380f" fill-opacity="0.19420433985820476" transform="rotate(-5.1945740245856875 14.679851979383862 35.51314215143595)" /><rect x="81.2028364278449%" y="16.403947566408682%" width="6.72844674752656%" height="12.419667374735033%" fill="#0f380f" fill-opacity="0.3692837271243049" transform="rotate(1.854682383567532 81.2028364278449 16.403947566408682)" /><rect x="9.844391573123856%" y="43.30069871343628%" width="8.66953666760202%" height="16.58532932569397%" fill="#0f380f" fill-opacity="0.30647961703662363" transform="rotate(-7.9057258487430015 9.844391573123856 43.30069871343628)" /><rect x="62.717998514226316%" y="19.066733613650268%" width="8.35907077484797%" height="15.09682196397314%" fill="#0f380f" fill-opacity="0.15080057503842043" transform="rotate(5.076495209876818 62.717998514226316 19.066733613650268)" /><rect x="38.862497027683816%" y="37.72358610669044%" width="11.820825751953855%" height="11.588433751703114%" fill="#0f380f" fill-opacity="0.3608303228878047" transform="rotate(-4.903455265024814 38.862497027683816 37.72358610669044)" /><rect x="5.292851577528934%" y="0.01697897603523124%" width="7.923641445746332%" height="15.756953043097095%" fill="#0f380f" fill-opacity="0.15576853251745232" transform="rotate(5.475195350154182 5.292851577528934 0.01697897603523124)" /><rect x="66.04366603166399%" y="17.6435143769733%" width="9.028491757029407%" height="16.582005126131733%" fill="#0f380f" fill-opacity="0.23149724042382708" transform="rotate(1.6290937441107545 66.04366603166399 17.6435143769733)" /><rect x="52.51729947594501%" y="13.760700149888683%" width="5.299496105106236%" height="13.46645142021771%" fill="#0f380f" fill-opacity="0.32077353656817736" transform="rotate(6.999418825642337 52.51729947594501 13.760700149888683)" /><rect x="80.97973664950366%" y="92.02256190087601%" width="11.061469748342821%" height="15.83089954017616%" fill="#0f380f" fill-opacity="0.3746315071833529" transform="rotate(-2.2646307574211377 80.97973664950366 92.02256190087601)" /><rect x="40.49731413642546%" y="30.432001188633972%" width="4.124449145801766%" height="14.060442526692817%" fill="#0f380f" fill-opacity="0.3087884414510933" transform="rotate(-4.064777994820449 40.49731413642546 30.432001188633972)" /><rect x="91.67691559470096%" y="80.16815690548033%" width="2.5304290825422244%" height="9.981265062734101%" fill="#0f380f" fill-opacity="0.17332229792767728" transform="rotate(-3.1676451288748915 91.67691559470096 80.16815690548033)" /><rect x="54.67306236159827%" y="50.08440449418408%" width="11.742062029623593%" height="19.30641843288787%" fill="#0f380f" fill-opacity="0.11073324484584054" transform="rotate(-0.049737082639250474 54.67306236159827 50.08440449418408)" /><rect x="13.244323039956296%" y="19.067268746774346%" width="9.699566875595085%" height="9.174999600684853%" fill="#0f380f" fill-opacity="0.18899253843458735" transform="rotate(8.545471614994327 13.244323039956296 19.067268746774346)" /><rect x="44.02153296993742%" y="42.20989876755369%" width="3.4236834310043256%" height="20.410963420233195%" fill="#0f380f" fill-opacity="0.22718643737799377" transform="rotate(7.08579886209948 44.02153296993742 42.20989876755369)" /><rect x="61.03677947461996%" y="38.4451763982523%" width="2.4194569056371455%" height="8.769937386641327%" fill="#0f380f" fill-opacity="0.39736137789560566" transform="rotate(9.251242238856253 61.03677947461996 38.4451763982523)" /><rect x="89.63162165590305%" y="14.72502805411564%" width="3.4693032454592467%" height="20.266603857983732%" fill="#0f380f" fill-opacity="0.2776140729049272" transform="rotate(-0.6527134462925979 89.63162165590305 14.72502805411564)" /><rect x="60.58004475792013%" y="10.82460838496866%" width="4.839820124517364%" height="8.814686274521243%" fill="#0f380f" fill-opacity="0.13965389789715882" transform="rotate(4.759682844523871 60.58004475792013 10.82460838496866)" /><rect x="18.406590174116555%" y="2.667350561782833%" width="6.827735807593431%" height="13.371613234457287%" fill="#0f380f" fill-opacity="0.39110307369961905" transform="rotate(-6.202960872538037 18.406590174116555 2.667350561782833)" /><rect x="95.4082159697596%" y="24.72795228992385%" width="7.771454986181974%" height="18.43604094381889%" fill="#0f380f" fill-opacity="0.34046014400104385" transform="rotate(-3.27897741644267 95.4082159697596 24.72795228992385)" /><rect x="75.1095933580904%" y="55.1100982040452%" width="11.842795984200123%" height="19.196285636683623%" fill="#0f380f" fill-opacity="0.34558168498907277" transform="rotate(-0.6600640372413515 75.1095933580904 55.1100982040452)" /><rect x="27.228902450919033%" y="95.66143485082348%" width="8.834855227073637%" height="19.858212212094962%" fill="#0f380f" fill-opacity="0.18154113291716903" transform="rotate(3.351784510189198 27.228902450919033 95.66143485082348)" /><rect x="78.57212006761061%" y="87.1007411377379%" width="2.2618528223557917%" height="17.765804484109186%" fill="#0f380f" fill-opacity="0.2153449575997618" transform="rotate(-1.6824682477086572 78.57212006761061 87.1007411377379)" /><rect x="8.13894405990464%" y="22.883919077520922%" width="6.243908239954173%" height="20.285581551368658%" fill="#0f380f" fill-opacity="0.24503450981586433" transform="rotate(4.600558304511914 8.13894405990464 22.883919077520922)" /><rect x="26.400619871458332%" y="60.27451023601985%" width="10.653935214141129%" height="11.792340438947978%" fill="#0f380f" fill-opacity="0.1878759177676912" transform="rotate(-1.885155478253857 26.400619871458332 60.27451023601985)" /><rect x="43.933598573895885%" y="68.98673359496911%" width="8.62191916909247%" height="23.57760657401184%" fill="#0f380f" fill-opacity="0.24421441248176168" transform="rotate(-4.262805285800462 43.933598573895885 68.98673359496911)" /><rect x="95.87713214817582%" y="38.95830957449372%" width="7.469015961430975%" height="20.654178037289373%" fill="#0f380f" fill-opacity="0.20395941284490854" transform="rotate(9.410380631854196 95.87713214817582 38.95830957449372)" /><rect x="74.1497649387744%" y="81.66588045160843%" width="9.559209676809935%" height="24.271542785880026%" fill="#0f380f" fill-opacity="0.24639036521744867" transform="rotate(-9.735544834789003 74.1497649387744 81.66588045160843)" /><rect x="12.334232037122561%" y="32.54294766786301%" width="9.473773898241074%" height="15.246585451066538%" fill="#0f380f" fill-opacity="0.20149201456039792" transform="rotate(-6.000287770241779 12.334232037122561 32.54294766786301)" /><rect x="96.1500474975444%" y="82.02964164815147%" width="10.166280942178703%" height="24.791853405969626%" fill="#0f380f" fill-opacity="0.1249405106168818" transform="rotate(-8.264222162175587 96.1500474975444 82.02964164815147)" /><rect x="14.363529148036825%" y="74.60488733187691%" width="2.773422168362675%" height="14.984499988963647%" fill="#0f380f" fill-opacity="0.2208557978917726" transform="rotate(-8.033740503909447 14.363529148036825 74.60488733187691)" /><rect x="20.106176168092947%" y="87.42780636593488%" width="4.0879552972393345%" height="12.594758380064954%" fill="#0f380f" fill-opacity="0.2805936624811629" transform="rotate(-8.853249647650214 20.106176168092947 87.42780636593488)" /><rect x="23.75253031366177%" y="83.78245700594981%" width="9.73137233849366%" height="13.938508946385564%" fill="#0f380f" fill-opacity="0.3158259532900175" transform="rotate(6.064262463381716 23.75253031366177 83.78245700594981)" /><rect x="44.71608436681361%" y="4.597541137461658%" width="5.071757811686085%" height="20.015298177753873%" fill="#0f380f" fill-opacity="0.2974742823387451" transform="rotate(3.9205690717091812 44.71608436681361 4.597541137461658)" /><rect x="97.70009371872507%" y="25.12447873084529%" width="11.115590244011589%" height="14.05187333784905%" fill="#0f380f" fill-opacity="0.13661378105948344" transform="rotate(-8.718975814742267 97.70009371872507 25.12447873084529)" /><rect x="39.98502981983061%" y="7.349150111500002%" width="8.293170254613326%" height="18.52983503502238%" fill="#0f380f" fill-opacity="0.2852037991736065" transform="rotate(6.862306342902315 39.98502981983061 7.349150111500002)" /><rect x="7.344738909400306%" y="24.221777687952795%" width="6.847901243914203%" height="11.545255350558874%" fill="#0f380f" fill-opacity="0.28744090872603345" transform="rotate(9.493990444531033 7.344738909400306 24.221777687952795)" /><rect x="65.01064003015496%" y="13.047093085710614%" width="9.046742203512448%" height="8.57122534631352%" fill="#0f380f" fill-opacity="0.3680974658228666" transform="rotate(9.317346198496487 65.01064003015496 13.047093085710614)" /><rect x="1.7617355579711558%" y="68.6425132896041%" width="11.077457503177559%" height="19.704036674721138%" fill="#0f380f" fill-opacity="0.17678785628954335" transform="rotate(-2.9592116951425362 1.7617355579711558 68.6425132896041)" /><rect x="0.049640039165788075%" y="47.346069060469716%" width="6.926058086846787%" height="8.617160705740554%" fill="#0f380f" fill-opacity="0.1395953575547266" transform="rotate(2.145551638223866 0.049640039165788075 47.346069060469716)" /><rect x="25.4491446352768%" y="89.48931988689395%" width="8.158005267291873%" height="19.3575473078934%" fill="#0f380f" fill-opacity="0.2620957836779504" transform="rotate(-8.12934120748503 25.4491446352768 89.48931988689395)" /><rect x="90.14784672265193%" y="92.68117083510974%" width="6.6386104693260535%" height="12.329642234166254%" fill="#0f380f" fill-opacity="0.22095723026675307" transform="rotate(2.236985324579619 90.14784672265193 92.68117083510974)" /><rect x="7.218395636208119%" y="69.20574009171328%" width="4.896320714881709%" height="23.41301456676861%" fill="#0f380f" fill-opacity="0.11879780388010436" transform="rotate(-9.359641190690775 7.218395636208119 69.20574009171328)" /><rect x="63.94910493645648%" y="81.10328186748012%" width="4.4532584236281165%" height="13.7799346557625%" fill="#0f380f" fill-opacity="0.32156827278548483" transform="rotate(7.730827774076115 63.94910493645648 81.10328186748012)" />
    <text x="50%" y="50%" font-family="monospace" font-size="24" fill="#2e5c2e" opacity="0.4" 
          text-anchor="middle" dominant-baseline="middle" 
          transform="rotate(90, 100, 100)">ROTATE</text>
    <!-- Add more noise on top -->
    <rect x="0" y="0" width="100%" height="100%" fill="url(#noise)" opacity="0.2"/>
    <defs>
        <filter id="noise">
            <feTurbulence type="fractalNoise" baseFrequency="0.8" numOctaves="3" stitchTiles="stitch"/>
        </filter>
    </defs>
</svg>