
<svg width="200" height="200" viewBox="0 0 200 200" xmlns="http://www.w3.org/2000/svg">
    <rect width="100%" height="100%" fill="#1a2f1a" />
    <rect x="98.20962652157755%" y="66.25276502843171%" width="7.55684073218165%" height="22.378964365101265%" fill="#0f380f" fill-opacity="0.37307322228576767" transform="rotate(-3.578392516176936 98.20962652157755 66.25276502843171)" /><rect x="7.748647447790368%" y="40.194751648662304%" width="10.222813195044608%" height="14.330820469492451%" fill="#0f380f" fill-opacity="0.2021819692393786" transform="rotate(-3.6930812812231695 7.748647447790368 40.194751648662304)" /><rect x="25.385085095901406%" y="16.04002980914897%" width="5.023853472454069%" height="8.149281257410124%" fill="#0f380f" fill-opacity="0.15229339437418796" transform="rotate(4.28070472652437 25.385085095901406 16.04002980914897)" /><rect x="18.53510984943767%" y="22.77490664085321%" width="11.605616186049664%" height="7.417470974447838%" fill="#0f380f" fill-opacity="0.14090532501361072" transform="rotate(-2.5771537135996496 18.53510984943767 22.77490664085321)" /><rect x="1.4189182906316211%" y="74.0460858295035%" width="6.496167661663692%" height="22.359750425704757%" fill="#0f380f" fill-opacity="0.377995702636999" transform="rotate(-7.705473468383097 1.4189182906316211 74.0460858295035)" /><rect x="66.40716020033491%" y="74.52645346490917%" width="11.193178413285285%" height="8.835261135185132%" fill="#0f380f" fill-opacity="0.3874172473162749" transform="rotate(2.577262862229981 66.40716020033491 74.52645346490917)" /><rect x="85.8148283357624%" y="33.793034302664225%" width="6.71308345693488%" height="13.764344137530884%" fill="#0f380f" fill-opacity="0.24147767203844364" transform="rotate(3.329094965357527 85.8148283357624 33.793034302664225)" /><rect x="5.388616022094883%" y="92.16043114314358%" width="5.836095948089949%" height="6.673811941528294%" fill="#0f380f" fill-opacity="0.37696066876720236" transform="rotate(-4.367891092062481 5.388616022094883 92.16043114314358)" /><rect x="27.280257716394118%" y="23.457744056288867%" width="2.725675128793709%" height="11.512418964612012%" fill="#0f380f" fill-opacity="0.26998445327935094" transform="rotate(5.3757739681703285 27.280257716394118 23.457744056288867)" /><rect x="52.06373708982345%" y="62.55496598952174%" width="8.353789008068983%" height="9.037340144922688%" fill="#0f380f" fill-opacity="0.3675325199925248" transform="rotate(3.6377179013893635 52.06373708982345 62.55496598952174)" /><rect x="35.274864015597615%" y="45.19532357496817%" width="6.703176401528809%" height="18.612305278993666%" fill="#0f380f" fill-opacity="0.25823332015816536" transform="rotate(-8.156351459801222 35.274864015597615 45.19532357496817)" /><rect x="58.511913071159405%" y="38.641367887494994%" width="10.362677251925561%" height="5.440258247376257%" fill="#0f380f" fill-opacity="0.2642906799250588" transform="rotate(-9.210315909854758 58.511913071159405 38.641367887494994)" /><rect x="17.126544469321882%" y="71.19061462522438%" width="2.544632152131437%" height="23.015604888492376%" fill="#0f380f" fill-opacity="0.3734706285694118" transform="rotate(9.87215982371858 17.126544469321882 71.19061462522438)" /><rect x="5.926622086119271%" y="7.456515841442036%" width="2.7977009206933863%" height="12.644711496807393%" fill="#0f380f" fill-opacity="0.2391050104529386" transform="rotate(9.590482541092445 5.926622086119271 7.456515841442036)" /><rect x="16.98975148897445%" y="62.8381662713811%" width="11.47610792334918%" height="5.678516280766777%" fill="#0f380f" fill-opacity="0.1686431915500638" transform="rotate(-4.0504682240320955 16.98975148897445 62.8381662713811)" /><rect x="18.0621426802123%" y="81.86659456959985%" width="3.209504461726848%" height="14.68132664017254%" fill="#0f380f" fill-opacity="0.27502457875955283" transform="rotate(-0.9859141911018128 18.0621426802123 81.86659456959985)" /><rect x="45.91066333006849%" y="6.430156542059162%" width="3.984607761757088%" height="19.412247191735105%" fill="#0f380f" fill-opacity="0.14870529070966174" transform="rotate(9.852098076909549 45.91066333006849 6.430156542059162)" /><rect x="80.35059096991144%" y="21.153998633723614%" width="6.167954405539465%" height="15.620367186078397%" fill="#0f380f" fill-opacity="0.2149590692511361" transform="rotate(3.9803894526043706 80.35059096991144 21.153998633723614)" /><rect x="88.87425900594191%" y="52.54224352328257%" width="9.713886054684462%" height="21.250955052407225%" fill="#0f380f" fill-opacity="0.3055169603990967" transform="rotate(-3.936635975235605 88.87425900594191 52.54224352328257)" /><rect x="28.223737073761303%" y="41.98784151267252%" width="10.138149918153196%" height="6.290785481067445%" fill="#0f380f" fill-opacity="0.21661971704750071" transform="rotate(3.486361202319614 28.223737073761303 41.98784151267252)" /><rect x="38.557764030471795%" y="60.57565608199934%" width="7.882667821118861%" height="24.074225366788284%" fill="#0f380f" fill-opacity="0.1924889388012902" transform="rotate(0.80069825944644 38.557764030471795 60.57565608199934)" /><rect x="26.410335642705352%" y="27.190262648389808%" width="6.494883367270285%" height="7.443294914443324%" fill="#0f380f" fill-opacity="0.13630696945008744" transform="rotate(0.5140722465085013 26.410335642705352 27.190262648389808)" /><rect x="44.38037769626829%" y="66.9658107871001%" width="4.75405718223233%" height="7.611259934590036%" fill="#0f380f" fill-opacity="0.3962660648722186" transform="rotate(0.06968108329245837 44.38037769626829 66.9658107871001)" /><rect x="49.23928986414956%" y="41.64154028757066%" width="7.535723684036235%" height="8.209943307846883%" fill="#0f380f" fill-opacity="0.13040125630596908" transform="rotate(6.702749479322755 49.23928986414956 41.64154028757066)" /><rect x="92.73387349033217%" y="50.56476266463547%" width="5.4457173390888896%" height="17.39123411346343%" fill="#0f380f" fill-opacity="0.180924159794827" transform="rotate(-6.1837126752323694 92.73387349033217 50.56476266463547)" /><rect x="46.12218159118853%" y="75.60448084397225%" width="9.124632606230602%" height="19.284929644462824%" fill="#0f380f" fill-opacity="0.29465190115815587" transform="rotate(8.665359003068357 46.12218159118853 75.60448084397225)" /><rect x="83.34904451321263%" y="99.9068351680596%" width="4.338519176719123%" height="11.410869565444345%" fill="#0f380f" fill-opacity="0.24966129377390414" transform="rotate(-0.27135039217969137 83.34904451321263 99.9068351680596)" /><rect x="55.249529281677724%" y="54.34865331464225%" width="6.5751374368802376%" height="10.743955892822397%" fill="#0f380f" fill-opacity="0.22383030651040944" transform="rotate(-8.758694680382522 55.249529281677724 54.34865331464225)" /><rect x="58.779930332564014%" y="5.8489989200086745%" width="5.65521522736664%" height="19.68101956419685%" fill="#0f380f" fill-opacity="0.2992418992086296" transform="rotate(-7.305557247495367 58.779930332564014 5.8489989200086745)" /><rect x="95.36165578035293%" y="10.908744376567425%" width="9.1467046124191%" height="9.517666295092884%" fill="#0f380f" fill-opacity="0.3591874118027234" transform="rotate(-9.870753536494298 95.36165578035293 10.908744376567425)" /><rect x="25.751681504908717%" y="42.76409359642671%" width="10.696316416412971%" height="21.866093615363507%" fill="#0f380f" fill-opacity="0.38899790046768656" transform="rotate(9.398424264019813 25.751681504908717 42.76409359642671)" /><rect x="77.31503002531109%" y="44.10789372841347%" width="9.231305893964015%" height="18.323014709063237%" fill="#0f380f" fill-opacity="0.20856825027596593" transform="rotate(-1.9749580269199676 77.31503002531109 44.10789372841347)" /><rect x="85.9268532084495%" y="76.39338368608473%" width="7.313640313385839%" height="5.19601174703846%" fill="#0f380f" fill-opacity="0.12857541705984338" transform="rotate(3.444959437195461 85.9268532084495 76.39338368608473)" /><rect x="44.828555300882876%" y="48.2955771251375%" width="4.609829063001782%" height="16.16328887230254%" fill="#0f380f" fill-opacity="0.1584502693917888" transform="rotate(-1.1942772594303346 44.828555300882876 48.2955771251375)" /><rect x="45.12423513561906%" y="15.494109904136765%" width="10.072620157730983%" height="21.88822315225958%" fill="#0f380f" fill-opacity="0.1022570642782527" transform="rotate(2.621754336027829 45.12423513561906 15.494109904136765)" /><rect x="47.85872525081305%" y="89.44140970460852%" width="8.20741486819091%" height="12.712157002232427%" fill="#0f380f" fill-opacity="0.3741211921499161" transform="rotate(-5.062232721472116 47.85872525081305 89.44140970460852)" /><rect x="96.39854580619298%" y="90.77782787346655%" width="10.373403292935746%" height="5.358443806520164%" fill="#0f380f" fill-opacity="0.11659922109493526" transform="rotate(5.799321537182474 96.39854580619298 90.77782787346655)" /><rect x="96.45900963770544%" y="20.747387864920785%" width="7.200707050123089%" height="20.72939647284927%" fill="#0f380f" fill-opacity="0.2702186889385088" transform="rotate(7.642564119516109 96.45900963770544 20.747387864920785)" /><rect x="64.69584503444823%" y="11.667351125337%" width="2.8822282349291566%" height="18.02479667575299%" fill="#0f380f" fill-opacity="0.32259642078761064" transform="rotate(4.136897769878596 64.69584503444823 11.667351125337)" /><rect x="62.36110435090351%" y="14.991486688080535%" width="6.643130074714481%" height="24.37604584493337%" fill="#0f380f" fill-opacity="0.16409591628757936" transform="rotate(1.3655337671084702 62.36110435090351 14.991486688080535)" /><rect x="65.81593825068386%" y="84.08198273834687%" width="4.492379250705087%" height="12.480010309371076%" fill="#0f380f" fill-opacity="0.16405674240295148" transform="rotate(-0.697474200072822 65.81593825068386 84.08198273834687)" /><rect x="7.701150423380165%" y="41.930473593355664%" width="10.03879106962439%" height="11.613528600280166%" fill="#0f380f" fill-opacity="0.20856004140470427" transform="rotate(1.8021669898432808 7.701150423380165 41.930473593355664)" /><rect x="26.638204581810733%" y="33.45175415785396%" width="9.520595570488057%" height="10.993215679875979%" fill="#0f380f" fill-opacity="0.31314829203630495" transform="rotate(-9.308967724927209 26.638204581810733 33.45175415785396)" /><rect x="36.12080669314878%" y="60.23423441571365%" width="10.547166718743668%" height="6.348191068838858%" fill="#0f380f" fill-opacity="0.19072359300651343" transform="rotate(9.630052218306119 36.12080669314878 60.23423441571365)" /><rect x="38.316510070284515%" y="58.713615643881866%" width="6.1435761670203775%" height="19.91063179937776%" fill="#0f380f" fill-opacity="0.22319442302551493" transform="rotate(5.389814554005204 38.316510070284515 58.713615643881866)" /><rect x="97.98727440752741%" y="88.32877707801721%" width="10.721462225132708%" height="9.095997896148267%" fill="#0f380f" fill-opacity="0.11448635712179066" transform="rotate(9.619814782180676 97.98727440752741 88.32877707801721)" /><rect x="63.71426975330321%" y="59.31437983555591%" width="4.514766997834499%" height="9.286303235192502%" fill="#0f380f" fill-opacity="0.2816060396292463" transform="rotate(-9.788325591330045 63.71426975330321 59.31437983555591)" /><rect x="5.9063743486018065%" y="31.157937758141063%" width="3.9390624086111927%" height="14.66690307354857%" fill="#0f380f" fill-opacity="0.2954115840893297" transform="rotate(0.5386408753713479 5.9063743486018065 31.157937758141063)" /><rect x="62.153944336829255%" y="50.474425522184596%" width="11.047959213375524%" height="10.269897336913056%" fill="#0f380f" fill-opacity="0.3030803455442297" transform="rotate(3.381636789689521 62.153944336829255 50.474425522184596)" /><rect x="5.605245025448102%" y="91.44683252294253%" width="2.494340550579527%" height="7.187819431868247%" fill="#0f380f" fill-opacity="0.3571806000301504" transform="rotate(2.5518975394725096 5.605245025448102 91.44683252294253)" />
    <text x="50%" y="50%" font-family="monospace" font-size="24" fill="#2e5c2e" opacity="0.4" 
          text-anchor="middle" dominant-baseline="middle" 
          transform="rotate(90, 100, 100)">ROTATE</text>
    <!-- Add more noise on top -->
    <rect x="0" y="0" width="100%" height="100%" fill="url(#noise)" opacity="0.2"/>
    <defs>
        <filter id="noise">
            <feTurbulence type="fractalNoise" baseFrequency="0.8" numOctaves="3" stitchTiles="stitch"/>
        </filter>
    </defs>
</svg>