
<svg width="200" height="200" viewBox="0 0 200 200" xmlns="http://www.w3.org/2000/svg">
    <rect width="100%" height="100%" fill="#1a2f1a" />
    <rect x="80.47832414926144%" y="60.02932691381127%" width="8.136711587663651%" height="15.259956195024698%" fill="#0f380f" fill-opacity="0.22213107810692087" transform="rotate(0.2533230963400399 80.47832414926144 60.02932691381127)" /><rect x="71.5138835881171%" y="83.85106187888282%" width="4.614255116042146%" height="20.92418998073314%" fill="#0f380f" fill-opacity="0.10718905540702924" transform="rotate(2.987121155394952 71.5138835881171 83.85106187888282)" /><rect x="98.47563933706547%" y="12.753706914854279%" width="8.554352619938223%" height="20.134738151286776%" fill="#0f380f" fill-opacity="0.21069795675875228" transform="rotate(5.745144693871058 98.47563933706547 12.753706914854279)" /><rect x="38.28245354805302%" y="72.55952443405302%" width="3.079978646694677%" height="15.974834394842901%" fill="#0f380f" fill-opacity="0.20739163632734448" transform="rotate(-5.814831533360807 38.28245354805302 72.55952443405302)" /><rect x="82.22205323559577%" y="81.49291535150884%" width="11.596817452976135%" height="11.588622195669666%" fill="#0f380f" fill-opacity="0.19372113691740556" transform="rotate(7.5176786965234115 82.22205323559577 81.49291535150884)" /><rect x="46.84415870210774%" y="1.793200674977824%" width="8.794997297973891%" height="22.772460673880996%" fill="#0f380f" fill-opacity="0.21997639512613607" transform="rotate(-3.4091953816437215 46.84415870210774 1.793200674977824)" /><rect x="37.183540177103765%" y="4.58531383504297%" width="2.8993271157746174%" height="19.38723955830164%" fill="#0f380f" fill-opacity="0.16735826446778362" transform="rotate(7.6056465509768145 37.183540177103765 4.58531383504297)" /><rect x="91.07928504406121%" y="23.65304478422614%" width="11.981539445645105%" height="15.753215054792955%" fill="#0f380f" fill-opacity="0.158562646413063" transform="rotate(7.299974906992041 91.07928504406121 23.65304478422614)" /><rect x="8.6593506223279%" y="20.70022819754016%" width="11.650814336990178%" height="22.472481991435366%" fill="#0f380f" fill-opacity="0.13723700820821622" transform="rotate(-6.388757393200175 8.6593506223279 20.70022819754016)" /><rect x="89.28706559603734%" y="88.4510515034848%" width="4.280551477410673%" height="10.057417384336517%" fill="#0f380f" fill-opacity="0.15914940656766272" transform="rotate(9.20755989028006 89.28706559603734 88.4510515034848)" /><rect x="46.92097603046154%" y="0.6371205855839279%" width="10.547290132557064%" height="17.523897840880686%" fill="#0f380f" fill-opacity="0.28206734236269093" transform="rotate(-4.926594534047634 46.92097603046154 0.6371205855839279)" /><rect x="76.44206397758407%" y="63.93966828151966%" width="6.318215914927228%" height="12.637807549023641%" fill="#0f380f" fill-opacity="0.2727923969130737" transform="rotate(5.824637936851705 76.44206397758407 63.93966828151966)" /><rect x="55.495033782092776%" y="82.7087472722657%" width="5.553439412985741%" height="13.164362626100159%" fill="#0f380f" fill-opacity="0.2380557398858664" transform="rotate(7.602238617884332 55.495033782092776 82.7087472722657)" /><rect x="88.02614760809739%" y="41.46947163367113%" width="2.9354646341548287%" height="13.432162014850512%" fill="#0f380f" fill-opacity="0.1508938196271494" transform="rotate(1.4853711752240066 88.02614760809739 41.46947163367113)" /><rect x="14.308030754564616%" y="90.65462796436063%" width="10.508405785020571%" height="11.197751747350926%" fill="#0f380f" fill-opacity="0.25764272436589475" transform="rotate(1.201897325931128 14.308030754564616 90.65462796436063)" /><rect x="3.3460379329287693%" y="8.092970553332401%" width="4.236244851236043%" height="24.637055013522232%" fill="#0f380f" fill-opacity="0.18280825085900265" transform="rotate(-5.6070124563983 3.3460379329287693 8.092970553332401)" /><rect x="16.276590117278932%" y="43.80809523716894%" width="11.718255555575862%" height="19.321365950148916%" fill="#0f380f" fill-opacity="0.2850245292968711" transform="rotate(-6.450831816818172 16.276590117278932 43.80809523716894)" /><rect x="87.68287082081319%" y="82.66255997730819%" width="4.903999657098359%" height="6.825751202005838%" fill="#0f380f" fill-opacity="0.32472558805735613" transform="rotate(3.346931955820301 87.68287082081319 82.66255997730819)" /><rect x="29.31921920346231%" y="92.0128707927463%" width="7.918964403790365%" height="7.132774361220211%" fill="#0f380f" fill-opacity="0.2047863901071723" transform="rotate(-2.3203298410640905 29.31921920346231 92.0128707927463)" /><rect x="30.919819511803247%" y="37.59732606504015%" width="7.448751023007835%" height="5.674528813728099%" fill="#0f380f" fill-opacity="0.1467520244465877" transform="rotate(-6.736660573268837 30.919819511803247 37.59732606504015)" /><rect x="64.47703443404967%" y="29.12019222396158%" width="4.068478890870632%" height="15.190136396012255%" fill="#0f380f" fill-opacity="0.28662070617607066" transform="rotate(-1.237751418054815 64.47703443404967 29.12019222396158)" /><rect x="77.89602468225162%" y="2.2971236439790377%" width="5.8380654192909835%" height="23.4384978901339%" fill="#0f380f" fill-opacity="0.1053225591942159" transform="rotate(6.047041769469395 77.89602468225162 2.2971236439790377)" /><rect x="41.44659805867609%" y="58.1990265988685%" width="2.2263962997843905%" height="15.295241055496145%" fill="#0f380f" fill-opacity="0.1476904517148732" transform="rotate(4.98460073695453 41.44659805867609 58.1990265988685)" /><rect x="38.570045948041134%" y="89.35313493982382%" width="5.089352590415699%" height="14.588031331741648%" fill="#0f380f" fill-opacity="0.3951777746400127" transform="rotate(-5.358274633076712 38.570045948041134 89.35313493982382)" /><rect x="57.64333396688387%" y="78.22187397469753%" width="8.257613876943427%" height="7.005551919770592%" fill="#0f380f" fill-opacity="0.35711921643687483" transform="rotate(9.573195504866163 57.64333396688387 78.22187397469753)" /><rect x="32.087259915234235%" y="91.16133758560375%" width="9.260545504489208%" height="17.01423832483236%" fill="#0f380f" fill-opacity="0.38276522700210924" transform="rotate(-2.721633411321685 32.087259915234235 91.16133758560375)" /><rect x="74.90085455894031%" y="90.97209025454677%" width="7.9215244687783395%" height="14.745624100705193%" fill="#0f380f" fill-opacity="0.14827531903465327" transform="rotate(1.0941335145245965 74.90085455894031 90.97209025454677)" /><rect x="85.4082881279918%" y="86.59903449402877%" width="9.473157310245224%" height="16.251716491685904%" fill="#0f380f" fill-opacity="0.3478351468449309" transform="rotate(4.851832365517968 85.4082881279918 86.59903449402877)" /><rect x="10.786181268293005%" y="34.8362921112668%" width="9.91963998251257%" height="17.942293195280783%" fill="#0f380f" fill-opacity="0.14839224606194318" transform="rotate(-9.096621205597504 10.786181268293005 34.8362921112668)" /><rect x="2.00314707974103%" y="9.811307102255428%" width="5.98697075514438%" height="9.02344536548467%" fill="#0f380f" fill-opacity="0.3702944886708347" transform="rotate(-0.7528552088530116 2.00314707974103 9.811307102255428)" /><rect x="95.55359354234876%" y="99.01291726752119%" width="8.78813703662637%" height="24.669464385257726%" fill="#0f380f" fill-opacity="0.13036361857128567" transform="rotate(-8.569364693158718 95.55359354234876 99.01291726752119)" /><rect x="78.21997122825279%" y="87.52939972963752%" width="3.957410695931394%" height="7.129482713602449%" fill="#0f380f" fill-opacity="0.3495303746825974" transform="rotate(3.1614790097480157 78.21997122825279 87.52939972963752)" /><rect x="78.17041522444599%" y="3.765981355975212%" width="6.946410353758928%" height="12.673840720572983%" fill="#0f380f" fill-opacity="0.34474981300465524" transform="rotate(8.875401648456098 78.17041522444599 3.765981355975212)" /><rect x="46.853021843897956%" y="36.18655031460115%" width="3.2143280555849003%" height="23.778664357114877%" fill="#0f380f" fill-opacity="0.23757620819579647" transform="rotate(-2.3111655626210688 46.853021843897956 36.18655031460115)" /><rect x="9.92353029583446%" y="98.74023831432862%" width="10.802366279821424%" height="12.670127150927474%" fill="#0f380f" fill-opacity="0.3156732523030836" transform="rotate(-5.321042819282631 9.92353029583446 98.74023831432862)" /><rect x="56.24468382780942%" y="59.5377108290433%" width="8.307660001035398%" height="20.826406362490452%" fill="#0f380f" fill-opacity="0.1840164127327819" transform="rotate(8.67179963613523 56.24468382780942 59.5377108290433)" /><rect x="65.60261318216625%" y="30.40651105575768%" width="8.526999833027926%" height="9.130344075322851%" fill="#0f380f" fill-opacity="0.10386236540664823" transform="rotate(-4.23935295862639 65.60261318216625 30.40651105575768)" /><rect x="39.36416125840545%" y="8.94534865505281%" width="7.229114256769862%" height="5.1909054935889305%" fill="#0f380f" fill-opacity="0.22354790923485574" transform="rotate(-2.0138071743029062 39.36416125840545 8.94534865505281)" /><rect x="88.43536289362225%" y="19.666274917455496%" width="5.115047959184778%" height="19.019839303316697%" fill="#0f380f" fill-opacity="0.39652407193905415" transform="rotate(6.6646161228032454 88.43536289362225 19.666274917455496)" /><rect x="74.2767165596604%" y="72.92700791042827%" width="2.559219172071791%" height="23.770805044546435%" fill="#0f380f" fill-opacity="0.22637515968143837" transform="rotate(-4.423737852367569 74.2767165596604 72.92700791042827)" /><rect x="36.076252950738464%" y="16.878273340978957%" width="9.000499685999891%" height="12.149381074140457%" fill="#0f380f" fill-opacity="0.3081584220406447" transform="rotate(6.01283586428853 36.076252950738464 16.878273340978957)" /><rect x="72.93598951582898%" y="86.59557250229273%" width="4.638316324780114%" height="12.296306521237872%" fill="#0f380f" fill-opacity="0.3987452581541804" transform="rotate(-2.8880143863465975 72.93598951582898 86.59557250229273)" /><rect x="16.6167564422379%" y="28.910496622035218%" width="6.342858864225798%" height="18.060776013955415%" fill="#0f380f" fill-opacity="0.31905055459478115" transform="rotate(-3.8904611398746836 16.6167564422379 28.910496622035218)" /><rect x="75.52131663727715%" y="32.02842318432384%" width="8.429348235190844%" height="21.196921414054547%" fill="#0f380f" fill-opacity="0.21786012863870458" transform="rotate(-2.453585161397312 75.52131663727715 32.02842318432384)" /><rect x="96.08243638402915%" y="52.87315930367872%" width="10.255180874684807%" height="15.652937556895228%" fill="#0f380f" fill-opacity="0.1020938880901239" transform="rotate(5.310936667093147 96.08243638402915 52.87315930367872)" /><rect x="9.565137061770724%" y="30.926186809278843%" width="5.480399913648798%" height="11.132524835917724%" fill="#0f380f" fill-opacity="0.15938776067378468" transform="rotate(-4.912204166832213 9.565137061770724 30.926186809278843)" /><rect x="49.6514683897515%" y="50.30600721014622%" width="4.763672736826085%" height="24.804990846026758%" fill="#0f380f" fill-opacity="0.11027077560014076" transform="rotate(7.8709127193820265 49.6514683897515 50.30600721014622)" /><rect x="53.17079296268299%" y="20.265261794035993%" width="8.49806036451805%" height="13.036167504182227%" fill="#0f380f" fill-opacity="0.20798861784455924" transform="rotate(-2.5631060656548517 53.17079296268299 20.265261794035993)" /><rect x="43.55130700469566%" y="57.58348270993523%" width="5.221172906380113%" height="5.679761857490897%" fill="#0f380f" fill-opacity="0.2651232541727765" transform="rotate(-4.89649112308488 43.55130700469566 57.58348270993523)" /><rect x="18.88796081450087%" y="90.89462280859364%" width="4.414601916587124%" height="8.711771917377247%" fill="#0f380f" fill-opacity="0.39165446460648234" transform="rotate(-1.2405499118624341 18.88796081450087 90.89462280859364)" />
    <text x="50%" y="50%" font-family="monospace" font-size="24" fill="#2e5c2e" opacity="0.4" 
          text-anchor="middle" dominant-baseline="middle" 
          transform="rotate(90, 100, 100)">ROTATE</text>
    <!-- Add more noise on top -->
    <rect x="0" y="0" width="100%" height="100%" fill="url(#noise)" opacity="0.2"/>
    <defs>
        <filter id="noise">
            <feTurbulence type="fractalNoise" baseFrequency="0.8" numOctaves="3" stitchTiles="stitch"/>
        </filter>
    </defs>
</svg>