
<svg width="200" height="200" viewBox="0 0 200 200" xmlns="http://www.w3.org/2000/svg">
    <rect width="100%" height="100%" fill="#1a2f1a" />
    <rect x="98.1636234288259%" y="35.465993421807106%" width="4.966428894849602%" height="16.49857165367309%" fill="#0f380f" fill-opacity="0.2788816065269602" transform="rotate(-3.0152384664548393 98.1636234288259 35.465993421807106)" /><rect x="15.929089906747862%" y="41.733838406511545%" width="8.26431689735989%" height="6.371836317857338%" fill="#0f380f" fill-opacity="0.32264377048993786" transform="rotate(5.098999563717452 15.929089906747862 41.733838406511545)" /><rect x="41.05912547777032%" y="99.0592996501053%" width="10.325220652248111%" height="12.709646915073849%" fill="#0f380f" fill-opacity="0.28573189367777785" transform="rotate(-7.139869105910006 41.05912547777032 99.0592996501053)" /><rect x="80.72504346609466%" y="82.92254500330361%" width="11.815085985096635%" height="16.392945636481993%" fill="#0f380f" fill-opacity="0.126580136489947" transform="rotate(-2.6561970846071814 80.72504346609466 82.92254500330361)" /><rect x="13.418512471450628%" y="86.0463455375252%" width="5.6189623304362275%" height="14.266443164030072%" fill="#0f380f" fill-opacity="0.29203313131393727" transform="rotate(7.142782343401336 13.418512471450628 86.0463455375252)" /><rect x="22.163441779784332%" y="36.8696658731821%" width="9.574013058234769%" height="16.99142700971262%" fill="#0f380f" fill-opacity="0.3607144186571335" transform="rotate(3.3888123593435786 22.163441779784332 36.8696658731821)" /><rect x="83.50833211182275%" y="99.42349792370419%" width="11.793592477098406%" height="8.401406255756974%" fill="#0f380f" fill-opacity="0.31324060179114277" transform="rotate(1.3266588609931205 83.50833211182275 99.42349792370419)" /><rect x="95.32257099829722%" y="73.59473521838872%" width="8.482411537191966%" height="17.693449816934503%" fill="#0f380f" fill-opacity="0.3304622565126766" transform="rotate(6.130408427305692 95.32257099829722 73.59473521838872)" /><rect x="64.83313660868278%" y="89.50100609186006%" width="5.778997810300117%" height="6.635147494349198%" fill="#0f380f" fill-opacity="0.286961195038637" transform="rotate(0.6836700778608513 64.83313660868278 89.50100609186006)" /><rect x="22.97005865396503%" y="67.78675464539347%" width="9.844442574206546%" height="20.165852674059764%" fill="#0f380f" fill-opacity="0.37471781530937576" transform="rotate(2.9456104130911704 22.97005865396503 67.78675464539347)" /><rect x="55.35797786113263%" y="22.98353998141962%" width="9.154656649972829%" height="12.819061073660853%" fill="#0f380f" fill-opacity="0.11515619305314412" transform="rotate(8.651813327083332 55.35797786113263 22.98353998141962)" /><rect x="39.74326289880755%" y="54.47939636501189%" width="7.686290857127055%" height="19.033505108919112%" fill="#0f380f" fill-opacity="0.2729149947506499" transform="rotate(-2.0243590489686554 39.74326289880755 54.47939636501189)" /><rect x="97.0799452213023%" y="74.00320935452501%" width="9.422014456026709%" height="9.04741571040237%" fill="#0f380f" fill-opacity="0.14521591673019746" transform="rotate(0.17180345406796071 97.0799452213023 74.00320935452501)" /><rect x="96.40385296298652%" y="35.167040629111725%" width="5.837636480787628%" height="10.46132920189695%" fill="#0f380f" fill-opacity="0.3753535318905328" transform="rotate(8.308082272121787 96.40385296298652 35.167040629111725)" /><rect x="56.77008116415318%" y="59.892569590050314%" width="10.766115794105577%" height="7.048291568879024%" fill="#0f380f" fill-opacity="0.30694345721200844" transform="rotate(-5.46521767350254 56.77008116415318 59.892569590050314)" /><rect x="6.813640702928325%" y="49.41906137276179%" width="4.235764669282846%" height="12.009935658607546%" fill="#0f380f" fill-opacity="0.25595546591648677" transform="rotate(1.5888745428252182 6.813640702928325 49.41906137276179)" /><rect x="91.09325373724899%" y="79.24612423997851%" width="6.3668392866487515%" height="7.705198598125436%" fill="#0f380f" fill-opacity="0.10031343584637331" transform="rotate(6.251158592341284 91.09325373724899 79.24612423997851)" /><rect x="55.07393315103557%" y="64.1064759755785%" width="2.0694586762745963%" height="12.07268714309758%" fill="#0f380f" fill-opacity="0.2769903468366454" transform="rotate(0.8109790825588483 55.07393315103557 64.1064759755785)" /><rect x="62.24344383201165%" y="98.79642621918158%" width="7.304624905997385%" height="19.766525683429016%" fill="#0f380f" fill-opacity="0.24560866149454236" transform="rotate(-8.848739117445046 62.24344383201165 98.79642621918158)" /><rect x="29.06685138981978%" y="30.989397107651584%" width="8.513742972092848%" height="8.178390872045354%" fill="#0f380f" fill-opacity="0.2832457687038539" transform="rotate(9.71428700401836 29.06685138981978 30.989397107651584)" /><rect x="77.5389152794956%" y="38.87291372156787%" width="9.925034086764935%" height="21.111401090011288%" fill="#0f380f" fill-opacity="0.20456142544951267" transform="rotate(5.415890983517395 77.5389152794956 38.87291372156787)" /><rect x="56.62127791876799%" y="85.98067209786204%" width="8.81789503620156%" height="15.469324482412839%" fill="#0f380f" fill-opacity="0.23736784574881029" transform="rotate(6.963048373342321 56.62127791876799 85.98067209786204)" /><rect x="6.474169927660734%" y="19.992542015874914%" width="6.395352989555901%" height="15.606944006280097%" fill="#0f380f" fill-opacity="0.2429730612674981" transform="rotate(-3.2393701812041487 6.474169927660734 19.992542015874914)" /><rect x="48.237041754598444%" y="75.74198153230239%" width="10.942112170365753%" height="23.785085282274913%" fill="#0f380f" fill-opacity="0.21395749305208842" transform="rotate(-6.523943569534863 48.237041754598444 75.74198153230239)" /><rect x="39.15788128480771%" y="18.313591490925674%" width="6.555549911457995%" height="20.948878734920235%" fill="#0f380f" fill-opacity="0.37646380634695387" transform="rotate(-0.4077735819412105 39.15788128480771 18.313591490925674)" /><rect x="8.387631379649186%" y="59.23095069943122%" width="4.980663205200813%" height="7.169687153447041%" fill="#0f380f" fill-opacity="0.12397720571525454" transform="rotate(-3.991028635266167 8.387631379649186 59.23095069943122)" /><rect x="15.199118781149412%" y="68.77373280248005%" width="7.981695725468372%" height="22.080278280722464%" fill="#0f380f" fill-opacity="0.27474287170118916" transform="rotate(1.583845279832305 15.199118781149412 68.77373280248005)" /><rect x="96.73587041834926%" y="90.48537631850778%" width="11.030262190719839%" height="13.298805753629537%" fill="#0f380f" fill-opacity="0.3748160745375686" transform="rotate(-4.849949466876355 96.73587041834926 90.48537631850778)" /><rect x="30.059968289719407%" y="72.782215070991%" width="2.424067957751798%" height="18.72759609713866%" fill="#0f380f" fill-opacity="0.2474732820937296" transform="rotate(-7.867258106037809 30.059968289719407 72.782215070991)" /><rect x="82.18105681999647%" y="63.18079720093872%" width="6.434756051553029%" height="15.029536041877869%" fill="#0f380f" fill-opacity="0.3141103486513337" transform="rotate(-9.422435297697543 82.18105681999647 63.18079720093872)" /><rect x="82.24282727378434%" y="27.123624855073036%" width="2.522990946304218%" height="20.95199946442834%" fill="#0f380f" fill-opacity="0.3066861072197944" transform="rotate(2.9468008297013597 82.24282727378434 27.123624855073036)" /><rect x="52.502495961258454%" y="80.38694775212356%" width="9.63995710861238%" height="11.325932430611008%" fill="#0f380f" fill-opacity="0.3496162870557608" transform="rotate(-6.535662024439026 52.502495961258454 80.38694775212356)" /><rect x="20.84072586369735%" y="35.08724276309092%" width="9.72093017205848%" height="8.639384981975516%" fill="#0f380f" fill-opacity="0.20705424627391145" transform="rotate(-9.715813487534874 20.84072586369735 35.08724276309092)" /><rect x="28.2527931344815%" y="75.08842403934621%" width="8.797659576101545%" height="13.572733435130772%" fill="#0f380f" fill-opacity="0.21104519183082013" transform="rotate(7.30758412684612 28.2527931344815 75.08842403934621)" /><rect x="64.38731139639005%" y="54.4718139890811%" width="11.065022206467278%" height="14.847157275407007%" fill="#0f380f" fill-opacity="0.2782129784163062" transform="rotate(6.234019192188974 64.38731139639005 54.4718139890811)" /><rect x="29.35865060149869%" y="6.55917619169708%" width="2.1433054743736992%" height="5.625901477297946%" fill="#0f380f" fill-opacity="0.34691425018549227" transform="rotate(6.097913881171365 29.35865060149869 6.55917619169708)" /><rect x="50.373896760428%" y="4.855552436248633%" width="11.508520960524098%" height="18.046275023202647%" fill="#0f380f" fill-opacity="0.23695935475956897" transform="rotate(7.036378459946196 50.373896760428 4.855552436248633)" /><rect x="22.98353408002509%" y="79.52662908070423%" width="3.9444569970009997%" height="10.857528901257973%" fill="#0f380f" fill-opacity="0.31514237401885115" transform="rotate(-6.564228920422892 22.98353408002509 79.52662908070423)" /><rect x="27.78762408096308%" y="98.28055609280233%" width="7.563435791247472%" height="17.35918979884449%" fill="#0f380f" fill-opacity="0.2607413744723541" transform="rotate(-1.495410243397865 27.78762408096308 98.28055609280233)" /><rect x="33.20765127194695%" y="94.57303042333717%" width="7.078894072736308%" height="16.64256786083772%" fill="#0f380f" fill-opacity="0.36146945172668776" transform="rotate(9.241763915190134 33.20765127194695 94.57303042333717)" /><rect x="67.25671912881769%" y="76.50581122084101%" width="9.79158313062628%" height="14.52780363471973%" fill="#0f380f" fill-opacity="0.17122214468220692" transform="rotate(-9.531900279107518 67.25671912881769 76.50581122084101)" /><rect x="41.90483477390624%" y="73.24468890338578%" width="7.482950641782905%" height="5.803962327436897%" fill="#0f380f" fill-opacity="0.22341136699722045" transform="rotate(-0.15782088975925035 41.90483477390624 73.24468890338578)" /><rect x="73.57447933983036%" y="46.83485879919472%" width="11.458482533792502%" height="6.44882104641751%" fill="#0f380f" fill-opacity="0.25547776427376145" transform="rotate(5.87595787895231 73.57447933983036 46.83485879919472)" /><rect x="52.54332763581154%" y="34.48799950978552%" width="10.562500504697166%" height="20.441089336387556%" fill="#0f380f" fill-opacity="0.2044572811166804" transform="rotate(5.559738536112331 52.54332763581154 34.48799950978552)" /><rect x="7.50383796345494%" y="81.00975879887469%" width="11.712282591303667%" height="7.343161499554462%" fill="#0f380f" fill-opacity="0.17948017062958566" transform="rotate(9.48747075497569 7.50383796345494 81.00975879887469)" /><rect x="45.892462873319275%" y="15.264304500173587%" width="4.254426981548727%" height="11.229422847740762%" fill="#0f380f" fill-opacity="0.15237329081601522" transform="rotate(5.573214631147438 45.892462873319275 15.264304500173587)" /><rect x="44.69296455188147%" y="55.38827446083341%" width="5.70024756112286%" height="13.862468506620102%" fill="#0f380f" fill-opacity="0.12075515636099114" transform="rotate(-5.720080527871425 44.69296455188147 55.38827446083341)" /><rect x="88.53578296705459%" y="18.72541883516793%" width="11.962282414810112%" height="23.79206926032589%" fill="#0f380f" fill-opacity="0.3396969948492846" transform="rotate(-8.261444175014727 88.53578296705459 18.72541883516793)" /><rect x="34.60587870165433%" y="9.637133334084425%" width="8.812617696624445%" height="21.445039256491462%" fill="#0f380f" fill-opacity="0.29114053980626103" transform="rotate(2.3245618925085694 34.60587870165433 9.637133334084425)" /><rect x="64.5009232577835%" y="36.425392603620125%" width="9.347972710763134%" height="6.13723262831984%" fill="#0f380f" fill-opacity="0.3647699830324699" transform="rotate(-3.386274019496012 64.5009232577835 36.425392603620125)" />
    <text x="50%" y="50%" font-family="monospace" font-size="24" fill="#2e5c2e" opacity="0.4" 
          text-anchor="middle" dominant-baseline="middle" 
          transform="rotate(90, 100, 100)">ROTATE</text>
    <!-- Add more noise on top -->
    <rect x="0" y="0" width="100%" height="100%" fill="url(#noise)" opacity="0.2"/>
    <defs>
        <filter id="noise">
            <feTurbulence type="fractalNoise" baseFrequency="0.8" numOctaves="3" stitchTiles="stitch"/>
        </filter>
    </defs>
</svg>