
<svg width="200" height="200" viewBox="0 0 200 200" xmlns="http://www.w3.org/2000/svg">
    <rect width="100%" height="100%" fill="#1a2f1a" />
    <rect x="7.044885414360447%" y="43.97989939613659%" width="5.806206006232618%" height="15.477696880540385%" fill="#0f380f" fill-opacity="0.34575490525631414" transform="rotate(-5.152439087215095 7.044885414360447 43.97989939613659)" /><rect x="46.056528127231175%" y="2.590779088886974%" width="10.07147352911581%" height="21.456282386908455%" fill="#0f380f" fill-opacity="0.2900651482209895" transform="rotate(6.212317339052664 46.056528127231175 2.590779088886974)" /><rect x="11.190813084780892%" y="61.46899827267346%" width="3.450597815432099%" height="18.343217547140362%" fill="#0f380f" fill-opacity="0.23447823484795538" transform="rotate(6.840739394753236 11.190813084780892 61.46899827267346)" /><rect x="42.676589268079745%" y="35.74751472553657%" width="3.324769366363159%" height="8.736208283646146%" fill="#0f380f" fill-opacity="0.32874382022331905" transform="rotate(9.341001766296312 42.676589268079745 35.74751472553657)" /><rect x="78.02708088975702%" y="58.64394484373656%" width="6.350841338722534%" height="23.474014002952632%" fill="#0f380f" fill-opacity="0.14909700159214911" transform="rotate(-0.9656150062260149 78.02708088975702 58.64394484373656)" /><rect x="33.75536421282306%" y="21.64828084320399%" width="5.951356430282832%" height="9.131594660528773%" fill="#0f380f" fill-opacity="0.10227051901776292" transform="rotate(-8.732185017722333 33.75536421282306 21.64828084320399)" /><rect x="38.493590953522215%" y="69.72387734846025%" width="11.676701013455007%" height="21.22560153217478%" fill="#0f380f" fill-opacity="0.1787610822222865" transform="rotate(-2.276659176058839 38.493590953522215 69.72387734846025)" /><rect x="93.29894553925182%" y="88.18336044135764%" width="5.017407964677565%" height="13.769845634248512%" fill="#0f380f" fill-opacity="0.30349796649745586" transform="rotate(2.1735197883968453 93.29894553925182 88.18336044135764)" /><rect x="45.374944915971724%" y="74.57782407618174%" width="11.480530286387044%" height="22.501780207866716%" fill="#0f380f" fill-opacity="0.19002531893424424" transform="rotate(-9.187675354113933 45.374944915971724 74.57782407618174)" /><rect x="16.331689780149684%" y="91.10768784716316%" width="9.867076441593433%" height="12.015901744175238%" fill="#0f380f" fill-opacity="0.3967219982680329" transform="rotate(2.388167925510361 16.331689780149684 91.10768784716316)" /><rect x="8.781104807097284%" y="28.456863770132244%" width="11.746417585438778%" height="21.613110061695775%" fill="#0f380f" fill-opacity="0.18323868803569487" transform="rotate(-1.562686037606202 8.781104807097284 28.456863770132244)" /><rect x="8.23315651707559%" y="39.43269374402602%" width="10.324281745500024%" height="11.803684001735126%" fill="#0f380f" fill-opacity="0.2586763389529159" transform="rotate(-9.702918941757378 8.23315651707559 39.43269374402602)" /><rect x="12.107617889070921%" y="39.60654103850983%" width="9.868593572456138%" height="9.41987652885651%" fill="#0f380f" fill-opacity="0.12263229675715225" transform="rotate(8.562466561360868 12.107617889070921 39.60654103850983)" /><rect x="57.79645951632219%" y="69.11370523783222%" width="4.209972271383607%" height="23.884204568261595%" fill="#0f380f" fill-opacity="0.2080386846909475" transform="rotate(-8.398435776799078 57.79645951632219 69.11370523783222)" /><rect x="46.444657367229404%" y="78.5281618791483%" width="10.982567014640377%" height="18.850673713819305%" fill="#0f380f" fill-opacity="0.1800296449520755" transform="rotate(-5.944548184788799 46.444657367229404 78.5281618791483)" /><rect x="89.11506624427923%" y="13.444506638918064%" width="2.96414192998881%" height="5.893269047789049%" fill="#0f380f" fill-opacity="0.39629328622550297" transform="rotate(-5.991705211882876 89.11506624427923 13.444506638918064)" /><rect x="74.14508398360336%" y="97.0624263855443%" width="3.468483657273806%" height="12.348462379379985%" fill="#0f380f" fill-opacity="0.11988973925495426" transform="rotate(8.040205613853285 74.14508398360336 97.0624263855443)" /><rect x="62.62956067335785%" y="0.40028429225033024%" width="11.789268205788504%" height="8.539299581362966%" fill="#0f380f" fill-opacity="0.36308852015187065" transform="rotate(1.164668231687017 62.62956067335785 0.40028429225033024)" /><rect x="85.11721750522736%" y="31.210805145464636%" width="6.335626331112915%" height="24.25053797151534%" fill="#0f380f" fill-opacity="0.3223187617687494" transform="rotate(8.543855310519376 85.11721750522736 31.210805145464636)" /><rect x="28.586102731946617%" y="69.85457048886549%" width="9.93064021031737%" height="8.721185535703487%" fill="#0f380f" fill-opacity="0.26524315164180534" transform="rotate(-6.826609277677833 28.586102731946617 69.85457048886549)" /><rect x="29.178952387450508%" y="29.107393728876907%" width="10.944724671550851%" height="16.33415996491392%" fill="#0f380f" fill-opacity="0.2254357977162883" transform="rotate(9.051869006627737 29.178952387450508 29.107393728876907)" /><rect x="9.182805537184457%" y="23.356483857370304%" width="7.469095261264114%" height="18.627152681785194%" fill="#0f380f" fill-opacity="0.33962157714396923" transform="rotate(3.884079043063684 9.182805537184457 23.356483857370304)" /><rect x="91.52333249839842%" y="87.26202867106015%" width="8.140586920561889%" height="18.858508944589218%" fill="#0f380f" fill-opacity="0.2294565770069245" transform="rotate(8.038375917821913 91.52333249839842 87.26202867106015)" /><rect x="93.83441771697707%" y="29.047910708988965%" width="2.6077155000343746%" height="24.37892613810849%" fill="#0f380f" fill-opacity="0.13198194235332084" transform="rotate(-2.934737865241395 93.83441771697707 29.047910708988965)" /><rect x="71.37676438372137%" y="72.74523186136751%" width="11.568924868759215%" height="18.72784824561588%" fill="#0f380f" fill-opacity="0.3099273052606515" transform="rotate(-1.1335624948792606 71.37676438372137 72.74523186136751)" /><rect x="7.0770956693547715%" y="89.06411562979866%" width="11.758638217122774%" height="13.33693377110665%" fill="#0f380f" fill-opacity="0.16781127453663214" transform="rotate(-3.600268340619264 7.0770956693547715 89.06411562979866)" /><rect x="44.748259835104%" y="3.974904552242575%" width="5.927817192974694%" height="14.79268564007128%" fill="#0f380f" fill-opacity="0.3420818748802297" transform="rotate(8.594585338500856 44.748259835104 3.974904552242575)" /><rect x="54.34004867228182%" y="13.463893877900402%" width="5.627666187056246%" height="12.380016156207374%" fill="#0f380f" fill-opacity="0.18206909661576215" transform="rotate(8.000383359366353 54.34004867228182 13.463893877900402)" /><rect x="72.4185359219556%" y="6.655672846388672%" width="6.002192980141999%" height="13.041012450772842%" fill="#0f380f" fill-opacity="0.32508353300482984" transform="rotate(9.027942022672203 72.4185359219556 6.655672846388672)" /><rect x="30.936235034956017%" y="67.95930942845575%" width="7.576901939043019%" height="10.13615223125008%" fill="#0f380f" fill-opacity="0.16859577753772828" transform="rotate(-6.038877279309225 30.936235034956017 67.95930942845575)" /><rect x="34.15458646281865%" y="94.78743781721019%" width="5.513488751955598%" height="9.903863869356577%" fill="#0f380f" fill-opacity="0.32620408472552787" transform="rotate(-3.918977509391821 34.15458646281865 94.78743781721019)" /><rect x="3.216749659103857%" y="52.75426818539096%" width="2.1325458862589937%" height="6.358751254655246%" fill="#0f380f" fill-opacity="0.17358916431579435" transform="rotate(4.2249646199294375 3.216749659103857 52.75426818539096)" /><rect x="64.697935315716%" y="43.86322963947603%" width="9.068291162594186%" height="6.256310536272716%" fill="#0f380f" fill-opacity="0.3387762701818866" transform="rotate(8.212204452446596 64.697935315716 43.86322963947603)" /><rect x="68.20004639653018%" y="19.609671352567993%" width="10.973783818622206%" height="10.364009320085295%" fill="#0f380f" fill-opacity="0.34595522074289065" transform="rotate(3.690031119122228 68.20004639653018 19.609671352567993)" /><rect x="25.48573314646324%" y="35.70667158017247%" width="5.750906560218316%" height="12.585776694623762%" fill="#0f380f" fill-opacity="0.2902037252655224" transform="rotate(-2.2546014147588966 25.48573314646324 35.70667158017247)" /><rect x="29.92245619882943%" y="80.58014968209073%" width="10.342541862531702%" height="17.26405746429005%" fill="#0f380f" fill-opacity="0.10171050840817264" transform="rotate(2.7694231177840063 29.92245619882943 80.58014968209073)" /><rect x="33.16358285396046%" y="88.28382592565049%" width="6.059388418907387%" height="16.823921377755546%" fill="#0f380f" fill-opacity="0.2051506993879826" transform="rotate(-2.487381260903689 33.16358285396046 88.28382592565049)" /><rect x="38.22560319405245%" y="60.34679065542784%" width="2.390216048590124%" height="14.949357331344483%" fill="#0f380f" fill-opacity="0.33630467937487374" transform="rotate(9.974117962007863 38.22560319405245 60.34679065542784)" /><rect x="42.19390573172346%" y="51.04527552653322%" width="2.3922306217242633%" height="19.702144158371453%" fill="#0f380f" fill-opacity="0.24507688776301326" transform="rotate(-1.4390953400551219 42.19390573172346 51.04527552653322)" /><rect x="24.433924669182016%" y="93.23141266164752%" width="6.554146103169094%" height="11.203763087473618%" fill="#0f380f" fill-opacity="0.3742587621273643" transform="rotate(-3.359780445526699 24.433924669182016 93.23141266164752)" /><rect x="65.92978342413787%" y="90.7847175523385%" width="11.649017712454155%" height="9.088702604592896%" fill="#0f380f" fill-opacity="0.2212347259932283" transform="rotate(-4.16608071372101 65.92978342413787 90.7847175523385)" /><rect x="50.462730832783265%" y="79.48547606213803%" width="11.636357710190511%" height="12.823830488430454%" fill="#0f380f" fill-opacity="0.3911589533387605" transform="rotate(-2.9424529706054177 50.462730832783265 79.48547606213803)" /><rect x="16.954356863774432%" y="90.45377479613927%" width="3.0370991676633325%" height="23.203149028235%" fill="#0f380f" fill-opacity="0.22401939402515147" transform="rotate(-6.353588863543083 16.954356863774432 90.45377479613927)" /><rect x="7.747201094374711%" y="76.55155651763627%" width="11.76369162029834%" height="12.248221401146445%" fill="#0f380f" fill-opacity="0.36427892214053925" transform="rotate(5.825384779114442 7.747201094374711 76.55155651763627)" /><rect x="70.12933011062822%" y="75.51222705968004%" width="3.3782183150800407%" height="23.71044648323487%" fill="#0f380f" fill-opacity="0.20579253152588645" transform="rotate(9.560890936760007 70.12933011062822 75.51222705968004)" /><rect x="78.3018041555048%" y="99.16602148725168%" width="10.056212643050763%" height="20.54779996059981%" fill="#0f380f" fill-opacity="0.13960407352438198" transform="rotate(-7.604796957447045 78.3018041555048 99.16602148725168)" /><rect x="66.95467922914506%" y="72.21679748902832%" width="3.185486381261197%" height="14.325687455968673%" fill="#0f380f" fill-opacity="0.3211248457959909" transform="rotate(-4.597109418563036 66.95467922914506 72.21679748902832)" /><rect x="60.6101082027242%" y="29.14885974602287%" width="8.725793469701092%" height="6.860227449767997%" fill="#0f380f" fill-opacity="0.13709550898725945" transform="rotate(2.3738822225244878 60.6101082027242 29.14885974602287)" /><rect x="5.879528018779723%" y="37.85611323667194%" width="4.3766712248405275%" height="24.783059666212647%" fill="#0f380f" fill-opacity="0.13496691680782627" transform="rotate(0.1511487458165952 5.879528018779723 37.85611323667194)" /><rect x="2.3674321459342007%" y="24.772867213263407%" width="7.624264136996656%" height="21.54886576590836%" fill="#0f380f" fill-opacity="0.1879285725474481" transform="rotate(-8.902624633020974 2.3674321459342007 24.772867213263407)" />
    <text x="50%" y="50%" font-family="monospace" font-size="24" fill="#2e5c2e" opacity="0.4" 
          text-anchor="middle" dominant-baseline="middle" 
          transform="rotate(90, 100, 100)">ROTATE</text>
    <!-- Add more noise on top -->
    <rect x="0" y="0" width="100%" height="100%" fill="url(#noise)" opacity="0.2"/>
    <defs>
        <filter id="noise">
            <feTurbulence type="fractalNoise" baseFrequency="0.8" numOctaves="3" stitchTiles="stitch"/>
        </filter>
    </defs>
</svg>