
<svg width="200" height="200" viewBox="0 0 200 200" xmlns="http://www.w3.org/2000/svg">
    <rect width="100%" height="100%" fill="#1a2f1a" />
    <rect x="54.45436781250531%" y="26.328446611562185%" width="3.6902874562351675%" height="18.23535860786251%" fill="#0f380f" fill-opacity="0.23684497944773122" transform="rotate(3.4194838108388517 54.45436781250531 26.328446611562185)" /><rect x="87.05214270609834%" y="24.914220480692073%" width="9.047821681214597%" height="5.395683187362699%" fill="#0f380f" fill-opacity="0.1472771381731211" transform="rotate(-2.629839302323038 87.05214270609834 24.914220480692073)" /><rect x="99.38520828372917%" y="44.60518146147368%" width="3.5613593935695027%" height="16.297640541579185%" fill="#0f380f" fill-opacity="0.10955663015088374" transform="rotate(-5.694082531613887 99.38520828372917 44.60518146147368)" /><rect x="66.03238089899762%" y="29.912076262593924%" width="11.459612479897748%" height="16.071401117922413%" fill="#0f380f" fill-opacity="0.1238591583098542" transform="rotate(4.049785530542362 66.03238089899762 29.912076262593924)" /><rect x="51.8702046603161%" y="46.18575876296037%" width="7.715392085948663%" height="16.897453033808553%" fill="#0f380f" fill-opacity="0.16153925339742037" transform="rotate(7.406056989224513 51.8702046603161 46.18575876296037)" /><rect x="6.525909667103125%" y="79.74574576923045%" width="7.659445880213316%" height="8.775750217750442%" fill="#0f380f" fill-opacity="0.3395532879331159" transform="rotate(-2.2489532917994293 6.525909667103125 79.74574576923045)" /><rect x="29.037009413958682%" y="71.90646610535755%" width="5.059591930687064%" height="16.37065030448577%" fill="#0f380f" fill-opacity="0.11467131944771121" transform="rotate(-8.662651664860597 29.037009413958682 71.90646610535755)" /><rect x="83.83997433040085%" y="66.02545300146951%" width="5.704730428003198%" height="21.7418244630524%" fill="#0f380f" fill-opacity="0.3534048550713085" transform="rotate(5.8700699110958094 83.83997433040085 66.02545300146951)" /><rect x="47.602455819036216%" y="52.345039928187255%" width="9.03875815461614%" height="9.787664557581738%" fill="#0f380f" fill-opacity="0.20139296799729645" transform="rotate(-5.103100935101996 47.602455819036216 52.345039928187255)" /><rect x="19.76141160074272%" y="17.610634918257727%" width="3.683414227372518%" height="9.419832812847254%" fill="#0f380f" fill-opacity="0.27096938524828895" transform="rotate(-7.545819970557299 19.76141160074272 17.610634918257727)" /><rect x="71.76105050459351%" y="43.83359965469603%" width="4.6164108769638315%" height="5.660498689118714%" fill="#0f380f" fill-opacity="0.24593449393805356" transform="rotate(-4.211503873658842 71.76105050459351 43.83359965469603)" /><rect x="19.164514896679396%" y="95.9128923047181%" width="8.971088009650792%" height="8.285680841159856%" fill="#0f380f" fill-opacity="0.19192147860957862" transform="rotate(6.806763888975556 19.164514896679396 95.9128923047181)" /><rect x="91.74365343309935%" y="51.48077896866867%" width="8.542467840116378%" height="7.458377440972425%" fill="#0f380f" fill-opacity="0.26080483885480743" transform="rotate(-9.78732208752572 91.74365343309935 51.48077896866867)" /><rect x="99.04858406788411%" y="98.05197953397699%" width="8.252913058273657%" height="23.636659883085525%" fill="#0f380f" fill-opacity="0.311712907936517" transform="rotate(-9.635275913789611 99.04858406788411 98.05197953397699)" /><rect x="90.74602538263147%" y="2.327369575736482%" width="10.991344029050882%" height="8.50315525253756%" fill="#0f380f" fill-opacity="0.232640554918827" transform="rotate(-5.150412582591912 90.74602538263147 2.327369575736482)" /><rect x="76.48454368757827%" y="20.39056764563054%" width="3.0514389587671236%" height="15.877844448152473%" fill="#0f380f" fill-opacity="0.2667037650367229" transform="rotate(-5.240454137658959 76.48454368757827 20.39056764563054)" /><rect x="17.347140552769357%" y="27.94084954145124%" width="3.6085735091844056%" height="20.003716188028896%" fill="#0f380f" fill-opacity="0.3811595926253647" transform="rotate(3.636254085403948 17.347140552769357 27.94084954145124)" /><rect x="38.775231043947976%" y="69.47461944409898%" width="9.95913231256804%" height="24.615694294282513%" fill="#0f380f" fill-opacity="0.3512059652991809" transform="rotate(0.38663306952216914 38.775231043947976 69.47461944409898)" /><rect x="79.19463627385628%" y="18.80381696054736%" width="9.242431957125037%" height="7.950073895401268%" fill="#0f380f" fill-opacity="0.10169575035303649" transform="rotate(9.306814256715313 79.19463627385628 18.80381696054736)" /><rect x="72.21588262145607%" y="41.836954881288065%" width="5.004589822079002%" height="19.745849625306512%" fill="#0f380f" fill-opacity="0.32346478610691043" transform="rotate(3.8308446391414304 72.21588262145607 41.836954881288065)" /><rect x="32.35607582258715%" y="60.42132943143829%" width="3.1427984629754895%" height="13.68523099253387%" fill="#0f380f" fill-opacity="0.11389489681855375" transform="rotate(0.2063105099879543 32.35607582258715 60.42132943143829)" /><rect x="25.875792431698276%" y="2.437803458496668%" width="10.763334324304942%" height="11.172262815960977%" fill="#0f380f" fill-opacity="0.28664999679611275" transform="rotate(-6.058523932440361 25.875792431698276 2.437803458496668)" /><rect x="23.559159854414744%" y="78.90679557977654%" width="5.691809963443044%" height="8.5758870214255%" fill="#0f380f" fill-opacity="0.16846933194903163" transform="rotate(2.1755803790016337 23.559159854414744 78.90679557977654)" /><rect x="75.47396870857433%" y="38.40182091249099%" width="4.658241872937229%" height="11.511183875473192%" fill="#0f380f" fill-opacity="0.37953518762769467" transform="rotate(2.71427045599747 75.47396870857433 38.40182091249099)" /><rect x="42.986823722553325%" y="58.28843533568717%" width="6.163121663425672%" height="21.729097753016053%" fill="#0f380f" fill-opacity="0.12303612294192075" transform="rotate(4.172509767872892 42.986823722553325 58.28843533568717)" /><rect x="58.07782646399643%" y="64.57232854074226%" width="5.465770973610019%" height="22.362048959360187%" fill="#0f380f" fill-opacity="0.216329332502821" transform="rotate(1.482334579577504 58.07782646399643 64.57232854074226)" /><rect x="18.75470586796476%" y="81.23565227952871%" width="6.807006739915892%" height="16.330325957343344%" fill="#0f380f" fill-opacity="0.325507122241135" transform="rotate(-9.409686709714123 18.75470586796476 81.23565227952871)" /><rect x="22.958838807006245%" y="84.465430930736%" width="2.138664103319621%" height="23.535447632580958%" fill="#0f380f" fill-opacity="0.13199875208194192" transform="rotate(4.11558213306364 22.958838807006245 84.465430930736)" /><rect x="15.48011937458229%" y="81.6452414757255%" width="4.672586081489468%" height="21.46308727396868%" fill="#0f380f" fill-opacity="0.3416388993462477" transform="rotate(5.538558610000733 15.48011937458229 81.6452414757255)" /><rect x="32.540301774126526%" y="76.93635604162763%" width="3.17764775461189%" height="23.39618252270707%" fill="#0f380f" fill-opacity="0.23095701712452868" transform="rotate(-9.077454665316766 32.540301774126526 76.93635604162763)" /><rect x="85.28554132891018%" y="74.72769538137972%" width="7.451449074746425%" height="14.51025796560257%" fill="#0f380f" fill-opacity="0.19655153606826803" transform="rotate(-1.760327195192895 85.28554132891018 74.72769538137972)" /><rect x="13.88168449527597%" y="74.64576912639001%" width="9.40286008042787%" height="8.936288812795492%" fill="#0f380f" fill-opacity="0.3459155214326658" transform="rotate(-8.08473591485825 13.88168449527597 74.64576912639001)" /><rect x="23.351895185895454%" y="21.50052880434542%" width="8.851690577646599%" height="6.427718495678844%" fill="#0f380f" fill-opacity="0.3784631961131063" transform="rotate(9.715685877210433 23.351895185895454 21.50052880434542)" /><rect x="96.11887819248018%" y="56.85585270423693%" width="4.813393099214871%" height="8.301658516662137%" fill="#0f380f" fill-opacity="0.22582657464228753" transform="rotate(-1.2642474584363246 96.11887819248018 56.85585270423693)" /><rect x="72.81167204122697%" y="20.93969435371156%" width="9.116383182511104%" height="21.508075131278545%" fill="#0f380f" fill-opacity="0.2714579927530786" transform="rotate(0.262026212604356 72.81167204122697 20.93969435371156)" /><rect x="93.54861967313414%" y="44.21191350703595%" width="8.92826173763%" height="10.679940067050406%" fill="#0f380f" fill-opacity="0.2809548874636379" transform="rotate(-3.626810281495012 93.54861967313414 44.21191350703595)" /><rect x="20.391774167739975%" y="91.05704486051937%" width="9.584198857938876%" height="7.039142112667336%" fill="#0f380f" fill-opacity="0.34350509978230204" transform="rotate(-7.07683577458149 20.391774167739975 91.05704486051937)" /><rect x="18.644783138621158%" y="6.061899910340429%" width="10.316667027970258%" height="22.899711713581908%" fill="#0f380f" fill-opacity="0.124043326840336" transform="rotate(-1.1771333081145503 18.644783138621158 6.061899910340429)" /><rect x="84.47276037963867%" y="24.115903166620846%" width="10.709358251823916%" height="24.097228266491992%" fill="#0f380f" fill-opacity="0.26156685250171785" transform="rotate(-4.74443138655916 84.47276037963867 24.115903166620846)" /><rect x="83.05138489363937%" y="38.09257700885272%" width="2.493994624084465%" height="21.352655258433437%" fill="#0f380f" fill-opacity="0.2959732227222919" transform="rotate(3.767127453584907 83.05138489363937 38.09257700885272)" /><rect x="51.952893472626684%" y="58.134587112870165%" width="10.27174635570286%" height="24.318794462208487%" fill="#0f380f" fill-opacity="0.26144543922395747" transform="rotate(4.578275122683069 51.952893472626684 58.134587112870165)" /><rect x="5.253401313640305%" y="75.39731817904632%" width="3.036889362103551%" height="23.160303123185443%" fill="#0f380f" fill-opacity="0.1578722273379349" transform="rotate(-8.964879920885835 5.253401313640305 75.39731817904632)" /><rect x="59.81796558477532%" y="64.3112920571942%" width="8.700396044305487%" height="17.209230841964683%" fill="#0f380f" fill-opacity="0.3051979516895009" transform="rotate(9.398915274773007 59.81796558477532 64.3112920571942)" /><rect x="11.82129723446197%" y="86.65894548572939%" width="8.45412373651466%" height="11.65380758970041%" fill="#0f380f" fill-opacity="0.24256897704601582" transform="rotate(-1.3141649618703521 11.82129723446197 86.65894548572939)" /><rect x="19.18747609518796%" y="79.27989460440227%" width="4.620919611988755%" height="20.682476175160254%" fill="#0f380f" fill-opacity="0.2398900743081425" transform="rotate(5.561863117123719 19.18747609518796 79.27989460440227)" /><rect x="21.202876450637888%" y="15.779845959852757%" width="6.977831101501197%" height="15.787670287497548%" fill="#0f380f" fill-opacity="0.33489664453638057" transform="rotate(4.578568870195054 21.202876450637888 15.779845959852757)" /><rect x="58.77641311916839%" y="18.876875785560053%" width="10.17148383278223%" height="16.562384242294385%" fill="#0f380f" fill-opacity="0.2117959779213353" transform="rotate(0.4182154849564874 58.77641311916839 18.876875785560053)" /><rect x="84.88781468115971%" y="28.498793625961515%" width="2.1017088594048077%" height="5.521789312028691%" fill="#0f380f" fill-opacity="0.12469127417788325" transform="rotate(-2.413789158222313 84.88781468115971 28.498793625961515)" /><rect x="64.36140317387317%" y="38.38462417957146%" width="11.631446823779713%" height="17.524185670629755%" fill="#0f380f" fill-opacity="0.18512223192789484" transform="rotate(-5.122831254210267 64.36140317387317 38.38462417957146)" /><rect x="26.439955336029584%" y="63.42589704377455%" width="6.090405149762125%" height="5.20730682004829%" fill="#0f380f" fill-opacity="0.13116903685079978" transform="rotate(0.04825495771518007 26.439955336029584 63.42589704377455)" />
    <text x="50%" y="50%" font-family="monospace" font-size="24" fill="#2e5c2e" opacity="0.4" 
          text-anchor="middle" dominant-baseline="middle" 
          transform="rotate(90, 100, 100)">ROTATE</text>
    <!-- Add more noise on top -->
    <rect x="0" y="0" width="100%" height="100%" fill="url(#noise)" opacity="0.2"/>
    <defs>
        <filter id="noise">
            <feTurbulence type="fractalNoise" baseFrequency="0.8" numOctaves="3" stitchTiles="stitch"/>
        </filter>
    </defs>
</svg>