
<svg width="200" height="200" viewBox="0 0 200 200" xmlns="http://www.w3.org/2000/svg">
    <rect width="100%" height="100%" fill="#1a2f1a" />
    <rect x="42.43409029544836%" y="63.072468802152656%" width="2.507449811180999%" height="13.59744492478037%" fill="#0f380f" fill-opacity="0.12653940156970025" transform="rotate(-2.776546134976819 42.43409029544836 63.072468802152656)" /><rect x="10.43265240247101%" y="22.36856815936892%" width="9.886110442126046%" height="13.947585841163502%" fill="#0f380f" fill-opacity="0.36403366394787284" transform="rotate(-1.9429541666838883 10.43265240247101 22.36856815936892)" /><rect x="80.78155855820972%" y="41.07314053866718%" width="6.471286337937338%" height="21.821574680592168%" fill="#0f380f" fill-opacity="0.12930577045533323" transform="rotate(-7.729440152131359 80.78155855820972 41.07314053866718)" /><rect x="22.126307930269217%" y="59.14024947317985%" width="10.451036771774923%" height="13.047848122570036%" fill="#0f380f" fill-opacity="0.23349332120660884" transform="rotate(-1.2406005806416829 22.126307930269217 59.14024947317985)" /><rect x="70.34049881160261%" y="39.53283583847082%" width="3.3672947238728215%" height="23.998302715810787%" fill="#0f380f" fill-opacity="0.3918704805765222" transform="rotate(-3.9269774453113975 70.34049881160261 39.53283583847082)" /><rect x="53.08869123772338%" y="1.4804099509024393%" width="7.1666462440044745%" height="23.63498070311048%" fill="#0f380f" fill-opacity="0.32153994475621234" transform="rotate(0.8197304043652505 53.08869123772338 1.4804099509024393)" /><rect x="94.46624250400222%" y="69.1621517131951%" width="9.975819767253487%" height="10.629861850161186%" fill="#0f380f" fill-opacity="0.23305955980906518" transform="rotate(5.12906544035398 94.46624250400222 69.1621517131951)" /><rect x="73.31664616307461%" y="79.392751360285%" width="6.582675722761495%" height="20.409799770617482%" fill="#0f380f" fill-opacity="0.15552933053828844" transform="rotate(1.8855606251841586 73.31664616307461 79.392751360285)" /><rect x="28.743970339921265%" y="63.01656295070131%" width="6.609941983452359%" height="6.292659713458006%" fill="#0f380f" fill-opacity="0.2571273044606887" transform="rotate(-4.490044563117905 28.743970339921265 63.01656295070131)" /><rect x="94.93481161114542%" y="40.740190342393504%" width="11.947929856890218%" height="13.83635021728053%" fill="#0f380f" fill-opacity="0.23861237680110006" transform="rotate(7.926990707839579 94.93481161114542 40.740190342393504)" /><rect x="34.320983518350154%" y="45.09788874675606%" width="4.901851124653085%" height="10.050460040785653%" fill="#0f380f" fill-opacity="0.33833961806604906" transform="rotate(0.2921915843939882 34.320983518350154 45.09788874675606)" /><rect x="2.7457870470692924%" y="78.7991798023713%" width="8.314973156386806%" height="20.218755405985462%" fill="#0f380f" fill-opacity="0.10835101813138569" transform="rotate(-5.8593918283059265 2.7457870470692924 78.7991798023713)" /><rect x="39.490548836897965%" y="21.528308418707386%" width="4.431155947137405%" height="11.16440601441724%" fill="#0f380f" fill-opacity="0.3763632871758583" transform="rotate(-4.977593668926827 39.490548836897965 21.528308418707386)" /><rect x="16.660994348733116%" y="28.008153166730608%" width="10.131677793542929%" height="13.808443314897698%" fill="#0f380f" fill-opacity="0.20352708000197395" transform="rotate(7.826404094441809 16.660994348733116 28.008153166730608)" /><rect x="59.65980462508621%" y="51.49651762400698%" width="4.477158475742584%" height="14.483436996725121%" fill="#0f380f" fill-opacity="0.17288636456695378" transform="rotate(7.429336535616347 59.65980462508621 51.49651762400698)" /><rect x="75.67851695183316%" y="76.500974476856%" width="4.049005283613252%" height="23.243754190867804%" fill="#0f380f" fill-opacity="0.3135886104352926" transform="rotate(-9.056595975218684 75.67851695183316 76.500974476856)" /><rect x="2.10777219426187%" y="56.23816878328002%" width="2.7805068483504964%" height="22.778629060569923%" fill="#0f380f" fill-opacity="0.19266559176244458" transform="rotate(3.2758451013077448 2.10777219426187 56.23816878328002)" /><rect x="99.09500010903974%" y="67.04304217743545%" width="6.640367183683526%" height="24.03986020828388%" fill="#0f380f" fill-opacity="0.33876095918277116" transform="rotate(-9.214922915874899 99.09500010903974 67.04304217743545)" /><rect x="45.08149264626217%" y="11.00713486258612%" width="2.112251553703744%" height="7.496492872252447%" fill="#0f380f" fill-opacity="0.30555780040079517" transform="rotate(8.648491782931234 45.08149264626217 11.00713486258612)" /><rect x="32.42372362196815%" y="22.65734112347626%" width="5.858953769299638%" height="17.351772252617494%" fill="#0f380f" fill-opacity="0.2767409591944336" transform="rotate(-7.376677604627093 32.42372362196815 22.65734112347626)" /><rect x="14.176971607754773%" y="47.58536201235828%" width="5.750442553287559%" height="7.07555773909241%" fill="#0f380f" fill-opacity="0.17287866836022173" transform="rotate(8.368994302604275 14.176971607754773 47.58536201235828)" /><rect x="76.2910923736632%" y="42.5293477575398%" width="9.650318650837473%" height="20.188983504858292%" fill="#0f380f" fill-opacity="0.3498077093528222" transform="rotate(4.244848797884464 76.2910923736632 42.5293477575398)" /><rect x="77.84332801702489%" y="79.21641747700488%" width="8.610661320001263%" height="9.820328636690947%" fill="#0f380f" fill-opacity="0.3850127603494956" transform="rotate(-7.570145562167642 77.84332801702489 79.21641747700488)" /><rect x="42.62407427626334%" y="8.298306503707986%" width="4.003960960672181%" height="19.92635393042155%" fill="#0f380f" fill-opacity="0.17764307754257558" transform="rotate(5.790114918008335 42.62407427626334 8.298306503707986)" /><rect x="37.287030702332125%" y="57.13121924358079%" width="5.710184785570492%" height="17.829581280713526%" fill="#0f380f" fill-opacity="0.3516661705524361" transform="rotate(5.179297185862401 37.287030702332125 57.13121924358079)" /><rect x="33.16028418070388%" y="67.08917902282312%" width="2.582952432749594%" height="15.419295132683066%" fill="#0f380f" fill-opacity="0.1528248423663749" transform="rotate(-7.847116703598507 33.16028418070388 67.08917902282312)" /><rect x="41.179542241688594%" y="21.17512546548157%" width="9.141445770616475%" height="13.97654520352928%" fill="#0f380f" fill-opacity="0.3307451130111464" transform="rotate(1.841790988770608 41.179542241688594 21.17512546548157)" /><rect x="64.99923416739094%" y="98.62547877962902%" width="8.390804022161994%" height="23.952924436641027%" fill="#0f380f" fill-opacity="0.3725848457214228" transform="rotate(-9.922508942035913 64.99923416739094 98.62547877962902)" /><rect x="2.781140034526186%" y="98.51106385822271%" width="10.849043965600863%" height="24.52801204563932%" fill="#0f380f" fill-opacity="0.33135464909443557" transform="rotate(2.470873922348357 2.781140034526186 98.51106385822271)" /><rect x="28.63717170025354%" y="67.2805843326024%" width="5.93327535020541%" height="9.01755805944992%" fill="#0f380f" fill-opacity="0.14469194812623404" transform="rotate(9.989304343010932 28.63717170025354 67.2805843326024)" /><rect x="6.00763366649939%" y="75.38334356042374%" width="6.08102709747478%" height="18.896162746130933%" fill="#0f380f" fill-opacity="0.24230447869545363" transform="rotate(-8.938210558583146 6.00763366649939 75.38334356042374)" /><rect x="77.60696049479337%" y="46.798822142099695%" width="3.2041410044413627%" height="21.69555198180562%" fill="#0f380f" fill-opacity="0.20798466494379936" transform="rotate(-0.7373905265713017 77.60696049479337 46.798822142099695)" /><rect x="96.85133534262827%" y="94.76759973430129%" width="8.951617843524556%" height="13.557727773629193%" fill="#0f380f" fill-opacity="0.17688751042214113" transform="rotate(-1.9808595377009084 96.85133534262827 94.76759973430129)" /><rect x="30.823569457027823%" y="38.86483065797882%" width="11.257149404971662%" height="21.290551116742947%" fill="#0f380f" fill-opacity="0.36887295894234284" transform="rotate(-4.453846336931355 30.823569457027823 38.86483065797882)" /><rect x="43.8455084199327%" y="78.84912486654355%" width="5.508686871332667%" height="9.266502024410297%" fill="#0f380f" fill-opacity="0.25552617031752817" transform="rotate(-5.05260812611472 43.8455084199327 78.84912486654355)" /><rect x="77.32467046435815%" y="9.034465882050824%" width="10.843657005164555%" height="13.808385189411489%" fill="#0f380f" fill-opacity="0.38675236940515734" transform="rotate(4.445815653493456 77.32467046435815 9.034465882050824)" /><rect x="74.71662699761148%" y="12.85044137838167%" width="7.905537645105907%" height="7.704705198620829%" fill="#0f380f" fill-opacity="0.1698704202918484" transform="rotate(3.5583918220626476 74.71662699761148 12.85044137838167)" /><rect x="42.41930220831351%" y="74.51856731783477%" width="8.83609663194083%" height="11.675277396168761%" fill="#0f380f" fill-opacity="0.1298832734964263" transform="rotate(-7.450889532287888 42.41930220831351 74.51856731783477)" /><rect x="42.2285596479932%" y="15.091209583635301%" width="7.291844372409336%" height="8.875321301183394%" fill="#0f380f" fill-opacity="0.3707375044791875" transform="rotate(7.503860505017968 42.2285596479932 15.091209583635301)" /><rect x="28.6077058975024%" y="79.95820518149421%" width="8.598822089790202%" height="7.9085713755054705%" fill="#0f380f" fill-opacity="0.2305402476372066" transform="rotate(6.56851439088048 28.6077058975024 79.95820518149421)" /><rect x="89.68761409318502%" y="63.47456667366511%" width="8.079215837080623%" height="23.14472393710104%" fill="#0f380f" fill-opacity="0.30771236757827225" transform="rotate(-6.450773588662406 89.68761409318502 63.47456667366511)" /><rect x="35.83718277211627%" y="3.372842001053933%" width="2.760933460676262%" height="17.64391833971514%" fill="#0f380f" fill-opacity="0.26262952877507995" transform="rotate(6.099948631789886 35.83718277211627 3.372842001053933)" /><rect x="52.263566902894624%" y="5.60874372898904%" width="5.220187993658945%" height="15.650660585391499%" fill="#0f380f" fill-opacity="0.14434367417235222" transform="rotate(2.917318426343421 52.263566902894624 5.60874372898904)" /><rect x="68.70671731369373%" y="76.92721850978232%" width="2.8523052877939485%" height="24.168069701669552%" fill="#0f380f" fill-opacity="0.2413993928762238" transform="rotate(-9.16581266217853 68.70671731369373 76.92721850978232)" /><rect x="90.54936868088396%" y="65.18205756999025%" width="3.4667670644010276%" height="21.648324339488354%" fill="#0f380f" fill-opacity="0.1991278162242906" transform="rotate(-9.713095406638361 90.54936868088396 65.18205756999025)" /><rect x="15.113001388581315%" y="25.205545388408023%" width="7.9649932315163925%" height="6.6703410197684665%" fill="#0f380f" fill-opacity="0.1311212274280883" transform="rotate(-8.884499057582039 15.113001388581315 25.205545388408023)" /><rect x="95.11197692287433%" y="31.61222552131321%" width="6.314656024309955%" height="7.420997921321348%" fill="#0f380f" fill-opacity="0.1618502831517469" transform="rotate(5.355124312408181 95.11197692287433 31.61222552131321)" /><rect x="21.460065559339224%" y="21.493563311701468%" width="3.0344375462840647%" height="17.577792531944866%" fill="#0f380f" fill-opacity="0.3246354348784556" transform="rotate(0.12459426037816534 21.460065559339224 21.493563311701468)" /><rect x="92.26848865456932%" y="91.15365170711519%" width="3.8296637186999796%" height="10.335654055494896%" fill="#0f380f" fill-opacity="0.2522470087932572" transform="rotate(-7.823164775166218 92.26848865456932 91.15365170711519)" /><rect x="24.154051015287493%" y="61.48130574381735%" width="4.41074992821705%" height="14.545161379453704%" fill="#0f380f" fill-opacity="0.18210234664138347" transform="rotate(6.08910547404837 24.154051015287493 61.48130574381735)" />
    <text x="50%" y="50%" font-family="monospace" font-size="24" fill="#2e5c2e" opacity="0.4" 
          text-anchor="middle" dominant-baseline="middle" 
          transform="rotate(90, 100, 100)">ROTATE</text>
    <!-- Add more noise on top -->
    <rect x="0" y="0" width="100%" height="100%" fill="url(#noise)" opacity="0.2"/>
    <defs>
        <filter id="noise">
            <feTurbulence type="fractalNoise" baseFrequency="0.8" numOctaves="3" stitchTiles="stitch"/>
        </filter>
    </defs>
</svg>