
<svg width="200" height="200" viewBox="0 0 200 200" xmlns="http://www.w3.org/2000/svg">
    <rect width="100%" height="100%" fill="#1a2f1a" />
    <rect x="42.571916395463546%" y="37.05740678695562%" width="3.347173528535018%" height="11.657081037590872%" fill="#0f380f" fill-opacity="0.3081081191351991" transform="rotate(-3.6028296755727096 42.571916395463546 37.05740678695562)" /><rect x="13.89305311737793%" y="98.9994115666752%" width="4.407189474890576%" height="23.145475766394974%" fill="#0f380f" fill-opacity="0.3958372889570947" transform="rotate(-9.10827130677005 13.89305311737793 98.9994115666752)" /><rect x="66.8838901506869%" y="60.66968715807586%" width="9.86356565149242%" height="11.558496969960107%" fill="#0f380f" fill-opacity="0.17539313513511073" transform="rotate(-2.870461261878619 66.8838901506869 60.66968715807586)" /><rect x="73.87951194365596%" y="72.93588355324691%" width="10.757723456445905%" height="14.61781400845491%" fill="#0f380f" fill-opacity="0.2428696885271751" transform="rotate(0.32194263240105414 73.87951194365596 72.93588355324691)" /><rect x="95.50466581879662%" y="95.84757710064345%" width="4.411967798185074%" height="7.110032624476994%" fill="#0f380f" fill-opacity="0.24277621648407338" transform="rotate(0.374965426573457 95.50466581879662 95.84757710064345)" /><rect x="79.117753709532%" y="55.726048393725016%" width="8.075584737897257%" height="20.77881303471787%" fill="#0f380f" fill-opacity="0.3532127812118889" transform="rotate(4.931728083590654 79.117753709532 55.726048393725016)" /><rect x="49.43119407260909%" y="33.89224519060898%" width="6.007592568243132%" height="5.607717555137968%" fill="#0f380f" fill-opacity="0.1332728918502638" transform="rotate(-4.656859936379762 49.43119407260909 33.89224519060898)" /><rect x="14.561384789370402%" y="16.039279484019385%" width="10.244225826423415%" height="24.998779352705192%" fill="#0f380f" fill-opacity="0.2192839247949679" transform="rotate(-7.274399466458177 14.561384789370402 16.039279484019385)" /><rect x="53.12597524212484%" y="29.395292775682325%" width="11.55432441011947%" height="19.026968594281808%" fill="#0f380f" fill-opacity="0.338074894464508" transform="rotate(8.977047300580018 53.12597524212484 29.395292775682325)" /><rect x="18.398190608207422%" y="80.09450514589383%" width="11.19607643723489%" height="14.686792768640302%" fill="#0f380f" fill-opacity="0.35330911698913725" transform="rotate(9.030497821618912 18.398190608207422 80.09450514589383)" /><rect x="14.929271374242447%" y="86.69048586202625%" width="8.29477304843756%" height="13.7019802971393%" fill="#0f380f" fill-opacity="0.3916811900161117" transform="rotate(3.608613551655788 14.929271374242447 86.69048586202625)" /><rect x="41.15877447401681%" y="46.87349426422198%" width="8.473213113277236%" height="13.589610454941463%" fill="#0f380f" fill-opacity="0.26692943361773175" transform="rotate(-5.43743407445481 41.15877447401681 46.87349426422198)" /><rect x="7.336052079935806%" y="79.80632655900833%" width="3.0555538794116948%" height="14.05635748654371%" fill="#0f380f" fill-opacity="0.2693888295997354" transform="rotate(7.91918283552933 7.336052079935806 79.80632655900833)" /><rect x="25.36148080739996%" y="44.66270021639858%" width="7.038299198497915%" height="6.134171450132763%" fill="#0f380f" fill-opacity="0.3080643266366192" transform="rotate(-7.5047406463995365 25.36148080739996 44.66270021639858)" /><rect x="48.37784569911013%" y="12.455072832681036%" width="4.729159876907953%" height="6.313074333079327%" fill="#0f380f" fill-opacity="0.2244477121806926" transform="rotate(6.60384340662614 48.37784569911013 12.455072832681036)" /><rect x="79.40160585303647%" y="73.50077200292384%" width="5.8322723911324%" height="5.002188367838842%" fill="#0f380f" fill-opacity="0.21473349388463406" transform="rotate(4.695162456261372 79.40160585303647 73.50077200292384)" /><rect x="38.412591799087224%" y="9.899124833482952%" width="10.469538259389836%" height="6.509825762680008%" fill="#0f380f" fill-opacity="0.1398939935767294" transform="rotate(-6.5207120979387545 38.412591799087224 9.899124833482952)" /><rect x="88.11951796889267%" y="89.9031063178761%" width="5.686159075832112%" height="6.095334798959531%" fill="#0f380f" fill-opacity="0.13616992140048315" transform="rotate(9.994549594936512 88.11951796889267 89.9031063178761)" /><rect x="10.560238092854535%" y="5.056141693608785%" width="3.917226495823%" height="7.592807084626165%" fill="#0f380f" fill-opacity="0.19370752719518297" transform="rotate(-9.022292175602162 10.560238092854535 5.056141693608785)" /><rect x="4.5910988333242475%" y="21.402635496906143%" width="10.363994262561482%" height="5.491010906286268%" fill="#0f380f" fill-opacity="0.15204322285710486" transform="rotate(2.5035775654530177 4.5910988333242475 21.402635496906143)" /><rect x="20.622202412058865%" y="18.14316188452486%" width="6.015412910155167%" height="12.377557967257912%" fill="#0f380f" fill-opacity="0.34934429848417625" transform="rotate(-1.7759325735088805 20.622202412058865 18.14316188452486)" /><rect x="66.71997417275641%" y="33.7987849982221%" width="11.100538588589949%" height="22.178240768803732%" fill="#0f380f" fill-opacity="0.3629202064959052" transform="rotate(6.1017512309003585 66.71997417275641 33.7987849982221)" /><rect x="90.55406793784812%" y="11.508705687805898%" width="11.44146519097904%" height="17.17622152641337%" fill="#0f380f" fill-opacity="0.20857897570523148" transform="rotate(2.533749109809362 90.55406793784812 11.508705687805898)" /><rect x="23.424765804929404%" y="64.04280925242243%" width="9.236899292462168%" height="12.920728920219023%" fill="#0f380f" fill-opacity="0.18216770657858383" transform="rotate(-4.7230735332384715 23.424765804929404 64.04280925242243)" /><rect x="15.827049923752734%" y="38.70604075952217%" width="7.263613225792341%" height="22.505879455522894%" fill="#0f380f" fill-opacity="0.11015557395645202" transform="rotate(6.548904666724724 15.827049923752734 38.70604075952217)" /><rect x="3.3289343502614144%" y="28.245241339110827%" width="3.041527215321266%" height="21.465409995544164%" fill="#0f380f" fill-opacity="0.21625990877353773" transform="rotate(-5.733102491026938 3.3289343502614144 28.245241339110827)" /><rect x="85.68660686489807%" y="44.635923184019056%" width="6.1961249823526146%" height="8.152170641920453%" fill="#0f380f" fill-opacity="0.36771019649499814" transform="rotate(-8.337669731831925 85.68660686489807 44.635923184019056)" /><rect x="54.153173956111246%" y="41.71272465871104%" width="6.895733135014526%" height="21.760835061635433%" fill="#0f380f" fill-opacity="0.18536473107806156" transform="rotate(4.174793169310526 54.153173956111246 41.71272465871104)" /><rect x="20.009014688303473%" y="24.72493318438581%" width="5.194706876428368%" height="5.576938184744094%" fill="#0f380f" fill-opacity="0.24217929318217993" transform="rotate(6.808711673074704 20.009014688303473 24.72493318438581)" /><rect x="70.44222476544078%" y="49.58275694470073%" width="5.397798073713179%" height="17.350303437567113%" fill="#0f380f" fill-opacity="0.3473958054484502" transform="rotate(8.476816728142843 70.44222476544078 49.58275694470073)" /><rect x="34.190898021167236%" y="92.82819436124517%" width="9.917575168330139%" height="11.504453311886936%" fill="#0f380f" fill-opacity="0.30030601738650764" transform="rotate(-8.823652354673525 34.190898021167236 92.82819436124517)" /><rect x="78.56094152644148%" y="10.728202639009298%" width="8.51376778572162%" height="20.222657913680187%" fill="#0f380f" fill-opacity="0.2055359569507253" transform="rotate(-0.21827006815368577 78.56094152644148 10.728202639009298)" /><rect x="38.92816624676153%" y="79.25179993931815%" width="8.003791321848396%" height="16.074025323012503%" fill="#0f380f" fill-opacity="0.13721114561945724" transform="rotate(9.520791579353766 38.92816624676153 79.25179993931815)" /><rect x="37.953847982181074%" y="55.26477198851265%" width="3.2437450304476827%" height="20.274081986245598%" fill="#0f380f" fill-opacity="0.14202234738837224" transform="rotate(0.17966600212243655 37.953847982181074 55.26477198851265)" /><rect x="43.7271571903738%" y="11.590146277464786%" width="6.00216111997178%" height="8.424189836204137%" fill="#0f380f" fill-opacity="0.36722149834807494" transform="rotate(4.486938628748021 43.7271571903738 11.590146277464786)" /><rect x="45.092024562118716%" y="27.112347605261313%" width="6.019680399808361%" height="13.049958028347222%" fill="#0f380f" fill-opacity="0.3343445792935115" transform="rotate(-1.310902090790595 45.092024562118716 27.112347605261313)" /><rect x="48.85947507971945%" y="27.42866669346681%" width="11.232982208458592%" height="19.38640849955223%" fill="#0f380f" fill-opacity="0.1646529455660144" transform="rotate(9.384864486594541 48.85947507971945 27.42866669346681)" /><rect x="13.678025270852089%" y="52.32633793797139%" width="6.150298595480396%" height="13.720272782559825%" fill="#0f380f" fill-opacity="0.14519390359411533" transform="rotate(-2.180029926019591 13.678025270852089 52.32633793797139)" /><rect x="64.1262042629297%" y="71.28462150225465%" width="5.053607179185648%" height="7.906152879716874%" fill="#0f380f" fill-opacity="0.1245606839545441" transform="rotate(0.5561511856559491 64.1262042629297 71.28462150225465)" /><rect x="49.849676176026215%" y="97.61273867336435%" width="11.947095480075358%" height="18.018673974061155%" fill="#0f380f" fill-opacity="0.38889371210419366" transform="rotate(0.29437262459134317 49.849676176026215 97.61273867336435)" /><rect x="17.07258666680841%" y="50.032164547412684%" width="2.175040587106725%" height="24.615446324372638%" fill="#0f380f" fill-opacity="0.13415739121417244" transform="rotate(2.3334681606529006 17.07258666680841 50.032164547412684)" /><rect x="49.94002576631017%" y="44.01204076952268%" width="2.2964616236188125%" height="9.104936753516622%" fill="#0f380f" fill-opacity="0.21215247241738622" transform="rotate(9.176279588572655 49.94002576631017 44.01204076952268)" /><rect x="17.366010262851507%" y="63.68812890921326%" width="11.878173412862774%" height="13.569548599030517%" fill="#0f380f" fill-opacity="0.17477167900041785" transform="rotate(8.444170341076564 17.366010262851507 63.68812890921326)" /><rect x="45.58187310670172%" y="37.85006963889085%" width="10.906359599593502%" height="22.128358780015972%" fill="#0f380f" fill-opacity="0.12838968583781435" transform="rotate(9.784474952403318 45.58187310670172 37.85006963889085)" /><rect x="86.68853309506444%" y="56.32420409843291%" width="2.9720651304487715%" height="15.563409476464717%" fill="#0f380f" fill-opacity="0.2193470708111687" transform="rotate(-4.175132136462905 86.68853309506444 56.32420409843291)" /><rect x="52.940698380926875%" y="67.73803682907584%" width="3.7818034042071496%" height="22.454102929775104%" fill="#0f380f" fill-opacity="0.1885746499591034" transform="rotate(9.717446347881015 52.940698380926875 67.73803682907584)" /><rect x="60.75116602932285%" y="42.612855643638916%" width="3.274685155197477%" height="16.7875906390943%" fill="#0f380f" fill-opacity="0.3940248000414094" transform="rotate(-2.8137106450186185 60.75116602932285 42.612855643638916)" /><rect x="45.447276032559905%" y="1.974691947258378%" width="7.169687220155107%" height="9.376231965812318%" fill="#0f380f" fill-opacity="0.13008804255253623" transform="rotate(4.061514309870773 45.447276032559905 1.974691947258378)" /><rect x="12.907809547873573%" y="92.69710181874284%" width="5.955716681720292%" height="9.291076053829784%" fill="#0f380f" fill-opacity="0.2980641476813076" transform="rotate(2.6490884835944186 12.907809547873573 92.69710181874284)" /><rect x="37.73601541504733%" y="62.935321053202244%" width="7.146595548271512%" height="7.237556562537215%" fill="#0f380f" fill-opacity="0.24921829256151798" transform="rotate(-0.6616757394342532 37.73601541504733 62.935321053202244)" />
    <text x="50%" y="50%" font-family="monospace" font-size="24" fill="#2e5c2e" opacity="0.4" 
          text-anchor="middle" dominant-baseline="middle" 
          transform="rotate(90, 100, 100)">ROTATE</text>
    <!-- Add more noise on top -->
    <rect x="0" y="0" width="100%" height="100%" fill="url(#noise)" opacity="0.2"/>
    <defs>
        <filter id="noise">
            <feTurbulence type="fractalNoise" baseFrequency="0.8" numOctaves="3" stitchTiles="stitch"/>
        </filter>
    </defs>
</svg>