
<svg width="200" height="200" viewBox="0 0 200 200" xmlns="http://www.w3.org/2000/svg">
    <rect width="100%" height="100%" fill="#1a2f1a" />
    <rect x="19.568453143517463%" y="43.888008762651666%" width="6.64888478281615%" height="23.686280031385543%" fill="#0f380f" fill-opacity="0.3981821560821758" transform="rotate(9.11986565123247 19.568453143517463 43.888008762651666)" /><rect x="92.94112805018497%" y="35.40469724480464%" width="4.1086412794169%" height="24.6769394401305%" fill="#0f380f" fill-opacity="0.20131431561726498" transform="rotate(-0.20430370423902744 92.94112805018497 35.40469724480464)" /><rect x="20.33952619082784%" y="98.45347057442683%" width="6.582867311726354%" height="17.589066405623576%" fill="#0f380f" fill-opacity="0.3253321318269479" transform="rotate(3.1586045866961037 20.33952619082784 98.45347057442683)" /><rect x="15.752819201841106%" y="72.79850516363484%" width="5.740982775531184%" height="6.422288340295785%" fill="#0f380f" fill-opacity="0.27480188061286104" transform="rotate(6.224551877908112 15.752819201841106 72.79850516363484)" /><rect x="59.8574014254338%" y="41.118708244741256%" width="9.348718998823873%" height="14.090470385011034%" fill="#0f380f" fill-opacity="0.1567125190215038" transform="rotate(-6.152480943092047 59.8574014254338 41.118708244741256)" /><rect x="33.09975070419928%" y="17.08654529614366%" width="11.59038798934164%" height="18.402367734335066%" fill="#0f380f" fill-opacity="0.14794743529915358" transform="rotate(8.89268981953014 33.09975070419928 17.08654529614366)" /><rect x="18.926321402653535%" y="51.16762236526385%" width="9.069885760790147%" height="22.62605152664293%" fill="#0f380f" fill-opacity="0.12802304958987565" transform="rotate(-6.150277189951852 18.926321402653535 51.16762236526385)" /><rect x="36.967092382414975%" y="78.70091975735095%" width="9.216854314820313%" height="10.421555534573702%" fill="#0f380f" fill-opacity="0.2380316805685195" transform="rotate(-1.31232172600199 36.967092382414975 78.70091975735095)" /><rect x="93.7450165405644%" y="77.84701918842637%" width="2.9478952779566487%" height="22.263410128257902%" fill="#0f380f" fill-opacity="0.29762801459556176" transform="rotate(-8.684105223956971 93.7450165405644 77.84701918842637)" /><rect x="97.55447217294459%" y="2.5637142351025655%" width="11.194079732756597%" height="22.293384527618695%" fill="#0f380f" fill-opacity="0.2905752628027294" transform="rotate(-7.181822398283913 97.55447217294459 2.5637142351025655)" /><rect x="34.247014724141025%" y="68.11312278152954%" width="3.3012633879597124%" height="11.381942915084863%" fill="#0f380f" fill-opacity="0.2660090681172838" transform="rotate(0.21870701419698335 34.247014724141025 68.11312278152954)" /><rect x="89.70947166715959%" y="61.08845449226199%" width="3.2365584372814564%" height="6.209565519776243%" fill="#0f380f" fill-opacity="0.13952096198615432" transform="rotate(4.539367154664436 89.70947166715959 61.08845449226199)" /><rect x="65.19885348590208%" y="56.69381086790117%" width="9.089604747963538%" height="19.7467222122454%" fill="#0f380f" fill-opacity="0.2384204923593946" transform="rotate(-8.79287058780318 65.19885348590208 56.69381086790117)" /><rect x="38.60602507939742%" y="81.4611642237708%" width="8.099543787915566%" height="18.661505900735243%" fill="#0f380f" fill-opacity="0.2681798961205836" transform="rotate(1.5714781475269533 38.60602507939742 81.4611642237708)" /><rect x="41.12870035824664%" y="19.082651173277043%" width="2.7660094371414896%" height="10.587464317324926%" fill="#0f380f" fill-opacity="0.3292830083162288" transform="rotate(-5.127795389858436 41.12870035824664 19.082651173277043)" /><rect x="73.71315068126461%" y="26.676556777128102%" width="2.3934156285717814%" height="13.67538483185186%" fill="#0f380f" fill-opacity="0.1578257559226165" transform="rotate(3.2975601069807876 73.71315068126461 26.676556777128102)" /><rect x="73.47103541123698%" y="54.56772584311808%" width="5.71578980578621%" height="13.107787849503268%" fill="#0f380f" fill-opacity="0.19109884948369674" transform="rotate(-2.799595684587601 73.47103541123698 54.56772584311808)" /><rect x="1.7889628657847378%" y="97.56972349592121%" width="9.770880738905925%" height="19.518753355347314%" fill="#0f380f" fill-opacity="0.3624890075212083" transform="rotate(1.5803502692453044 1.7889628657847378 97.56972349592121)" /><rect x="80.25298745876087%" y="29.198111033393804%" width="5.031362045290484%" height="17.11519386815795%" fill="#0f380f" fill-opacity="0.34384709688971304" transform="rotate(-4.663281298367307 80.25298745876087 29.198111033393804)" /><rect x="9.75841938659926%" y="16.918104513621092%" width="11.685259156363005%" height="10.536519489838735%" fill="#0f380f" fill-opacity="0.19147509324251397" transform="rotate(4.898492604351894 9.75841938659926 16.918104513621092)" /><rect x="2.1139736209939253%" y="58.6466214606753%" width="11.408352838674073%" height="19.660346185519927%" fill="#0f380f" fill-opacity="0.28196323442742244" transform="rotate(2.2429579154716635 2.1139736209939253 58.6466214606753)" /><rect x="92.87785190239136%" y="62.72822403779909%" width="6.310268326773659%" height="16.473558807001346%" fill="#0f380f" fill-opacity="0.3814360040201319" transform="rotate(-8.781172210082213 92.87785190239136 62.72822403779909)" /><rect x="11.212407193158114%" y="59.50539761553244%" width="11.690695390853426%" height="12.314594368281679%" fill="#0f380f" fill-opacity="0.3930781259626335" transform="rotate(9.811790828845172 11.212407193158114 59.50539761553244)" /><rect x="63.45789013201023%" y="25.418843280718374%" width="11.275398319924532%" height="16.697409691823047%" fill="#0f380f" fill-opacity="0.3344748744083048" transform="rotate(5.3882398581394515 63.45789013201023 25.418843280718374)" /><rect x="66.55619920052042%" y="47.20561608027168%" width="6.14864626040194%" height="6.180661003490688%" fill="#0f380f" fill-opacity="0.14379383034020354" transform="rotate(3.1625950543466637 66.55619920052042 47.20561608027168)" /><rect x="43.711768219406345%" y="98.94151961633737%" width="2.813642174337149%" height="16.334489514509762%" fill="#0f380f" fill-opacity="0.33070749954095724" transform="rotate(4.004256488225252 43.711768219406345 98.94151961633737)" /><rect x="58.673523444221175%" y="24.16277046688764%" width="2.6917580699294126%" height="19.029857218112948%" fill="#0f380f" fill-opacity="0.3730235681197127" transform="rotate(8.057984675239616 58.673523444221175 24.16277046688764)" /><rect x="30.857947521434937%" y="31.138156653753967%" width="10.016359565983775%" height="14.876263112690943%" fill="#0f380f" fill-opacity="0.21307534545457352" transform="rotate(1.7103708903463186 30.857947521434937 31.138156653753967)" /><rect x="43.78780748258557%" y="69.48033963028331%" width="5.508767597760024%" height="20.37141364812979%" fill="#0f380f" fill-opacity="0.1776368572360065" transform="rotate(1.949684903591237 43.78780748258557 69.48033963028331)" /><rect x="71.58623253745883%" y="75.70431150888822%" width="3.1252455890826694%" height="13.925024710990899%" fill="#0f380f" fill-opacity="0.2559131951959569" transform="rotate(9.82421885209066 71.58623253745883 75.70431150888822)" /><rect x="80.93361319146835%" y="98.71522609291303%" width="7.088716381066347%" height="12.797153268434542%" fill="#0f380f" fill-opacity="0.14895810302966783" transform="rotate(-9.16951357693362 80.93361319146835 98.71522609291303)" /><rect x="4.466058687950847%" y="98.55769861050291%" width="8.911599970471977%" height="17.894429952622325%" fill="#0f380f" fill-opacity="0.109804229123109" transform="rotate(2.954826434270972 4.466058687950847 98.55769861050291)" /><rect x="14.973348931219599%" y="86.30977121451227%" width="6.919174347472204%" height="5.614992741132088%" fill="#0f380f" fill-opacity="0.13281255003891398" transform="rotate(6.39075229010103 14.973348931219599 86.30977121451227)" /><rect x="9.371362356033497%" y="84.97308640348749%" width="6.944746126128612%" height="15.18557583397957%" fill="#0f380f" fill-opacity="0.209437190218576" transform="rotate(0.5476649850621378 9.371362356033497 84.97308640348749)" /><rect x="57.069960631143914%" y="64.27201859524835%" width="3.078417510935792%" height="22.734540366295455%" fill="#0f380f" fill-opacity="0.2720989494938612" transform="rotate(6.93459191448283 57.069960631143914 64.27201859524835)" /><rect x="1.628426378694403%" y="78.65593534441726%" width="11.126967363242247%" height="23.184718566415896%" fill="#0f380f" fill-opacity="0.2693753684768846" transform="rotate(-3.640737150089013 1.628426378694403 78.65593534441726)" /><rect x="56.50040289818832%" y="13.590751729617478%" width="10.04387271176471%" height="5.426559246382013%" fill="#0f380f" fill-opacity="0.31263660759431167" transform="rotate(4.873738422922871 56.50040289818832 13.590751729617478)" /><rect x="67.47798508425976%" y="69.6199492038796%" width="2.7039142237293183%" height="18.385169612442287%" fill="#0f380f" fill-opacity="0.16520505756509513" transform="rotate(2.7329093035849894 67.47798508425976 69.6199492038796)" /><rect x="82.56631223513537%" y="1.6110951885785485%" width="8.833110422237723%" height="9.485188905233091%" fill="#0f380f" fill-opacity="0.13904726675289847" transform="rotate(-4.586090171094257 82.56631223513537 1.6110951885785485)" /><rect x="65.21982862178128%" y="86.84948971202053%" width="3.2655798754348635%" height="5.0957941919543455%" fill="#0f380f" fill-opacity="0.11438855562783001" transform="rotate(7.515492265087396 65.21982862178128 86.84948971202053)" /><rect x="87.83450185705391%" y="4.612458271578812%" width="11.265209465045638%" height="7.870807072680015%" fill="#0f380f" fill-opacity="0.23543749464499997" transform="rotate(5.047621696475765 87.83450185705391 4.612458271578812)" /><rect x="10.543592737541507%" y="24.013243946125094%" width="11.777453978479038%" height="5.438389206836451%" fill="#0f380f" fill-opacity="0.2693987167481148" transform="rotate(-4.755306633280676 10.543592737541507 24.013243946125094)" /><rect x="34.824723496180084%" y="6.3287620528908795%" width="8.1447701806057%" height="17.756648494013444%" fill="#0f380f" fill-opacity="0.34548356302332695" transform="rotate(7.0712272142023345 34.824723496180084 6.3287620528908795)" /><rect x="50.14306957119339%" y="6.12664620570742%" width="4.364489675770125%" height="5.58229018340487%" fill="#0f380f" fill-opacity="0.33340153650097415" transform="rotate(-9.09865189493955 50.14306957119339 6.12664620570742)" /><rect x="45.644148834231615%" y="65.9828405700729%" width="9.67846238163023%" height="20.541986623606583%" fill="#0f380f" fill-opacity="0.34769920648006925" transform="rotate(0.47159809357527216 45.644148834231615 65.9828405700729)" /><rect x="56.2834593122073%" y="64.31518433258452%" width="7.1198133436511695%" height="6.701608174022848%" fill="#0f380f" fill-opacity="0.21337879762213177" transform="rotate(8.843339721563005 56.2834593122073 64.31518433258452)" /><rect x="12.297493915891522%" y="55.42706715319521%" width="8.245077910135754%" height="12.089019497155597%" fill="#0f380f" fill-opacity="0.24315055896576462" transform="rotate(-8.42269848412175 12.297493915891522 55.42706715319521)" /><rect x="5.313651429124533%" y="1.6368045286784039%" width="6.771203340758547%" height="7.984360085361781%" fill="#0f380f" fill-opacity="0.21940050934770342" transform="rotate(-6.402045657243618 5.313651429124533 1.6368045286784039)" /><rect x="97.17746615218216%" y="11.066350835589445%" width="8.849758977926836%" height="20.411623625930453%" fill="#0f380f" fill-opacity="0.3228083787831556" transform="rotate(5.79940722668535 97.17746615218216 11.066350835589445)" /><rect x="99.15704176782036%" y="19.130242200817595%" width="10.543121924648151%" height="7.385806932752081%" fill="#0f380f" fill-opacity="0.2776924965358094" transform="rotate(-9.444693194684692 99.15704176782036 19.130242200817595)" />
    <text x="50%" y="50%" font-family="monospace" font-size="24" fill="#2e5c2e" opacity="0.4" 
          text-anchor="middle" dominant-baseline="middle" 
          transform="rotate(90, 100, 100)">ROTATE</text>
    <!-- Add more noise on top -->
    <rect x="0" y="0" width="100%" height="100%" fill="url(#noise)" opacity="0.2"/>
    <defs>
        <filter id="noise">
            <feTurbulence type="fractalNoise" baseFrequency="0.8" numOctaves="3" stitchTiles="stitch"/>
        </filter>
    </defs>
</svg>