
<svg width="200" height="200" viewBox="0 0 200 200" xmlns="http://www.w3.org/2000/svg">
    <rect width="100%" height="100%" fill="#1a2f1a" />
    <rect x="44.3225850359676%" y="63.725575831404036%" width="9.741892432771031%" height="20.34140498657284%" fill="#0f380f" fill-opacity="0.1771854733625991" transform="rotate(-8.498726871738679 44.3225850359676 63.725575831404036)" /><rect x="86.37790157418249%" y="54.105308865441884%" width="8.397362893458304%" height="17.44726350605795%" fill="#0f380f" fill-opacity="0.3476130224573635" transform="rotate(0.9007925505015653 86.37790157418249 54.105308865441884)" /><rect x="72.17029184357516%" y="65.03232220379608%" width="9.628828128624018%" height="21.491777209437164%" fill="#0f380f" fill-opacity="0.38756262881889325" transform="rotate(-5.356459346780069 72.17029184357516 65.03232220379608)" /><rect x="54.728100947825965%" y="82.8564052934139%" width="8.052515222539942%" height="24.44793393849518%" fill="#0f380f" fill-opacity="0.26623022329650614" transform="rotate(-0.9540128056448776 54.728100947825965 82.8564052934139)" /><rect x="4.87929519397392%" y="91.41898852471051%" width="6.462347721162906%" height="22.247985051447834%" fill="#0f380f" fill-opacity="0.30590474623814057" transform="rotate(4.250370907430261 4.87929519397392 91.41898852471051)" /><rect x="81.15143582333735%" y="41.26617985256391%" width="9.96954204383271%" height="5.436085762544469%" fill="#0f380f" fill-opacity="0.14149505798328163" transform="rotate(8.128063222041884 81.15143582333735 41.26617985256391)" /><rect x="65.11369262921043%" y="22.49259311619828%" width="6.575750725484403%" height="6.23422923946833%" fill="#0f380f" fill-opacity="0.21201413201309924" transform="rotate(5.217009956204466 65.11369262921043 22.49259311619828)" /><rect x="92.47319036688927%" y="97.28077461292729%" width="5.934041787961126%" height="7.96348743436297%" fill="#0f380f" fill-opacity="0.36598317524776525" transform="rotate(-2.8646502246796874 92.47319036688927 97.28077461292729)" /><rect x="66.89047899871%" y="55.61361900596323%" width="10.633544409666579%" height="11.888067828867932%" fill="#0f380f" fill-opacity="0.2255813454321186" transform="rotate(3.2163825086927584 66.89047899871 55.61361900596323)" /><rect x="71.38332672175179%" y="18.99434547933253%" width="5.898875591440606%" height="17.6579450202618%" fill="#0f380f" fill-opacity="0.1433464966551096" transform="rotate(-8.649874704971348 71.38332672175179 18.99434547933253)" /><rect x="55.160435685106734%" y="28.758833831452012%" width="5.55333521201513%" height="7.661886676003366%" fill="#0f380f" fill-opacity="0.27910811456875895" transform="rotate(9.26363300852081 55.160435685106734 28.758833831452012)" /><rect x="85.48968679376911%" y="37.37181964725026%" width="10.71102494394418%" height="21.702011426752193%" fill="#0f380f" fill-opacity="0.3079890632578118" transform="rotate(0.5358049498059962 85.48968679376911 37.37181964725026)" /><rect x="39.423743789117715%" y="89.50734171466935%" width="4.162303582693504%" height="24.85752862252753%" fill="#0f380f" fill-opacity="0.3297144670198442" transform="rotate(9.743074836397469 39.423743789117715 89.50734171466935)" /><rect x="97.2120374643072%" y="53.03937809896624%" width="3.2457387195752223%" height="9.530943947511696%" fill="#0f380f" fill-opacity="0.1150377924168976" transform="rotate(-5.057143903160377 97.2120374643072 53.03937809896624)" /><rect x="23.436451350886234%" y="14.63064112754482%" width="9.924160753915338%" height="7.098798653558147%" fill="#0f380f" fill-opacity="0.34995949342256616" transform="rotate(-2.063005771242774 23.436451350886234 14.63064112754482)" /><rect x="93.83940998837777%" y="9.833616600676109%" width="10.904660990882931%" height="9.19192507344601%" fill="#0f380f" fill-opacity="0.23044328890799018" transform="rotate(-2.7752065042378815 93.83940998837777 9.833616600676109)" /><rect x="49.06763204655705%" y="3.8300056084794476%" width="5.822245698170036%" height="19.69790417895009%" fill="#0f380f" fill-opacity="0.31536737972458906" transform="rotate(1.5181341072897059 49.06763204655705 3.8300056084794476)" /><rect x="70.00588884661363%" y="55.21608204651988%" width="11.943465892575238%" height="7.561851321861988%" fill="#0f380f" fill-opacity="0.16177949611173653" transform="rotate(-0.36775008572510437 70.00588884661363 55.21608204651988)" /><rect x="17.379324301244147%" y="11.869112091860568%" width="3.0217346633577797%" height="24.630804053038716%" fill="#0f380f" fill-opacity="0.3861118823218924" transform="rotate(2.0745434419207864 17.379324301244147 11.869112091860568)" /><rect x="97.09580644180801%" y="35.11762898340951%" width="7.331354332406991%" height="23.184018669277965%" fill="#0f380f" fill-opacity="0.2380572349010416" transform="rotate(6.440068030530362 97.09580644180801 35.11762898340951)" /><rect x="6.858655353323851%" y="11.16269675326842%" width="10.666898984266991%" height="11.783539276543085%" fill="#0f380f" fill-opacity="0.15378231950136506" transform="rotate(1.6542456868131943 6.858655353323851 11.16269675326842)" /><rect x="90.07956228790194%" y="99.90351854191289%" width="11.836594921277491%" height="5.409481536338334%" fill="#0f380f" fill-opacity="0.10139142271547279" transform="rotate(7.805390134255706 90.07956228790194 99.90351854191289)" /><rect x="70.16667506674834%" y="26.85769892005062%" width="2.386141531707752%" height="6.062605983834112%" fill="#0f380f" fill-opacity="0.19552960405109143" transform="rotate(-0.7909842395377531 70.16667506674834 26.85769892005062)" /><rect x="79.95848547823032%" y="78.36454444571783%" width="11.197008532299462%" height="21.77555789557276%" fill="#0f380f" fill-opacity="0.23606060582462005" transform="rotate(6.248425071618005 79.95848547823032 78.36454444571783)" /><rect x="1.6915172201855122%" y="32.41133211834697%" width="9.838202653521556%" height="19.97966406557517%" fill="#0f380f" fill-opacity="0.21066412313151567" transform="rotate(-6.947548922558462 1.6915172201855122 32.41133211834697)" /><rect x="7.416384457779468%" y="60.53834776763619%" width="11.746981195705423%" height="9.847248470941638%" fill="#0f380f" fill-opacity="0.28936729665357325" transform="rotate(-9.03019528875906 7.416384457779468 60.53834776763619)" /><rect x="62.22990987309447%" y="19.159503382107125%" width="9.421352955250466%" height="7.033924078288876%" fill="#0f380f" fill-opacity="0.16434006333472373" transform="rotate(1.7591613011590823 62.22990987309447 19.159503382107125)" /><rect x="0.630290899135133%" y="14.226397287411075%" width="10.16067571343689%" height="16.8079075557387%" fill="#0f380f" fill-opacity="0.12641826811388973" transform="rotate(1.394612942479025 0.630290899135133 14.226397287411075)" /><rect x="40.04706003898434%" y="72.36129410487904%" width="4.218971138170174%" height="24.169872893802918%" fill="#0f380f" fill-opacity="0.12948809257520638" transform="rotate(-5.4885629770628235 40.04706003898434 72.36129410487904)" /><rect x="57.32961531417624%" y="81.6022096016451%" width="10.295573696826011%" height="11.952248478998943%" fill="#0f380f" fill-opacity="0.21825358536317338" transform="rotate(-4.892908359935362 57.32961531417624 81.6022096016451)" /><rect x="56.559869157542074%" y="6.173442227056647%" width="11.559923912118329%" height="9.525114918274284%" fill="#0f380f" fill-opacity="0.2808071496570051" transform="rotate(0.6791571814094546 56.559869157542074 6.173442227056647)" /><rect x="51.147455726354366%" y="98.59800293191056%" width="10.289438088891565%" height="7.342045806834787%" fill="#0f380f" fill-opacity="0.18303895803302217" transform="rotate(8.130532980004197 51.147455726354366 98.59800293191056)" /><rect x="18.249660751880114%" y="6.377218243327276%" width="11.00608878766579%" height="18.89896697558637%" fill="#0f380f" fill-opacity="0.33022292522802743" transform="rotate(-1.79295036417167 18.249660751880114 6.377218243327276)" /><rect x="91.27049766820305%" y="68.52305157823402%" width="6.244806963955327%" height="20.91811902826974%" fill="#0f380f" fill-opacity="0.35470033262834144" transform="rotate(-2.909201901804151 91.27049766820305 68.52305157823402)" /><rect x="71.08948484064388%" y="65.09411677733955%" width="9.371972426223873%" height="13.815883200552182%" fill="#0f380f" fill-opacity="0.1050741594606866" transform="rotate(-6.284283743733612 71.08948484064388 65.09411677733955)" /><rect x="5.618995509679692%" y="21.691505715028637%" width="6.052054129394912%" height="9.778932156897133%" fill="#0f380f" fill-opacity="0.34321611818489123" transform="rotate(-1.716738709722616 5.618995509679692 21.691505715028637)" /><rect x="52.839566896985346%" y="1.4998666281614392%" width="3.6397686926963595%" height="24.65383486579103%" fill="#0f380f" fill-opacity="0.3566538585458642" transform="rotate(3.9127721127449746 52.839566896985346 1.4998666281614392)" /><rect x="77.06302014986106%" y="53.208303424610015%" width="3.356022878469566%" height="16.535797651471015%" fill="#0f380f" fill-opacity="0.11770478757406865" transform="rotate(4.095368765731708 77.06302014986106 53.208303424610015)" /><rect x="55.41522757497349%" y="94.8899721429053%" width="6.865157621598566%" height="9.403039722128286%" fill="#0f380f" fill-opacity="0.33895158383836455" transform="rotate(-3.426068652437264 55.41522757497349 94.8899721429053)" /><rect x="86.54038022685108%" y="21.460816234801662%" width="10.110333852892069%" height="10.963029165167036%" fill="#0f380f" fill-opacity="0.14644443901668242" transform="rotate(-0.41514142075215865 86.54038022685108 21.460816234801662)" /><rect x="31.12526026674646%" y="94.96670691816085%" width="8.464655519480118%" height="21.42222050897028%" fill="#0f380f" fill-opacity="0.10835838696252782" transform="rotate(-3.506647292206477 31.12526026674646 94.96670691816085)" /><rect x="81.16112481682963%" y="43.35375959721368%" width="8.302490236153085%" height="23.920903779369723%" fill="#0f380f" fill-opacity="0.2824000043054945" transform="rotate(-9.51444283467 81.16112481682963 43.35375959721368)" /><rect x="43.52714954862647%" y="80.20976353665273%" width="2.501567939881288%" height="12.49100355794154%" fill="#0f380f" fill-opacity="0.3762996335909561" transform="rotate(4.115934377017025 43.52714954862647 80.20976353665273)" /><rect x="96.2093670449361%" y="38.128222687972155%" width="11.111383550632873%" height="17.17367189969519%" fill="#0f380f" fill-opacity="0.20180814775367678" transform="rotate(-7.308979190295696 96.2093670449361 38.128222687972155)" /><rect x="77.31917730969023%" y="57.47659750007135%" width="5.592583002542313%" height="16.47168004934489%" fill="#0f380f" fill-opacity="0.2198957330615185" transform="rotate(1.2842140059227987 77.31917730969023 57.47659750007135)" /><rect x="90.81807277424372%" y="43.59953513263469%" width="3.905403990038975%" height="5.839758719292019%" fill="#0f380f" fill-opacity="0.30023165059746526" transform="rotate(-2.8863897367915703 90.81807277424372 43.59953513263469)" /><rect x="55.932110501356135%" y="71.25010948008762%" width="3.5843213432308234%" height="13.629045343061886%" fill="#0f380f" fill-opacity="0.3838616385273862" transform="rotate(-4.250171577427122 55.932110501356135 71.25010948008762)" /><rect x="93.52430500144327%" y="79.71189520225194%" width="5.620346187630545%" height="6.674095446226913%" fill="#0f380f" fill-opacity="0.16323016233022525" transform="rotate(1.7743246833357578 93.52430500144327 79.71189520225194)" /><rect x="61.27581892635904%" y="89.45926350709489%" width="9.901894690300683%" height="11.939927261302294%" fill="#0f380f" fill-opacity="0.11528668248843116" transform="rotate(2.2690052616446614 61.27581892635904 89.45926350709489)" /><rect x="46.53986576675725%" y="87.46391785232478%" width="4.894086702053484%" height="9.042557834185352%" fill="#0f380f" fill-opacity="0.1034129314948458" transform="rotate(5.579802899039093 46.53986576675725 87.46391785232478)" />
    <text x="50%" y="50%" font-family="monospace" font-size="24" fill="#2e5c2e" opacity="0.4" 
          text-anchor="middle" dominant-baseline="middle" 
          transform="rotate(90, 100, 100)">ROTATE</text>
    <!-- Add more noise on top -->
    <rect x="0" y="0" width="100%" height="100%" fill="url(#noise)" opacity="0.2"/>
    <defs>
        <filter id="noise">
            <feTurbulence type="fractalNoise" baseFrequency="0.8" numOctaves="3" stitchTiles="stitch"/>
        </filter>
    </defs>
</svg>