
<svg width="200" height="200" viewBox="0 0 200 200" xmlns="http://www.w3.org/2000/svg">
    <rect width="100%" height="100%" fill="#1a2f1a" />
    <rect x="18.891485737780734%" y="91.45067719344085%" width="8.750710562641661%" height="16.306910127975932%" fill="#0f380f" fill-opacity="0.23263943082670788" transform="rotate(-3.3656651759908796 18.891485737780734 91.45067719344085)" /><rect x="83.69009438826316%" y="18.812056769941922%" width="2.245581718018731%" height="7.4779252134038305%" fill="#0f380f" fill-opacity="0.3186432589908993" transform="rotate(-7.452844327848904 83.69009438826316 18.812056769941922)" /><rect x="1.9195272995449986%" y="22.48629470776834%" width="9.33590904022824%" height="20.026331562914194%" fill="#0f380f" fill-opacity="0.19369993942380598" transform="rotate(2.344136402329447 1.9195272995449986 22.48629470776834)" /><rect x="56.62738387535319%" y="60.92978217873283%" width="6.8375635633933385%" height="7.927505423619476%" fill="#0f380f" fill-opacity="0.17101020992990557" transform="rotate(-9.491545861723473 56.62738387535319 60.92978217873283)" /><rect x="10.253323621500742%" y="18.68766785677014%" width="10.883161351551326%" height="22.896099478753055%" fill="#0f380f" fill-opacity="0.3479355134383614" transform="rotate(8.092120382707527 10.253323621500742 18.68766785677014)" /><rect x="34.24287306541384%" y="99.757663130797%" width="3.3040620538662795%" height="7.765932058843459%" fill="#0f380f" fill-opacity="0.32678205121794773" transform="rotate(6.97256144012233 34.24287306541384 99.757663130797)" /><rect x="20.348992043930814%" y="66.39411769867837%" width="2.295691017499793%" height="6.65757592178238%" fill="#0f380f" fill-opacity="0.33508156010432644" transform="rotate(-5.2219513010263245 20.348992043930814 66.39411769867837)" /><rect x="20.99903526022553%" y="66.01503640827208%" width="10.885714403719797%" height="22.339929551441372%" fill="#0f380f" fill-opacity="0.2309945935279174" transform="rotate(-9.109152021256936 20.99903526022553 66.01503640827208)" /><rect x="88.63477140121783%" y="24.269590882189473%" width="7.774218212308875%" height="24.006799149559484%" fill="#0f380f" fill-opacity="0.12990897201657664" transform="rotate(-9.651329678227265 88.63477140121783 24.269590882189473)" /><rect x="48.27224492920485%" y="39.05516993804296%" width="8.875329801890013%" height="19.257133952513136%" fill="#0f380f" fill-opacity="0.3687423188946709" transform="rotate(0.3642793701105589 48.27224492920485 39.05516993804296)" /><rect x="4.771118508677164%" y="41.02883197329346%" width="3.486605718687819%" height="20.666424105934844%" fill="#0f380f" fill-opacity="0.34504419261279895" transform="rotate(3.1071323002281233 4.771118508677164 41.02883197329346)" /><rect x="91.94007653316694%" y="15.388732216823719%" width="5.609314637116572%" height="14.755780770089249%" fill="#0f380f" fill-opacity="0.30790823351029595" transform="rotate(1.6116865825022444 91.94007653316694 15.388732216823719)" /><rect x="94.28546226516443%" y="93.191522892092%" width="4.488305719967281%" height="6.436881453503858%" fill="#0f380f" fill-opacity="0.35698523390255466" transform="rotate(5.979118399813608 94.28546226516443 93.191522892092)" /><rect x="59.231013077543935%" y="61.77620613239667%" width="8.80910665462144%" height="12.12548117390952%" fill="#0f380f" fill-opacity="0.1401068869093789" transform="rotate(4.891106556994554 59.231013077543935 61.77620613239667)" /><rect x="97.41960045774972%" y="36.8893039209302%" width="3.9207854110472242%" height="23.106614430444044%" fill="#0f380f" fill-opacity="0.3641012507998733" transform="rotate(4.80472977382952 97.41960045774972 36.8893039209302)" /><rect x="92.71216027156457%" y="7.8995498331670415%" width="6.617600302232914%" height="15.023552612177419%" fill="#0f380f" fill-opacity="0.14576480930579153" transform="rotate(-8.567004901428243 92.71216027156457 7.8995498331670415)" /><rect x="9.62944244893167%" y="76.09334924453596%" width="2.7348880578147545%" height="14.31073821330376%" fill="#0f380f" fill-opacity="0.15478280641948455" transform="rotate(2.5583600362379713 9.62944244893167 76.09334924453596)" /><rect x="65.65699754664251%" y="16.573466489775168%" width="5.07143902802328%" height="19.98777355164522%" fill="#0f380f" fill-opacity="0.23572054542453827" transform="rotate(-0.43566057067440767 65.65699754664251 16.573466489775168)" /><rect x="60.75761999071542%" y="94.07188972490185%" width="3.89857287220776%" height="18.542285981810153%" fill="#0f380f" fill-opacity="0.14743564283222052" transform="rotate(8.493500739383531 60.75761999071542 94.07188972490185)" /><rect x="58.842293286483915%" y="74.41069802309018%" width="6.344932175696377%" height="11.280359040398869%" fill="#0f380f" fill-opacity="0.269538808608438" transform="rotate(9.08955861435522 58.842293286483915 74.41069802309018)" /><rect x="76.06529771854741%" y="87.45235097636886%" width="2.200810546500932%" height="22.842472183059353%" fill="#0f380f" fill-opacity="0.24131420615345126" transform="rotate(-7.459264430743202 76.06529771854741 87.45235097636886)" /><rect x="25.03914945017447%" y="67.47426745260763%" width="9.95521039060003%" height="20.31076823269517%" fill="#0f380f" fill-opacity="0.3551031405934908" transform="rotate(-8.049778912827039 25.03914945017447 67.47426745260763)" /><rect x="32.74766889294237%" y="43.14917499830594%" width="10.410811326224664%" height="8.98514876280333%" fill="#0f380f" fill-opacity="0.31908706556839733" transform="rotate(-3.036485157625341 32.74766889294237 43.14917499830594)" /><rect x="36.671671188210276%" y="76.54034826888899%" width="9.500615558021298%" height="20.24292410269275%" fill="#0f380f" fill-opacity="0.20716824574662424" transform="rotate(1.6345502111319412 36.671671188210276 76.54034826888899)" /><rect x="11.446306985873555%" y="61.43684484530869%" width="4.7983960866164725%" height="19.08521993721679%" fill="#0f380f" fill-opacity="0.39703072513734816" transform="rotate(3.125135612117109 11.446306985873555 61.43684484530869)" /><rect x="67.33075348508972%" y="18.754568154585883%" width="11.959209424778058%" height="11.207898869188128%" fill="#0f380f" fill-opacity="0.36054522169326286" transform="rotate(-0.15639799773557783 67.33075348508972 18.754568154585883)" /><rect x="68.8322913038367%" y="58.56591593237665%" width="2.6913569030233644%" height="16.60568252973012%" fill="#0f380f" fill-opacity="0.399182050644474" transform="rotate(1.6283035193730129 68.8322913038367 58.56591593237665)" /><rect x="79.92854896129109%" y="96.77947384974456%" width="10.134404324830507%" height="9.686732553006362%" fill="#0f380f" fill-opacity="0.30954612545645976" transform="rotate(4.957874327401777 79.92854896129109 96.77947384974456)" /><rect x="48.32828594909472%" y="17.48176701605726%" width="2.9205761594336104%" height="7.862594425312857%" fill="#0f380f" fill-opacity="0.12162751423986312" transform="rotate(9.451741708173891 48.32828594909472 17.48176701605726)" /><rect x="83.3667546460936%" y="57.32999738894789%" width="9.595884231208599%" height="13.302965713107028%" fill="#0f380f" fill-opacity="0.38337736193406147" transform="rotate(-3.9595655465898556 83.3667546460936 57.32999738894789)" /><rect x="69.07904205546296%" y="74.23045949567343%" width="6.204823251142575%" height="15.7872804970518%" fill="#0f380f" fill-opacity="0.26010443249123305" transform="rotate(-8.440213040611418 69.07904205546296 74.23045949567343)" /><rect x="28.142438241665168%" y="31.49685912605128%" width="2.5254913393848315%" height="21.234156062062077%" fill="#0f380f" fill-opacity="0.32615084679823747" transform="rotate(-2.02915808936718 28.142438241665168 31.49685912605128)" /><rect x="99.74588573178877%" y="2.5997474775336094%" width="4.335296581556388%" height="12.63843861098859%" fill="#0f380f" fill-opacity="0.17366155602569558" transform="rotate(-4.100050734308831 99.74588573178877 2.5997474775336094)" /><rect x="22.930077459777998%" y="84.00896369269434%" width="7.623714189651845%" height="21.235598541949933%" fill="#0f380f" fill-opacity="0.25562690863132415" transform="rotate(7.6359168684760945 22.930077459777998 84.00896369269434)" /><rect x="17.012301785408646%" y="29.141908915043647%" width="9.858839818379574%" height="19.436381417204387%" fill="#0f380f" fill-opacity="0.13264564567788675" transform="rotate(-6.719130175906938 17.012301785408646 29.141908915043647)" /><rect x="91.64640720559262%" y="22.733962224662363%" width="7.538046795004634%" height="17.756154730006518%" fill="#0f380f" fill-opacity="0.1840097693530094" transform="rotate(-7.09901867583695 91.64640720559262 22.733962224662363)" /><rect x="50.50582754676599%" y="21.63941352907376%" width="9.968900772653104%" height="11.875318618406407%" fill="#0f380f" fill-opacity="0.35355099729976736" transform="rotate(0.11690774189070652 50.50582754676599 21.63941352907376)" /><rect x="24.715285301384647%" y="9.071489098134478%" width="11.30168840284524%" height="10.620834220489005%" fill="#0f380f" fill-opacity="0.22897751739479216" transform="rotate(1.5290897566355532 24.715285301384647 9.071489098134478)" /><rect x="96.17643410662852%" y="59.70860708005606%" width="8.800366346620255%" height="20.380759109537053%" fill="#0f380f" fill-opacity="0.306961566906497" transform="rotate(3.9043897924795807 96.17643410662852 59.70860708005606)" /><rect x="86.49871181939737%" y="44.50670617987985%" width="7.108652330389383%" height="10.42995861409064%" fill="#0f380f" fill-opacity="0.30636978624246414" transform="rotate(6.698594392774897 86.49871181939737 44.50670617987985)" /><rect x="68.59549033639628%" y="15.312282605096305%" width="6.500790813792045%" height="5.362759387934084%" fill="#0f380f" fill-opacity="0.3035536594008999" transform="rotate(-6.800526363000941 68.59549033639628 15.312282605096305)" /><rect x="3.2839960037570504%" y="31.32503557372296%" width="10.66819443993924%" height="24.610727939976563%" fill="#0f380f" fill-opacity="0.1558050407314924" transform="rotate(5.196011272219405 3.2839960037570504 31.32503557372296)" /><rect x="10.486673925421586%" y="39.28413078166568%" width="10.624906104626357%" height="20.017841983616737%" fill="#0f380f" fill-opacity="0.190346395494008" transform="rotate(0.4546047090819272 10.486673925421586 39.28413078166568)" /><rect x="93.20289074981412%" y="75.40107566423485%" width="3.7132842739297107%" height="12.400173436704067%" fill="#0f380f" fill-opacity="0.3411243219837815" transform="rotate(6.205697917179005 93.20289074981412 75.40107566423485)" /><rect x="30.84338066859701%" y="93.50386181715757%" width="8.015587115337329%" height="17.44064548623243%" fill="#0f380f" fill-opacity="0.30513944613875815" transform="rotate(0.0633446965158857 30.84338066859701 93.50386181715757)" /><rect x="58.641287398817%" y="58.052295553644015%" width="11.625358529933619%" height="11.998425083069415%" fill="#0f380f" fill-opacity="0.3718517642503447" transform="rotate(-8.379963237592458 58.641287398817 58.052295553644015)" /><rect x="4.527163171036053%" y="83.20046420343249%" width="4.6577658736126475%" height="11.230601959088268%" fill="#0f380f" fill-opacity="0.22911547653722344" transform="rotate(6.942868169413771 4.527163171036053 83.20046420343249)" /><rect x="58.72194919057293%" y="24.283724307466194%" width="7.069605627521458%" height="9.52630811553157%" fill="#0f380f" fill-opacity="0.17599495551487776" transform="rotate(2.169413295998879 58.72194919057293 24.283724307466194)" /><rect x="92.02393519394859%" y="7.76887404265767%" width="5.22963078903625%" height="24.587489924986745%" fill="#0f380f" fill-opacity="0.17156103547008977" transform="rotate(2.3560341587593143 92.02393519394859 7.76887404265767)" /><rect x="90.36205133507072%" y="86.1635046981618%" width="9.062895964059594%" height="20.510007579450335%" fill="#0f380f" fill-opacity="0.11381149797304525" transform="rotate(7.499275381701008 90.36205133507072 86.1635046981618)" />
    <text x="50%" y="50%" font-family="monospace" font-size="24" fill="#2e5c2e" opacity="0.4" 
          text-anchor="middle" dominant-baseline="middle" 
          transform="rotate(90, 100, 100)">ROTATE</text>
    <!-- Add more noise on top -->
    <rect x="0" y="0" width="100%" height="100%" fill="url(#noise)" opacity="0.2"/>
    <defs>
        <filter id="noise">
            <feTurbulence type="fractalNoise" baseFrequency="0.8" numOctaves="3" stitchTiles="stitch"/>
        </filter>
    </defs>
</svg>