
<svg width="200" height="200" viewBox="0 0 200 200" xmlns="http://www.w3.org/2000/svg">
    <rect width="100%" height="100%" fill="#1a2f1a" />
    <rect x="81.15965140971069%" y="24.709029026018147%" width="8.081598304256325%" height="13.163239476709268%" fill="#0f380f" fill-opacity="0.34292488943683164" transform="rotate(8.280430573924892 81.15965140971069 24.709029026018147)" /><rect x="33.916752803848304%" y="50.77557856328205%" width="11.253851453714173%" height="14.801392708295767%" fill="#0f380f" fill-opacity="0.18311371237450907" transform="rotate(6.847235972394902 33.916752803848304 50.77557856328205)" /><rect x="7.586628298079656%" y="78.98114989503186%" width="2.8466408260216065%" height="23.67353484589361%" fill="#0f380f" fill-opacity="0.19858754927331956" transform="rotate(-7.893029135958902 7.586628298079656 78.98114989503186)" /><rect x="58.04723325439536%" y="88.72919591451394%" width="10.66193373692396%" height="8.329098411181358%" fill="#0f380f" fill-opacity="0.1997155773744587" transform="rotate(-6.08710216714625 58.04723325439536 88.72919591451394)" /><rect x="32.450392286495045%" y="83.00963293413093%" width="7.3711474597293485%" height="12.289154532350015%" fill="#0f380f" fill-opacity="0.23840179334047026" transform="rotate(-7.82057239954745 32.450392286495045 83.00963293413093)" /><rect x="12.852481617471245%" y="14.777113443191537%" width="8.923482064429248%" height="5.713569203348385%" fill="#0f380f" fill-opacity="0.23818511263805625" transform="rotate(-5.077995622684119 12.852481617471245 14.777113443191537)" /><rect x="62.69087691755551%" y="94.44743910355989%" width="8.02706169707506%" height="15.776169024631685%" fill="#0f380f" fill-opacity="0.2963552130625333" transform="rotate(3.5218847120175223 62.69087691755551 94.44743910355989)" /><rect x="57.31511824432987%" y="63.37341803936381%" width="2.3928258760443324%" height="5.2557937377582675%" fill="#0f380f" fill-opacity="0.3503808806945775" transform="rotate(-7.379138549921969 57.31511824432987 63.37341803936381)" /><rect x="81.869711247208%" y="64.6883765934939%" width="8.359427975277283%" height="15.269814768222936%" fill="#0f380f" fill-opacity="0.20331949501891838" transform="rotate(8.179297930905157 81.869711247208 64.6883765934939)" /><rect x="15.18398030988365%" y="22.03806592254949%" width="8.89667425224121%" height="7.519959589916104%" fill="#0f380f" fill-opacity="0.16671915018821692" transform="rotate(5.360682183028672 15.18398030988365 22.03806592254949)" /><rect x="65.15920623032835%" y="29.95649794523113%" width="7.075952315514867%" height="20.026760223204015%" fill="#0f380f" fill-opacity="0.15541202187521946" transform="rotate(-4.5495541872807514 65.15920623032835 29.95649794523113)" /><rect x="80.39192740132503%" y="74.94247219650151%" width="11.697927880688798%" height="17.12539639943418%" fill="#0f380f" fill-opacity="0.2387131243730915" transform="rotate(1.4011609230152189 80.39192740132503 74.94247219650151)" /><rect x="75.0856060318962%" y="14.92324433701846%" width="8.330186445301475%" height="7.7069751045176975%" fill="#0f380f" fill-opacity="0.1484647511421303" transform="rotate(5.616602414265861 75.0856060318962 14.92324433701846)" /><rect x="40.689653464706524%" y="51.25918597755912%" width="6.240395462234825%" height="15.185710022491932%" fill="#0f380f" fill-opacity="0.3047451109187335" transform="rotate(-2.057332308128461 40.689653464706524 51.25918597755912)" /><rect x="48.16350565847848%" y="43.22332666492804%" width="5.589448100128574%" height="12.75758108156998%" fill="#0f380f" fill-opacity="0.2512815138864434" transform="rotate(-3.419073313419611 48.16350565847848 43.22332666492804)" /><rect x="23.79580632571766%" y="3.000503008829025%" width="8.094250265885242%" height="6.610447309812953%" fill="#0f380f" fill-opacity="0.17851862175669783" transform="rotate(-8.217899191002996 23.79580632571766 3.000503008829025)" /><rect x="12.059274831006928%" y="60.56392877864399%" width="5.487069441773568%" height="15.25464595346352%" fill="#0f380f" fill-opacity="0.3931882664785995" transform="rotate(7.524372573333476 12.059274831006928 60.56392877864399)" /><rect x="15.191021399313342%" y="54.30691603882888%" width="11.850733661015777%" height="19.09984055270571%" fill="#0f380f" fill-opacity="0.20952153501141957" transform="rotate(9.624252489291948 15.191021399313342 54.30691603882888)" /><rect x="40.44840046145208%" y="61.5200162750738%" width="11.771454338184132%" height="12.012062655809064%" fill="#0f380f" fill-opacity="0.3539943748182951" transform="rotate(-8.478931020773766 40.44840046145208 61.5200162750738)" /><rect x="69.02332880828422%" y="24.258108335657713%" width="6.553283426117316%" height="9.486290103710564%" fill="#0f380f" fill-opacity="0.1107044554598433" transform="rotate(4.602245191580801 69.02332880828422 24.258108335657713)" /><rect x="32.459925153393655%" y="42.154938080524026%" width="5.985375608114346%" height="22.64444796173117%" fill="#0f380f" fill-opacity="0.30100134694342867" transform="rotate(6.54112482348545 32.459925153393655 42.154938080524026)" /><rect x="53.28572915568013%" y="7.982627290757815%" width="4.992030161530355%" height="16.745304601527206%" fill="#0f380f" fill-opacity="0.2773214210229779" transform="rotate(-8.915450452816781 53.28572915568013 7.982627290757815)" /><rect x="83.81429073077359%" y="24.35405129391822%" width="4.45566587002291%" height="12.667175258032575%" fill="#0f380f" fill-opacity="0.3986077416025856" transform="rotate(0.6695725442238931 83.81429073077359 24.35405129391822)" /><rect x="46.87677688721442%" y="82.65754147599732%" width="2.4654319604978863%" height="19.198602268503166%" fill="#0f380f" fill-opacity="0.21694756265884751" transform="rotate(3.022750474300242 46.87677688721442 82.65754147599732)" /><rect x="11.459253364394673%" y="97.01581316640508%" width="4.465418400616402%" height="22.159874708306212%" fill="#0f380f" fill-opacity="0.13623213688733116" transform="rotate(8.487999829645393 11.459253364394673 97.01581316640508)" /><rect x="96.66739726562147%" y="61.41631039414399%" width="4.349822923602051%" height="20.80266098813808%" fill="#0f380f" fill-opacity="0.22997618660309402" transform="rotate(-2.314749295445873 96.66739726562147 61.41631039414399)" /><rect x="85.54844668683282%" y="28.568135969582432%" width="3.500464325260263%" height="21.91037587096677%" fill="#0f380f" fill-opacity="0.19398927737709154" transform="rotate(-1.245031428127568 85.54844668683282 28.568135969582432)" /><rect x="60.908505124267144%" y="34.07710477477518%" width="3.4475618762459153%" height="24.59161885983358%" fill="#0f380f" fill-opacity="0.37638766300959237" transform="rotate(-2.9214470504997303 60.908505124267144 34.07710477477518)" /><rect x="56.69592769821181%" y="57.9187914719935%" width="3.6599466610787914%" height="11.004402515261242%" fill="#0f380f" fill-opacity="0.3503722917770651" transform="rotate(5.35206643851704 56.69592769821181 57.9187914719935)" /><rect x="72.36913034663685%" y="48.48188170569411%" width="9.064124874483682%" height="18.926101872168083%" fill="#0f380f" fill-opacity="0.3749734850876677" transform="rotate(5.735496446138237 72.36913034663685 48.48188170569411)" /><rect x="22.246707754180118%" y="88.2852325032999%" width="11.190067284315347%" height="21.92349629332845%" fill="#0f380f" fill-opacity="0.38448394850302403" transform="rotate(6.775665254352358 22.246707754180118 88.2852325032999)" /><rect x="0.252892303551433%" y="99.46373044470987%" width="2.744088439329007%" height="5.601770674090696%" fill="#0f380f" fill-opacity="0.2844154788947172" transform="rotate(8.824535404337048 0.252892303551433 99.46373044470987)" /><rect x="61.73385324141434%" y="50.145672943217576%" width="6.345648816838108%" height="11.90981558592085%" fill="#0f380f" fill-opacity="0.3773816058408219" transform="rotate(-2.267635257675071 61.73385324141434 50.145672943217576)" /><rect x="5.892044369585491%" y="21.49074500923328%" width="2.588037032223089%" height="14.032283533199216%" fill="#0f380f" fill-opacity="0.25725845023441996" transform="rotate(-9.435165053291934 5.892044369585491 21.49074500923328)" /><rect x="27.72308327032611%" y="41.0244603073201%" width="3.827158933651576%" height="11.46099825800655%" fill="#0f380f" fill-opacity="0.13417332340417565" transform="rotate(-2.8818629260534534 27.72308327032611 41.0244603073201)" /><rect x="76.36973288399028%" y="93.897597910458%" width="10.927579929200087%" height="14.638641920923863%" fill="#0f380f" fill-opacity="0.15851312925479671" transform="rotate(9.418875446950452 76.36973288399028 93.897597910458)" /><rect x="15.816412917902378%" y="38.776882910688705%" width="7.249467852325774%" height="8.984725085590508%" fill="#0f380f" fill-opacity="0.24100643878670042" transform="rotate(8.235153278606159 15.816412917902378 38.776882910688705)" /><rect x="26.76132720546733%" y="57.593384320090344%" width="2.659545394885691%" height="24.693273301260312%" fill="#0f380f" fill-opacity="0.3077189337957582" transform="rotate(7.874356895648809 26.76132720546733 57.593384320090344)" /><rect x="30.67040569409807%" y="39.3185831099116%" width="5.410103905182094%" height="6.64782083579365%" fill="#0f380f" fill-opacity="0.2319418739714265" transform="rotate(-4.917196886969075 30.67040569409807 39.3185831099116)" /><rect x="69.05601626802276%" y="81.23532823260857%" width="6.924782520063133%" height="23.172737001199284%" fill="#0f380f" fill-opacity="0.21322930912454607" transform="rotate(7.203410456108362 69.05601626802276 81.23532823260857)" /><rect x="22.244662248964296%" y="43.44843085788088%" width="3.2120286040422057%" height="22.810245936484353%" fill="#0f380f" fill-opacity="0.12335467102064294" transform="rotate(-4.4180304612385735 22.244662248964296 43.44843085788088)" /><rect x="85.91542911867403%" y="82.90795426541321%" width="10.68221976584749%" height="14.04160851404566%" fill="#0f380f" fill-opacity="0.19334966721686825" transform="rotate(-8.865126324591088 85.91542911867403 82.90795426541321)" /><rect x="20.795276435504416%" y="80.42204335140131%" width="10.027415524066132%" height="16.135078807363726%" fill="#0f380f" fill-opacity="0.25954940772563173" transform="rotate(3.15042658658607 20.795276435504416 80.42204335140131)" /><rect x="78.5557736379069%" y="48.19727065837339%" width="9.63062291372152%" height="14.549421686726232%" fill="#0f380f" fill-opacity="0.2281536875599664" transform="rotate(-7.183682439622903 78.5557736379069 48.19727065837339)" /><rect x="62.433133577555644%" y="98.10065333655054%" width="3.769944772688914%" height="7.729344261000046%" fill="#0f380f" fill-opacity="0.29634587729912015" transform="rotate(4.3685417113554 62.433133577555644 98.10065333655054)" /><rect x="27.277318653569793%" y="59.01656621931652%" width="2.2977643412016953%" height="16.881010612471414%" fill="#0f380f" fill-opacity="0.16436080914969514" transform="rotate(4.297499898611363 27.277318653569793 59.01656621931652)" /><rect x="11.052413174700249%" y="16.038888798750627%" width="11.349341215924847%" height="21.247725576396263%" fill="#0f380f" fill-opacity="0.15201254069821996" transform="rotate(2.6313883271412344 11.052413174700249 16.038888798750627)" /><rect x="12.333519122054392%" y="53.91139035335528%" width="8.408789388394052%" height="5.491574186349832%" fill="#0f380f" fill-opacity="0.1565009679308365" transform="rotate(-4.09721018796507 12.333519122054392 53.91139035335528)" /><rect x="18.324736753470972%" y="95.4163499706196%" width="7.518343857987297%" height="18.47824772371304%" fill="#0f380f" fill-opacity="0.11676120230246362" transform="rotate(3.9059092403744984 18.324736753470972 95.4163499706196)" /><rect x="35.666178399168494%" y="11.67708594949296%" width="9.85654492461805%" height="12.378944258350614%" fill="#0f380f" fill-opacity="0.12383827609239124" transform="rotate(-7.9093663310621825 35.666178399168494 11.67708594949296)" />
    <text x="50%" y="50%" font-family="monospace" font-size="24" fill="#2e5c2e" opacity="0.4" 
          text-anchor="middle" dominant-baseline="middle" 
          transform="rotate(90, 100, 100)">ROTATE</text>
    <!-- Add more noise on top -->
    <rect x="0" y="0" width="100%" height="100%" fill="url(#noise)" opacity="0.2"/>
    <defs>
        <filter id="noise">
            <feTurbulence type="fractalNoise" baseFrequency="0.8" numOctaves="3" stitchTiles="stitch"/>
        </filter>
    </defs>
</svg>