
<svg width="200" height="200" viewBox="0 0 200 200" xmlns="http://www.w3.org/2000/svg">
    <rect width="100%" height="100%" fill="#1a2f1a" />
    <rect x="64.23175114866198%" y="43.94364054724259%" width="4.567575674815705%" height="24.987613689856293%" fill="#0f380f" fill-opacity="0.2071434817743632" transform="rotate(-7.430220801679031 64.23175114866198 43.94364054724259)" /><rect x="96.96256535537489%" y="66.31693174583599%" width="10.544712715131208%" height="23.52597145691238%" fill="#0f380f" fill-opacity="0.3293659908907746" transform="rotate(-0.06478471959709609 96.96256535537489 66.31693174583599)" /><rect x="46.89598999101078%" y="43.71840249755113%" width="7.626879371317396%" height="8.800053142600685%" fill="#0f380f" fill-opacity="0.3329354548493115" transform="rotate(-8.107764885297748 46.89598999101078 43.71840249755113)" /><rect x="65.48504202398149%" y="2.2457805527066443%" width="7.5098309325494785%" height="9.991850176302%" fill="#0f380f" fill-opacity="0.16694126892378597" transform="rotate(6.1922235202085005 65.48504202398149 2.2457805527066443)" /><rect x="23.996183797770275%" y="53.463583949101626%" width="9.903963922962546%" height="18.244392676773295%" fill="#0f380f" fill-opacity="0.13411653621118677" transform="rotate(1.7386868861980727 23.996183797770275 53.463583949101626)" /><rect x="64.3028043095366%" y="86.30840695389175%" width="2.4610829969819994%" height="18.61018293578586%" fill="#0f380f" fill-opacity="0.2647088466387527" transform="rotate(-3.004146863251467 64.3028043095366 86.30840695389175)" /><rect x="19.937764483408028%" y="33.57491788737411%" width="11.143460453113324%" height="24.727337988002795%" fill="#0f380f" fill-opacity="0.1646622704911223" transform="rotate(9.62780282437016 19.937764483408028 33.57491788737411)" /><rect x="51.55737772239528%" y="35.72070764804989%" width="6.9611647778574595%" height="5.580797522549603%" fill="#0f380f" fill-opacity="0.3413087144753326" transform="rotate(9.580781908287324 51.55737772239528 35.72070764804989)" /><rect x="61.764355438395846%" y="36.9392660532151%" width="9.215513550810435%" height="9.967107416135551%" fill="#0f380f" fill-opacity="0.386893455490942" transform="rotate(0.4820425569426323 61.764355438395846 36.9392660532151)" /><rect x="11.845236116192815%" y="17.295714665633753%" width="8.800030004246446%" height="23.418866187019987%" fill="#0f380f" fill-opacity="0.2647394819099347" transform="rotate(8.467184409397227 11.845236116192815 17.295714665633753)" /><rect x="24.94806494494275%" y="38.400646389872215%" width="2.31061572197826%" height="22.06000506774479%" fill="#0f380f" fill-opacity="0.19972923519810215" transform="rotate(0.9790587779025177 24.94806494494275 38.400646389872215)" /><rect x="66.30930231514974%" y="20.224345780741448%" width="4.377527537089218%" height="15.838736348350707%" fill="#0f380f" fill-opacity="0.3256289409809548" transform="rotate(5.9920538079992625 66.30930231514974 20.224345780741448)" /><rect x="13.872780637765603%" y="25.777133498254734%" width="3.0025292440874156%" height="5.751572416977117%" fill="#0f380f" fill-opacity="0.18309713623397572" transform="rotate(-2.1268506749578453 13.872780637765603 25.777133498254734)" /><rect x="5.579187553318599%" y="54.756366025646145%" width="9.878127451023719%" height="14.08771799708941%" fill="#0f380f" fill-opacity="0.2764499486563755" transform="rotate(6.037998642190015 5.579187553318599 54.756366025646145)" /><rect x="90.48167152677186%" y="73.77950651779717%" width="3.665403181113818%" height="14.565264994071077%" fill="#0f380f" fill-opacity="0.3599434453685184" transform="rotate(9.478412558545639 90.48167152677186 73.77950651779717)" /><rect x="89.91759730036532%" y="96.59466632491656%" width="2.2433479915433856%" height="19.48499269880327%" fill="#0f380f" fill-opacity="0.1915711859424736" transform="rotate(0.5709157885152845 89.91759730036532 96.59466632491656)" /><rect x="87.26952178445922%" y="72.89503676481898%" width="10.666463755802333%" height="9.568549564828825%" fill="#0f380f" fill-opacity="0.3510607019107742" transform="rotate(6.560211775350147 87.26952178445922 72.89503676481898)" /><rect x="2.174520507940325%" y="28.2098247841336%" width="2.485052176745703%" height="8.817070615719654%" fill="#0f380f" fill-opacity="0.26298052253696935" transform="rotate(3.2905818693206434 2.174520507940325 28.2098247841336)" /><rect x="8.565213758342004%" y="55.3303026752046%" width="8.97067638035622%" height="15.788118147788255%" fill="#0f380f" fill-opacity="0.15595413779670864" transform="rotate(-6.950577472968488 8.565213758342004 55.3303026752046)" /><rect x="98.8811964907232%" y="79.4842370466042%" width="8.82293367082493%" height="22.541040231818222%" fill="#0f380f" fill-opacity="0.19228866113209991" transform="rotate(-2.2799997349628676 98.8811964907232 79.4842370466042)" /><rect x="88.26386695230615%" y="15.103765090743249%" width="9.145230107496841%" height="22.756079314560118%" fill="#0f380f" fill-opacity="0.3427336431873581" transform="rotate(-1.4868086518630275 88.26386695230615 15.103765090743249)" /><rect x="83.52317167592722%" y="35.31308040531018%" width="8.40543719894728%" height="10.385796403724328%" fill="#0f380f" fill-opacity="0.38825239207831264" transform="rotate(9.731200463391684 83.52317167592722 35.31308040531018)" /><rect x="60.918194918097235%" y="5.2777459376634805%" width="4.736778038060905%" height="13.128550383513995%" fill="#0f380f" fill-opacity="0.1891017812373055" transform="rotate(-0.04321251583830055 60.918194918097235 5.2777459376634805)" /><rect x="70.36179934414467%" y="83.78474848275347%" width="3.320300416881157%" height="7.608081911013009%" fill="#0f380f" fill-opacity="0.29498853629490657" transform="rotate(-6.951194703293022 70.36179934414467 83.78474848275347)" /><rect x="13.843877710553398%" y="52.98596042303614%" width="10.657085268261609%" height="5.698273953012811%" fill="#0f380f" fill-opacity="0.13693819496519832" transform="rotate(-6.324238251184939 13.843877710553398 52.98596042303614)" /><rect x="64.57759839694468%" y="23.766073144042245%" width="2.340241869912863%" height="9.315905602301836%" fill="#0f380f" fill-opacity="0.39338713071533404" transform="rotate(4.961250898353724 64.57759839694468 23.766073144042245)" /><rect x="16.07014448272498%" y="13.042041275511473%" width="2.0843346603545236%" height="13.643191586365086%" fill="#0f380f" fill-opacity="0.3899469235744716" transform="rotate(2.635331679590111 16.07014448272498 13.042041275511473)" /><rect x="50.99003111687613%" y="90.68465296726134%" width="7.998264892476502%" height="9.59167789140692%" fill="#0f380f" fill-opacity="0.3347318918009239" transform="rotate(-6.3324812382705105 50.99003111687613 90.68465296726134)" /><rect x="93.99556024524293%" y="24.9277339086996%" width="6.309101855033866%" height="6.588640863374566%" fill="#0f380f" fill-opacity="0.31192504672620625" transform="rotate(-7.009078200975914 93.99556024524293 24.9277339086996)" /><rect x="35.31398516934862%" y="43.91577300910009%" width="5.189806321813108%" height="5.482683553479195%" fill="#0f380f" fill-opacity="0.10812267010370358" transform="rotate(7.525207703633512 35.31398516934862 43.91577300910009)" /><rect x="52.583031362217106%" y="44.91077755642466%" width="9.030048703821896%" height="17.95861814979485%" fill="#0f380f" fill-opacity="0.30754045200246805" transform="rotate(9.92152432190666 52.583031362217106 44.91077755642466)" /><rect x="66.0864818276356%" y="47.49055124192802%" width="2.438149997682614%" height="23.525480325495142%" fill="#0f380f" fill-opacity="0.22019556172071486" transform="rotate(9.99540437252578 66.0864818276356 47.49055124192802)" /><rect x="15.550371943155096%" y="58.25441242743003%" width="2.3503319346280698%" height="12.574896785784942%" fill="#0f380f" fill-opacity="0.36261935943219503" transform="rotate(7.780960532531704 15.550371943155096 58.25441242743003)" /><rect x="39.85075231287488%" y="55.006659464078766%" width="8.143562158462963%" height="20.360481338954305%" fill="#0f380f" fill-opacity="0.2046891928498516" transform="rotate(-4.45179735497349 39.85075231287488 55.006659464078766)" /><rect x="80.96506377126018%" y="78.26659977973983%" width="9.995072359718522%" height="24.975614503504268%" fill="#0f380f" fill-opacity="0.2462231032345087" transform="rotate(-0.8103371519943714 80.96506377126018 78.26659977973983)" /><rect x="64.23427672540677%" y="85.40016465404845%" width="3.238110518850334%" height="12.497657787389391%" fill="#0f380f" fill-opacity="0.3879471079432193" transform="rotate(-2.0274548580560943 64.23427672540677 85.40016465404845)" /><rect x="14.491900365520639%" y="93.44473686702925%" width="5.711946705159348%" height="24.625719292261422%" fill="#0f380f" fill-opacity="0.2618288343077277" transform="rotate(7.295631582961896 14.491900365520639 93.44473686702925)" /><rect x="50.06404925726224%" y="51.177237847883674%" width="5.982644560143413%" height="11.154820101774767%" fill="#0f380f" fill-opacity="0.3706548024604591" transform="rotate(-2.5926102773772763 50.06404925726224 51.177237847883674)" /><rect x="41.59515027753097%" y="29.23955314057618%" width="6.7494510990454035%" height="8.269968280492286%" fill="#0f380f" fill-opacity="0.1177996888043383" transform="rotate(8.46350620261694 41.59515027753097 29.23955314057618)" /><rect x="70.923058267546%" y="33.97412371058544%" width="4.989238127763535%" height="5.921244786213194%" fill="#0f380f" fill-opacity="0.37849471572559046" transform="rotate(6.928315747150297 70.923058267546 33.97412371058544)" /><rect x="24.230421104415388%" y="81.22011615288001%" width="4.040254798789009%" height="7.252435451512715%" fill="#0f380f" fill-opacity="0.28464415224731576" transform="rotate(8.276759169163903 24.230421104415388 81.22011615288001)" /><rect x="86.89237432856409%" y="75.81946801393656%" width="4.462124989524809%" height="24.04353394054499%" fill="#0f380f" fill-opacity="0.13390622662733231" transform="rotate(5.547457115559451 86.89237432856409 75.81946801393656)" /><rect x="39.940890568096634%" y="84.07654119700342%" width="4.362807455928236%" height="7.027580614196685%" fill="#0f380f" fill-opacity="0.2996216378882589" transform="rotate(9.999047036663399 39.940890568096634 84.07654119700342)" /><rect x="89.24485080993352%" y="18.774547223343284%" width="6.5765776993165925%" height="24.378880832429804%" fill="#0f380f" fill-opacity="0.21501405001661728" transform="rotate(2.5901084677954405 89.24485080993352 18.774547223343284)" /><rect x="89.47524009498146%" y="60.901211190718854%" width="6.3675030076821395%" height="23.103077594377297%" fill="#0f380f" fill-opacity="0.18614378300817447" transform="rotate(6.243232207627102 89.47524009498146 60.901211190718854)" /><rect x="71.35849226150707%" y="97.08392032417036%" width="7.610000797187226%" height="17.33273248008217%" fill="#0f380f" fill-opacity="0.14695078949524956" transform="rotate(6.039777924455297 71.35849226150707 97.08392032417036)" /><rect x="78.64684071576437%" y="56.82135324107785%" width="11.998123235128562%" height="5.287090364483014%" fill="#0f380f" fill-opacity="0.21003067368649433" transform="rotate(5.705589272550002 78.64684071576437 56.82135324107785)" /><rect x="21.227558084406027%" y="29.016789286047118%" width="10.230043271025197%" height="8.31802057568568%" fill="#0f380f" fill-opacity="0.36428091879500724" transform="rotate(6.333804381412257 21.227558084406027 29.016789286047118)" /><rect x="71.63110412505024%" y="86.5026561079328%" width="4.22208419321503%" height="11.948091641002751%" fill="#0f380f" fill-opacity="0.3714824575799124" transform="rotate(-4.745464361915492 71.63110412505024 86.5026561079328)" /><rect x="54.988743745535814%" y="24.52332904806529%" width="5.165457113856112%" height="7.670989762946661%" fill="#0f380f" fill-opacity="0.3964815698248696" transform="rotate(-3.624213791211197 54.988743745535814 24.52332904806529)" />
    <text x="50%" y="50%" font-family="monospace" font-size="24" fill="#2e5c2e" opacity="0.4" 
          text-anchor="middle" dominant-baseline="middle" 
          transform="rotate(90, 100, 100)">ROTATE</text>
    <!-- Add more noise on top -->
    <rect x="0" y="0" width="100%" height="100%" fill="url(#noise)" opacity="0.2"/>
    <defs>
        <filter id="noise">
            <feTurbulence type="fractalNoise" baseFrequency="0.8" numOctaves="3" stitchTiles="stitch"/>
        </filter>
    </defs>
</svg>