
<svg width="200" height="200" viewBox="0 0 200 200" xmlns="http://www.w3.org/2000/svg">
    <rect width="100%" height="100%" fill="#1a2f1a" />
    <rect x="51.34139194952398%" y="21.505603177102152%" width="3.1714633257342766%" height="18.754014028148504%" fill="#0f380f" fill-opacity="0.39427689336187677" transform="rotate(9.592622982813353 51.34139194952398 21.505603177102152)" /><rect x="77.00137816341379%" y="70.98842311759351%" width="8.043107407481699%" height="16.11580998894114%" fill="#0f380f" fill-opacity="0.11630601041302449" transform="rotate(-7.062023070156201 77.00137816341379 70.98842311759351)" /><rect x="61.25123942719812%" y="38.90878980995052%" width="6.5615715326874575%" height="5.202198231543096%" fill="#0f380f" fill-opacity="0.3137136131603816" transform="rotate(-2.288418202735116 61.25123942719812 38.90878980995052)" /><rect x="87.35650830396958%" y="67.88643677117047%" width="7.4448723468569575%" height="5.231986384085719%" fill="#0f380f" fill-opacity="0.12196355841328509" transform="rotate(9.008459775097407 87.35650830396958 67.88643677117047)" /><rect x="68.83113765028709%" y="48.40816522903461%" width="3.5119241803225925%" height="16.66765876117873%" fill="#0f380f" fill-opacity="0.13976823939216573" transform="rotate(-5.027934209675502 68.83113765028709 48.40816522903461)" /><rect x="26.398937305060333%" y="79.66457268930667%" width="10.713846613962025%" height="23.638608403893848%" fill="#0f380f" fill-opacity="0.2697868214997702" transform="rotate(-2.57589785877117 26.398937305060333 79.66457268930667)" /><rect x="33.051295367690024%" y="15.267231155075189%" width="6.291268728312375%" height="23.05342120917377%" fill="#0f380f" fill-opacity="0.38138055133037085" transform="rotate(5.7407447551204385 33.051295367690024 15.267231155075189)" /><rect x="17.147911456746044%" y="99.10568143984398%" width="2.450088818728368%" height="10.757088060526865%" fill="#0f380f" fill-opacity="0.3120390998348145" transform="rotate(4.6054870607364595 17.147911456746044 99.10568143984398)" /><rect x="92.40602117730926%" y="31.238497491752415%" width="10.50772199561381%" height="5.541602530090697%" fill="#0f380f" fill-opacity="0.3605931641753506" transform="rotate(1.9908076691669123 92.40602117730926 31.238497491752415)" /><rect x="8.402661357638097%" y="18.133194864319858%" width="9.916709116033047%" height="10.526720606601954%" fill="#0f380f" fill-opacity="0.15408730388488714" transform="rotate(-0.1947591723142601 8.402661357638097 18.133194864319858)" /><rect x="54.534469183591526%" y="98.56734323821472%" width="7.234745674769926%" height="22.62207891585828%" fill="#0f380f" fill-opacity="0.10877942008941778" transform="rotate(6.688917162380065 54.534469183591526 98.56734323821472)" /><rect x="20.345114495816695%" y="72.11780962901587%" width="6.293597794034897%" height="20.986907722696326%" fill="#0f380f" fill-opacity="0.11984869340404888" transform="rotate(-7.2077012069248525 20.345114495816695 72.11780962901587)" /><rect x="38.69221584182267%" y="95.89167487777705%" width="9.058050794751873%" height="18.07281160718623%" fill="#0f380f" fill-opacity="0.11969875771156381" transform="rotate(5.7092296943262095 38.69221584182267 95.89167487777705)" /><rect x="95.53923817870078%" y="96.17320055633044%" width="8.52233319517648%" height="9.810365264943396%" fill="#0f380f" fill-opacity="0.3996745369616922" transform="rotate(-3.0627093194198025 95.53923817870078 96.17320055633044)" /><rect x="16.81984125091651%" y="18.19017368001531%" width="9.208476947115095%" height="16.805160055047406%" fill="#0f380f" fill-opacity="0.3656273055669155" transform="rotate(2.480897702673797 16.81984125091651 18.19017368001531)" /><rect x="20.478979173532462%" y="50.4548331035471%" width="2.526592397296156%" height="6.523393682968246%" fill="#0f380f" fill-opacity="0.27896018717876586" transform="rotate(-4.600618343488858 20.478979173532462 50.4548331035471)" /><rect x="37.93797179635815%" y="15.34888759645765%" width="9.676752222804833%" height="6.910099943566355%" fill="#0f380f" fill-opacity="0.1962111434327658" transform="rotate(5.812057257223952 37.93797179635815 15.34888759645765)" /><rect x="21.42089226608682%" y="37.18057440642134%" width="9.471990392961583%" height="18.966236884085433%" fill="#0f380f" fill-opacity="0.1517645286808281" transform="rotate(2.6165419778089767 21.42089226608682 37.18057440642134)" /><rect x="28.839978786180044%" y="35.68831328115524%" width="8.86797230202222%" height="21.707675767485767%" fill="#0f380f" fill-opacity="0.22497338289611013" transform="rotate(-6.5767035942452985 28.839978786180044 35.68831328115524)" /><rect x="66.78911352344586%" y="37.036810814548446%" width="5.425405787318082%" height="9.000313825270347%" fill="#0f380f" fill-opacity="0.21064606536222008" transform="rotate(0.8930275420893636 66.78911352344586 37.036810814548446)" /><rect x="2.3099758161966966%" y="75.12143025092803%" width="2.6049487500192385%" height="10.819746305251329%" fill="#0f380f" fill-opacity="0.21930083494765917" transform="rotate(-3.4501016475706425 2.3099758161966966 75.12143025092803)" /><rect x="69.88514088969329%" y="36.594018182842255%" width="4.33061055129329%" height="7.706235094387257%" fill="#0f380f" fill-opacity="0.21052855057975206" transform="rotate(-7.78984695001403 69.88514088969329 36.594018182842255)" /><rect x="15.255658565500275%" y="47.81782930625775%" width="8.870604690757958%" height="7.5706528632594505%" fill="#0f380f" fill-opacity="0.2322791457024191" transform="rotate(-8.366553141422557 15.255658565500275 47.81782930625775)" /><rect x="90.50855057925449%" y="70.09297347677753%" width="9.963638334498397%" height="17.694117676675248%" fill="#0f380f" fill-opacity="0.15292013648988909" transform="rotate(9.33267466845911 90.50855057925449 70.09297347677753)" /><rect x="9.425696846402987%" y="29.97831869481019%" width="3.869950868448058%" height="10.21024020216434%" fill="#0f380f" fill-opacity="0.25304022803360726" transform="rotate(2.2025164598601155 9.425696846402987 29.97831869481019)" /><rect x="72.83548884377734%" y="67.64823847509255%" width="8.167305161843814%" height="9.281489905058649%" fill="#0f380f" fill-opacity="0.306071150996537" transform="rotate(7.0217329353141835 72.83548884377734 67.64823847509255)" /><rect x="71.5453357028239%" y="75.10706998896173%" width="2.5669361068177405%" height="15.624709811317013%" fill="#0f380f" fill-opacity="0.11570953784175364" transform="rotate(-3.8861685539709807 71.5453357028239 75.10706998896173)" /><rect x="43.27609752932442%" y="56.34228813956591%" width="3.268879019459195%" height="9.867719542565098%" fill="#0f380f" fill-opacity="0.37769893223457196" transform="rotate(7.6497273459978 43.27609752932442 56.34228813956591)" /><rect x="0.18119874369457722%" y="61.87744736454327%" width="6.769408572579153%" height="21.529369874762306%" fill="#0f380f" fill-opacity="0.21551368689636394" transform="rotate(-0.4283552288988872 0.18119874369457722 61.87744736454327)" /><rect x="26.430301170208725%" y="78.85193754654712%" width="5.897101775245741%" height="18.499524656909777%" fill="#0f380f" fill-opacity="0.11687480528982933" transform="rotate(-3.3678341816466855 26.430301170208725 78.85193754654712)" /><rect x="58.7410783807603%" y="4.57144720555398%" width="11.960109457199462%" height="15.96733444518964%" fill="#0f380f" fill-opacity="0.14778016876016534" transform="rotate(6.2704693237627325 58.7410783807603 4.57144720555398)" /><rect x="5.793106105241296%" y="85.60113933426426%" width="10.371493833693021%" height="20.150622841955094%" fill="#0f380f" fill-opacity="0.14175699483772933" transform="rotate(4.279530835742726 5.793106105241296 85.60113933426426)" /><rect x="86.60217862726455%" y="96.36872549321008%" width="10.508915839843066%" height="10.848387235159231%" fill="#0f380f" fill-opacity="0.21813521269980782" transform="rotate(7.417354443087138 86.60217862726455 96.36872549321008)" /><rect x="31.202983384601733%" y="62.44517633683312%" width="10.496840045439871%" height="19.457979196129557%" fill="#0f380f" fill-opacity="0.25896612059020385" transform="rotate(7.035826447260266 31.202983384601733 62.44517633683312)" /><rect x="92.77438242823594%" y="46.31417100864535%" width="7.933405221249864%" height="13.590785381507986%" fill="#0f380f" fill-opacity="0.22718264775998429" transform="rotate(-5.322577406776237 92.77438242823594 46.31417100864535)" /><rect x="16.12990489580569%" y="93.58139024214451%" width="2.519242042521438%" height="16.38000834216369%" fill="#0f380f" fill-opacity="0.2670795585660407" transform="rotate(-8.407840623106694 16.12990489580569 93.58139024214451)" /><rect x="77.63486338310767%" y="89.85212095338795%" width="3.440453549649642%" height="5.717572679655312%" fill="#0f380f" fill-opacity="0.2994428228584748" transform="rotate(6.469532119250779 77.63486338310767 89.85212095338795)" /><rect x="32.843222325699614%" y="6.121927940544092%" width="2.4758672024532173%" height="23.83534657380062%" fill="#0f380f" fill-opacity="0.13028614142171505" transform="rotate(-9.87643739808311 32.843222325699614 6.121927940544092)" /><rect x="28.46209185956824%" y="21.368759869818078%" width="5.174128752017909%" height="17.833592330022835%" fill="#0f380f" fill-opacity="0.13924342977858156" transform="rotate(-9.15753230506686 28.46209185956824 21.368759869818078)" /><rect x="26.49273166426961%" y="82.99128550276038%" width="5.53057957147311%" height="9.47867087338989%" fill="#0f380f" fill-opacity="0.19882810889656863" transform="rotate(5.6993309218260695 26.49273166426961 82.99128550276038)" /><rect x="28.607557229899015%" y="76.73167314518466%" width="7.261243637118133%" height="7.001760855845218%" fill="#0f380f" fill-opacity="0.2849234704230892" transform="rotate(-5.673552274716109 28.607557229899015 76.73167314518466)" /><rect x="63.276637127533895%" y="8.000940219637487%" width="7.078813096103952%" height="13.51434702535606%" fill="#0f380f" fill-opacity="0.29483038011151685" transform="rotate(3.7435994047684815 63.276637127533895 8.000940219637487)" /><rect x="79.84012094354908%" y="17.330483338905477%" width="10.267888070871507%" height="23.943190700835142%" fill="#0f380f" fill-opacity="0.2727439772416186" transform="rotate(-4.043697890124416 79.84012094354908 17.330483338905477)" /><rect x="65.33554159536867%" y="79.49712430065111%" width="3.8001940978233497%" height="23.75615139967155%" fill="#0f380f" fill-opacity="0.3953183340844173" transform="rotate(8.741895891147578 65.33554159536867 79.49712430065111)" /><rect x="31.24558162401523%" y="3.955825149073322%" width="6.946275033338271%" height="7.33366025726129%" fill="#0f380f" fill-opacity="0.141005976353368" transform="rotate(0.667785924714579 31.24558162401523 3.955825149073322)" /><rect x="82.72088140701536%" y="75.89660403399651%" width="4.831362904762181%" height="5.272859421615066%" fill="#0f380f" fill-opacity="0.26259553754616494" transform="rotate(-3.6708024818531904 82.72088140701536 75.89660403399651)" /><rect x="17.793786069013663%" y="93.71166915662542%" width="4.1709846983155625%" height="12.164791857389046%" fill="#0f380f" fill-opacity="0.31138106029604135" transform="rotate(-4.047819041693657 17.793786069013663 93.71166915662542)" /><rect x="11.079667697351436%" y="88.72130752088043%" width="4.860166683191371%" height="11.745364631620834%" fill="#0f380f" fill-opacity="0.18678524494855453" transform="rotate(9.451541645810643 11.079667697351436 88.72130752088043)" /><rect x="21.513253725240965%" y="17.128525869541235%" width="8.608750475072735%" height="5.87520727676333%" fill="#0f380f" fill-opacity="0.10133111373200349" transform="rotate(9.699444679647328 21.513253725240965 17.128525869541235)" /><rect x="45.203549356129024%" y="7.194740975109037%" width="8.55415508013471%" height="7.751714201690643%" fill="#0f380f" fill-opacity="0.3347277748497425" transform="rotate(9.46707265771694 45.203549356129024 7.194740975109037)" />
    <text x="50%" y="50%" font-family="monospace" font-size="24" fill="#2e5c2e" opacity="0.4" 
          text-anchor="middle" dominant-baseline="middle" 
          transform="rotate(90, 100, 100)">ROTATE</text>
    <!-- Add more noise on top -->
    <rect x="0" y="0" width="100%" height="100%" fill="url(#noise)" opacity="0.2"/>
    <defs>
        <filter id="noise">
            <feTurbulence type="fractalNoise" baseFrequency="0.8" numOctaves="3" stitchTiles="stitch"/>
        </filter>
    </defs>
</svg>